%TF.GenerationSoftware,KiCad,Pcbnew,9.0.2*%
%TF.CreationDate,2026-05-02T16:59:57+05:30*%
%TF.ProjectId,raspberry pi Project,72617370-6265-4727-9279-207069205072,rev?*%
%TF.SameCoordinates,Original*%
%TF.FileFunction,Copper,L1,Top*%
%TF.FilePolarity,Positive*%
%FSLAX46Y46*%
G04 Gerber Fmt 4.6, Leading zero omitted, Abs format (unit mm)*
G04 Created by KiCad (PCBNEW 9.0.2) date 2026-05-02 16:59:57*
%MOMM*%
%LPD*%
G01*
G04 APERTURE LIST*
%TA.AperFunction,ComponentPad*%
%ADD10R,1.700000X1.700000*%
%TD*%
%TA.AperFunction,ComponentPad*%
%ADD11C,1.700000*%
%TD*%
%TA.AperFunction,ComponentPad*%
%ADD12R,1.800000X1.800000*%
%TD*%
%TA.AperFunction,ComponentPad*%
%ADD13C,1.800000*%
%TD*%
%TA.AperFunction,ComponentPad*%
%ADD14R,1.070000X1.800000*%
%TD*%
%TA.AperFunction,ComponentPad*%
%ADD15O,1.070000X1.800000*%
%TD*%
%TA.AperFunction,Conductor*%
%ADD16C,0.200000*%
%TD*%
G04 APERTURE END LIST*
D10*
%TO.P,J1,1,Pin_1*%
%TO.N,/POWER_5V*%
X133560000Y-77240000D03*
D11*
%TO.P,J1,2,Pin_2*%
%TO.N,/TX*%
X131020000Y-77240000D03*
%TO.P,J1,3,Pin_3*%
%TO.N,/RX*%
X128480000Y-77240000D03*
%TD*%
D10*
%TO.P,J4,1,Pin_1*%
%TO.N,/MIC_L\u005CR*%
X106060000Y-77160000D03*
D11*
%TO.P,J4,2,Pin_2*%
%TO.N,/MIC_SW*%
X106060000Y-79700000D03*
%TO.P,J4,3,Pin_3*%
%TO.N,/MIC_SCK*%
X106060000Y-82240000D03*
%TD*%
D10*
%TO.P,J7,1,Pin_1*%
%TO.N,/POWER_5V*%
X144985000Y-110490000D03*
D11*
%TO.P,J7,2,Pin_2*%
%TO.N,unconnected-(J7-Pin_2-Pad2)*%
X142445000Y-110490000D03*
%TO.P,J7,3,Pin_3*%
%TO.N,unconnected-(J7-Pin_3-Pad3)*%
X139905000Y-110490000D03*
%TO.P,J7,4,Pin_4*%
%TO.N,/TX*%
X137365000Y-110490000D03*
%TO.P,J7,5,Pin_5*%
%TO.N,/RX*%
X134825000Y-110490000D03*
%TO.P,J7,6,Pin_6*%
%TO.N,/MIC_SCK*%
X132285000Y-110490000D03*
%TO.P,J7,7,Pin_7*%
%TO.N,/RGB_(-)*%
X129745000Y-110490000D03*
%TO.P,J7,8,Pin_8*%
%TO.N,/RGB_(G)*%
X127205000Y-110490000D03*
%TO.P,J7,9,Pin_9*%
%TO.N,/RGB_(B)*%
X124665000Y-110490000D03*
%TO.P,J7,10,Pin_10*%
%TO.N,/W_LED_(-)*%
X122125000Y-110490000D03*
%TO.P,J7,11,Pin_11*%
%TO.N,/W_LED_(+)*%
X119585000Y-110490000D03*
%TO.P,J7,12,Pin_12*%
%TO.N,/RGB_(R)*%
X117045000Y-110490000D03*
%TO.P,J7,13,Pin_13*%
%TO.N,unconnected-(J7-Pin_13-Pad13)*%
X114505000Y-110490000D03*
%TO.P,J7,14,Pin_14*%
%TO.N,unconnected-(J7-Pin_14-Pad14)*%
X111965000Y-110490000D03*
%TO.P,J7,15,Pin_15*%
%TO.N,/MIC_L\u005CR*%
X109425000Y-110490000D03*
%TO.P,J7,16,Pin_16*%
%TO.N,unconnected-(J7-Pin_16-Pad16)*%
X106885000Y-110490000D03*
%TO.P,J7,17,Pin_17*%
%TO.N,/MIC_GND*%
X104345000Y-110490000D03*
%TO.P,J7,18,Pin_18*%
%TO.N,unconnected-(J7-Pin_18-Pad18)*%
X101805000Y-110490000D03*
%TO.P,J7,19,Pin_19*%
%TO.N,/MIC_SD*%
X99265000Y-110490000D03*
%TO.P,J7,20,Pin_20*%
%TO.N,unconnected-(J7-Pin_20-Pad20)*%
X96725000Y-110490000D03*
%TD*%
D12*
%TO.P,D2,1,K*%
%TO.N,/W_LED_(-)*%
X117060000Y-78740000D03*
D13*
%TO.P,D2,2,A*%
%TO.N,/W_LED_(+)*%
X114520000Y-78740000D03*
%TD*%
D10*
%TO.P,J6,1,Pin_1*%
%TO.N,/VCC_OLED*%
X144975000Y-113990000D03*
D11*
%TO.P,J6,2,Pin_2*%
%TO.N,/SDA_OLED*%
X142435000Y-113990000D03*
%TO.P,J6,3,Pin_3*%
%TO.N,/SCL_OLED*%
X139895000Y-113990000D03*
%TO.P,J6,4,Pin_4*%
%TO.N,unconnected-(J6-Pin_4-Pad4)*%
X137355000Y-113990000D03*
%TO.P,J6,5,Pin_5*%
%TO.N,/GND_OLED*%
X134815000Y-113990000D03*
%TO.P,J6,6,Pin_6*%
%TO.N,unconnected-(J6-Pin_6-Pad6)*%
X132275000Y-113990000D03*
%TO.P,J6,7,Pin_7*%
%TO.N,unconnected-(J6-Pin_7-Pad7)*%
X129735000Y-113990000D03*
%TO.P,J6,8,Pin_8*%
%TO.N,unconnected-(J6-Pin_8-Pad8)*%
X127195000Y-113990000D03*
%TO.P,J6,9,Pin_9*%
%TO.N,/MIC_3.3V*%
X124655000Y-113990000D03*
%TO.P,J6,10,Pin_10*%
%TO.N,unconnected-(J6-Pin_10-Pad10)*%
X122115000Y-113990000D03*
%TO.P,J6,11,Pin_11*%
%TO.N,unconnected-(J6-Pin_11-Pad11)*%
X119575000Y-113990000D03*
%TO.P,J6,12,Pin_12*%
%TO.N,unconnected-(J6-Pin_12-Pad12)*%
X117035000Y-113990000D03*
%TO.P,J6,13,Pin_13*%
%TO.N,unconnected-(J6-Pin_13-Pad13)*%
X114495000Y-113990000D03*
%TO.P,J6,14,Pin_14*%
%TO.N,unconnected-(J6-Pin_14-Pad14)*%
X111955000Y-113990000D03*
%TO.P,J6,15,Pin_15*%
%TO.N,unconnected-(J6-Pin_15-Pad15)*%
X109415000Y-113990000D03*
%TO.P,J6,16,Pin_16*%
%TO.N,unconnected-(J6-Pin_16-Pad16)*%
X106875000Y-113990000D03*
%TO.P,J6,17,Pin_17*%
%TO.N,unconnected-(J6-Pin_17-Pad17)*%
X104335000Y-113990000D03*
%TO.P,J6,18,Pin_18*%
%TO.N,/MIC_SW*%
X101795000Y-113990000D03*
%TO.P,J6,19,Pin_19*%
%TO.N,unconnected-(J6-Pin_19-Pad19)*%
X99255000Y-113990000D03*
%TO.P,J6,20,Pin_20*%
%TO.N,unconnected-(J6-Pin_20-Pad20)*%
X96715000Y-113990000D03*
%TD*%
D10*
%TO.P,J3,1,Pin_1*%
%TO.N,/MIC_GND*%
X97810000Y-77160000D03*
D11*
%TO.P,J3,2,Pin_2*%
%TO.N,/MIC_3.3V*%
X97810000Y-79700000D03*
%TO.P,J3,3,Pin_3*%
%TO.N,/MIC_SD*%
X97810000Y-82240000D03*
%TD*%
D10*
%TO.P,J5,1,Pin_1*%
%TO.N,/VCC_OLED*%
X154465000Y-69740000D03*
D11*
%TO.P,J5,2,Pin_2*%
%TO.N,/GND_OLED*%
X151925000Y-69740000D03*
%TO.P,J5,3,Pin_3*%
%TO.N,/SCL_OLED*%
X149385000Y-69740000D03*
%TO.P,J5,4,Pin_4*%
%TO.N,/SDA_OLED*%
X146845000Y-69740000D03*
%TD*%
D14*
%TO.P,D1,1,BA*%
%TO.N,/RGB_(B)*%
X120905000Y-78740000D03*
D15*
%TO.P,D1,2,GA*%
%TO.N,/RGB_(G)*%
X122175000Y-78740000D03*
%TO.P,D1,3,K*%
%TO.N,/RGB_(-)*%
X123445000Y-78740000D03*
%TO.P,D1,4,RA*%
%TO.N,/RGB_(R)*%
X124715000Y-78740000D03*
%TD*%
D16*
%TO.N,*%
X122950000Y-174400000D02*
X122950000Y-196700000D01*
X118100000Y-169550000D02*
X122950000Y-174400000D01*
X122950000Y-196700000D02*
X122950000Y-166350000D01*
%TD*%
M02*
