%TF.GenerationSoftware,KiCad,Pcbnew,9.0.2*%
%TF.CreationDate,2026-05-02T16:59:57+05:30*%
%TF.ProjectId,raspberry pi Project,72617370-6265-4727-9279-207069205072,rev?*%
%TF.SameCoordinates,Original*%
%TF.FileFunction,Legend,Top*%
%TF.FilePolarity,Positive*%
%FSLAX46Y46*%
G04 Gerber Fmt 4.6, Leading zero omitted, Abs format (unit mm)*
G04 Created by KiCad (PCBNEW 9.0.2) date 2026-05-02 16:59:57*
%MOMM*%
%LPD*%
G01*
G04 APERTURE LIST*
%ADD10C,0.100000*%
%ADD11C,0.150000*%
%ADD12C,0.120000*%
G04 APERTURE END LIST*
D10*
X100624286Y-71485990D02*
X100529048Y-71438371D01*
X100529048Y-71438371D02*
X100481429Y-71390752D01*
X100481429Y-71390752D02*
X100433810Y-71295514D01*
X100433810Y-71295514D02*
X100433810Y-71247895D01*
X100433810Y-71247895D02*
X100481429Y-71152657D01*
X100481429Y-71152657D02*
X100529048Y-71105038D01*
X100529048Y-71105038D02*
X100624286Y-71057419D01*
X100624286Y-71057419D02*
X100814762Y-71057419D01*
X100814762Y-71057419D02*
X100910000Y-71105038D01*
X100910000Y-71105038D02*
X100957619Y-71152657D01*
X100957619Y-71152657D02*
X101005238Y-71247895D01*
X101005238Y-71247895D02*
X101005238Y-71295514D01*
X101005238Y-71295514D02*
X100957619Y-71390752D01*
X100957619Y-71390752D02*
X100910000Y-71438371D01*
X100910000Y-71438371D02*
X100814762Y-71485990D01*
X100814762Y-71485990D02*
X100624286Y-71485990D01*
X100624286Y-71485990D02*
X100529048Y-71533609D01*
X100529048Y-71533609D02*
X100481429Y-71581228D01*
X100481429Y-71581228D02*
X100433810Y-71676466D01*
X100433810Y-71676466D02*
X100433810Y-71866942D01*
X100433810Y-71866942D02*
X100481429Y-71962180D01*
X100481429Y-71962180D02*
X100529048Y-72009800D01*
X100529048Y-72009800D02*
X100624286Y-72057419D01*
X100624286Y-72057419D02*
X100814762Y-72057419D01*
X100814762Y-72057419D02*
X100910000Y-72009800D01*
X100910000Y-72009800D02*
X100957619Y-71962180D01*
X100957619Y-71962180D02*
X101005238Y-71866942D01*
X101005238Y-71866942D02*
X101005238Y-71676466D01*
X101005238Y-71676466D02*
X100957619Y-71581228D01*
X100957619Y-71581228D02*
X100910000Y-71533609D01*
X100910000Y-71533609D02*
X100814762Y-71485990D01*
X101433810Y-71962180D02*
X101481429Y-72009800D01*
X101481429Y-72009800D02*
X101433810Y-72057419D01*
X101433810Y-72057419D02*
X101386191Y-72009800D01*
X101386191Y-72009800D02*
X101433810Y-71962180D01*
X101433810Y-71962180D02*
X101433810Y-72057419D01*
X101862381Y-71152657D02*
X101910000Y-71105038D01*
X101910000Y-71105038D02*
X102005238Y-71057419D01*
X102005238Y-71057419D02*
X102243333Y-71057419D01*
X102243333Y-71057419D02*
X102338571Y-71105038D01*
X102338571Y-71105038D02*
X102386190Y-71152657D01*
X102386190Y-71152657D02*
X102433809Y-71247895D01*
X102433809Y-71247895D02*
X102433809Y-71343133D01*
X102433809Y-71343133D02*
X102386190Y-71485990D01*
X102386190Y-71485990D02*
X101814762Y-72057419D01*
X101814762Y-72057419D02*
X102433809Y-72057419D01*
X103338571Y-71057419D02*
X102862381Y-71057419D01*
X102862381Y-71057419D02*
X102814762Y-71533609D01*
X102814762Y-71533609D02*
X102862381Y-71485990D01*
X102862381Y-71485990D02*
X102957619Y-71438371D01*
X102957619Y-71438371D02*
X103195714Y-71438371D01*
X103195714Y-71438371D02*
X103290952Y-71485990D01*
X103290952Y-71485990D02*
X103338571Y-71533609D01*
X103338571Y-71533609D02*
X103386190Y-71628847D01*
X103386190Y-71628847D02*
X103386190Y-71866942D01*
X103386190Y-71866942D02*
X103338571Y-71962180D01*
X103338571Y-71962180D02*
X103290952Y-72009800D01*
X103290952Y-72009800D02*
X103195714Y-72057419D01*
X103195714Y-72057419D02*
X102957619Y-72057419D01*
X102957619Y-72057419D02*
X102862381Y-72009800D01*
X102862381Y-72009800D02*
X102814762Y-71962180D01*
X97785000Y-74570000D02*
X97785000Y-72113580D01*
X106035000Y-72113580D02*
X106035000Y-74860000D01*
X97785000Y-72700000D02*
X106035000Y-72700000D01*
X97785000Y-72700000D02*
X98911504Y-72113579D01*
X97785000Y-72700000D02*
X98911504Y-73286421D01*
X106035000Y-72700000D02*
X104908496Y-73286421D01*
X106035000Y-72700000D02*
X104908496Y-72113579D01*
X119406428Y-99847419D02*
X118930238Y-99847419D01*
X118930238Y-99847419D02*
X118882619Y-100323609D01*
X118882619Y-100323609D02*
X118930238Y-100275990D01*
X118930238Y-100275990D02*
X119025476Y-100228371D01*
X119025476Y-100228371D02*
X119263571Y-100228371D01*
X119263571Y-100228371D02*
X119358809Y-100275990D01*
X119358809Y-100275990D02*
X119406428Y-100323609D01*
X119406428Y-100323609D02*
X119454047Y-100418847D01*
X119454047Y-100418847D02*
X119454047Y-100656942D01*
X119454047Y-100656942D02*
X119406428Y-100752180D01*
X119406428Y-100752180D02*
X119358809Y-100799800D01*
X119358809Y-100799800D02*
X119263571Y-100847419D01*
X119263571Y-100847419D02*
X119025476Y-100847419D01*
X119025476Y-100847419D02*
X118930238Y-100799800D01*
X118930238Y-100799800D02*
X118882619Y-100752180D01*
X120073095Y-99847419D02*
X120168333Y-99847419D01*
X120168333Y-99847419D02*
X120263571Y-99895038D01*
X120263571Y-99895038D02*
X120311190Y-99942657D01*
X120311190Y-99942657D02*
X120358809Y-100037895D01*
X120358809Y-100037895D02*
X120406428Y-100228371D01*
X120406428Y-100228371D02*
X120406428Y-100466466D01*
X120406428Y-100466466D02*
X120358809Y-100656942D01*
X120358809Y-100656942D02*
X120311190Y-100752180D01*
X120311190Y-100752180D02*
X120263571Y-100799800D01*
X120263571Y-100799800D02*
X120168333Y-100847419D01*
X120168333Y-100847419D02*
X120073095Y-100847419D01*
X120073095Y-100847419D02*
X119977857Y-100799800D01*
X119977857Y-100799800D02*
X119930238Y-100752180D01*
X119930238Y-100752180D02*
X119882619Y-100656942D01*
X119882619Y-100656942D02*
X119835000Y-100466466D01*
X119835000Y-100466466D02*
X119835000Y-100228371D01*
X119835000Y-100228371D02*
X119882619Y-100037895D01*
X119882619Y-100037895D02*
X119930238Y-99942657D01*
X119930238Y-99942657D02*
X119977857Y-99895038D01*
X119977857Y-99895038D02*
X120073095Y-99847419D01*
X120835000Y-100752180D02*
X120882619Y-100799800D01*
X120882619Y-100799800D02*
X120835000Y-100847419D01*
X120835000Y-100847419D02*
X120787381Y-100799800D01*
X120787381Y-100799800D02*
X120835000Y-100752180D01*
X120835000Y-100752180D02*
X120835000Y-100847419D01*
X121215952Y-99847419D02*
X121882618Y-99847419D01*
X121882618Y-99847419D02*
X121454047Y-100847419D01*
X122692142Y-99847419D02*
X122501666Y-99847419D01*
X122501666Y-99847419D02*
X122406428Y-99895038D01*
X122406428Y-99895038D02*
X122358809Y-99942657D01*
X122358809Y-99942657D02*
X122263571Y-100085514D01*
X122263571Y-100085514D02*
X122215952Y-100275990D01*
X122215952Y-100275990D02*
X122215952Y-100656942D01*
X122215952Y-100656942D02*
X122263571Y-100752180D01*
X122263571Y-100752180D02*
X122311190Y-100799800D01*
X122311190Y-100799800D02*
X122406428Y-100847419D01*
X122406428Y-100847419D02*
X122596904Y-100847419D01*
X122596904Y-100847419D02*
X122692142Y-100799800D01*
X122692142Y-100799800D02*
X122739761Y-100752180D01*
X122739761Y-100752180D02*
X122787380Y-100656942D01*
X122787380Y-100656942D02*
X122787380Y-100418847D01*
X122787380Y-100418847D02*
X122739761Y-100323609D01*
X122739761Y-100323609D02*
X122692142Y-100275990D01*
X122692142Y-100275990D02*
X122596904Y-100228371D01*
X122596904Y-100228371D02*
X122406428Y-100228371D01*
X122406428Y-100228371D02*
X122311190Y-100275990D01*
X122311190Y-100275990D02*
X122263571Y-100323609D01*
X122263571Y-100323609D02*
X122215952Y-100418847D01*
X95455000Y-109990000D02*
X95455000Y-100903580D01*
X146215000Y-100903580D02*
X146215000Y-109490000D01*
X95455000Y-101490000D02*
X146215000Y-101490000D01*
X95455000Y-101490000D02*
X96581504Y-100903579D01*
X95455000Y-101490000D02*
X96581504Y-102076421D01*
X146215000Y-101490000D02*
X145088496Y-102076421D01*
X146215000Y-101490000D02*
X145088496Y-100903579D01*
D11*
X135784819Y-77573333D02*
X136499104Y-77573333D01*
X136499104Y-77573333D02*
X136641961Y-77620952D01*
X136641961Y-77620952D02*
X136737200Y-77716190D01*
X136737200Y-77716190D02*
X136784819Y-77859047D01*
X136784819Y-77859047D02*
X136784819Y-77954285D01*
X136784819Y-76573333D02*
X136784819Y-77144761D01*
X136784819Y-76859047D02*
X135784819Y-76859047D01*
X135784819Y-76859047D02*
X135927676Y-76954285D01*
X135927676Y-76954285D02*
X136022914Y-77049523D01*
X136022914Y-77049523D02*
X136070533Y-77144761D01*
X105726666Y-73844819D02*
X105726666Y-74559104D01*
X105726666Y-74559104D02*
X105679047Y-74701961D01*
X105679047Y-74701961D02*
X105583809Y-74797200D01*
X105583809Y-74797200D02*
X105440952Y-74844819D01*
X105440952Y-74844819D02*
X105345714Y-74844819D01*
X106631428Y-74178152D02*
X106631428Y-74844819D01*
X106393333Y-73797200D02*
X106155238Y-74511485D01*
X106155238Y-74511485D02*
X106774285Y-74511485D01*
X146819819Y-110823333D02*
X147534104Y-110823333D01*
X147534104Y-110823333D02*
X147676961Y-110870952D01*
X147676961Y-110870952D02*
X147772200Y-110966190D01*
X147772200Y-110966190D02*
X147819819Y-111109047D01*
X147819819Y-111109047D02*
X147819819Y-111204285D01*
X146819819Y-110442380D02*
X146819819Y-109775714D01*
X146819819Y-109775714D02*
X147819819Y-110204285D01*
X115051905Y-83154819D02*
X115051905Y-82154819D01*
X115051905Y-82154819D02*
X115290000Y-82154819D01*
X115290000Y-82154819D02*
X115432857Y-82202438D01*
X115432857Y-82202438D02*
X115528095Y-82297676D01*
X115528095Y-82297676D02*
X115575714Y-82392914D01*
X115575714Y-82392914D02*
X115623333Y-82583390D01*
X115623333Y-82583390D02*
X115623333Y-82726247D01*
X115623333Y-82726247D02*
X115575714Y-82916723D01*
X115575714Y-82916723D02*
X115528095Y-83011961D01*
X115528095Y-83011961D02*
X115432857Y-83107200D01*
X115432857Y-83107200D02*
X115290000Y-83154819D01*
X115290000Y-83154819D02*
X115051905Y-83154819D01*
X116004286Y-82250057D02*
X116051905Y-82202438D01*
X116051905Y-82202438D02*
X116147143Y-82154819D01*
X116147143Y-82154819D02*
X116385238Y-82154819D01*
X116385238Y-82154819D02*
X116480476Y-82202438D01*
X116480476Y-82202438D02*
X116528095Y-82250057D01*
X116528095Y-82250057D02*
X116575714Y-82345295D01*
X116575714Y-82345295D02*
X116575714Y-82440533D01*
X116575714Y-82440533D02*
X116528095Y-82583390D01*
X116528095Y-82583390D02*
X115956667Y-83154819D01*
X115956667Y-83154819D02*
X116575714Y-83154819D01*
X146809819Y-114323333D02*
X147524104Y-114323333D01*
X147524104Y-114323333D02*
X147666961Y-114370952D01*
X147666961Y-114370952D02*
X147762200Y-114466190D01*
X147762200Y-114466190D02*
X147809819Y-114609047D01*
X147809819Y-114609047D02*
X147809819Y-114704285D01*
X146809819Y-113418571D02*
X146809819Y-113609047D01*
X146809819Y-113609047D02*
X146857438Y-113704285D01*
X146857438Y-113704285D02*
X146905057Y-113751904D01*
X146905057Y-113751904D02*
X147047914Y-113847142D01*
X147047914Y-113847142D02*
X147238390Y-113894761D01*
X147238390Y-113894761D02*
X147619342Y-113894761D01*
X147619342Y-113894761D02*
X147714580Y-113847142D01*
X147714580Y-113847142D02*
X147762200Y-113799523D01*
X147762200Y-113799523D02*
X147809819Y-113704285D01*
X147809819Y-113704285D02*
X147809819Y-113513809D01*
X147809819Y-113513809D02*
X147762200Y-113418571D01*
X147762200Y-113418571D02*
X147714580Y-113370952D01*
X147714580Y-113370952D02*
X147619342Y-113323333D01*
X147619342Y-113323333D02*
X147381247Y-113323333D01*
X147381247Y-113323333D02*
X147286009Y-113370952D01*
X147286009Y-113370952D02*
X147238390Y-113418571D01*
X147238390Y-113418571D02*
X147190771Y-113513809D01*
X147190771Y-113513809D02*
X147190771Y-113704285D01*
X147190771Y-113704285D02*
X147238390Y-113799523D01*
X147238390Y-113799523D02*
X147286009Y-113847142D01*
X147286009Y-113847142D02*
X147381247Y-113894761D01*
X97476666Y-73844819D02*
X97476666Y-74559104D01*
X97476666Y-74559104D02*
X97429047Y-74701961D01*
X97429047Y-74701961D02*
X97333809Y-74797200D01*
X97333809Y-74797200D02*
X97190952Y-74844819D01*
X97190952Y-74844819D02*
X97095714Y-74844819D01*
X97857619Y-73844819D02*
X98476666Y-73844819D01*
X98476666Y-73844819D02*
X98143333Y-74225771D01*
X98143333Y-74225771D02*
X98286190Y-74225771D01*
X98286190Y-74225771D02*
X98381428Y-74273390D01*
X98381428Y-74273390D02*
X98429047Y-74321009D01*
X98429047Y-74321009D02*
X98476666Y-74416247D01*
X98476666Y-74416247D02*
X98476666Y-74654342D01*
X98476666Y-74654342D02*
X98429047Y-74749580D01*
X98429047Y-74749580D02*
X98381428Y-74797200D01*
X98381428Y-74797200D02*
X98286190Y-74844819D01*
X98286190Y-74844819D02*
X98000476Y-74844819D01*
X98000476Y-74844819D02*
X97905238Y-74797200D01*
X97905238Y-74797200D02*
X97857619Y-74749580D01*
X156689819Y-70073333D02*
X157404104Y-70073333D01*
X157404104Y-70073333D02*
X157546961Y-70120952D01*
X157546961Y-70120952D02*
X157642200Y-70216190D01*
X157642200Y-70216190D02*
X157689819Y-70359047D01*
X157689819Y-70359047D02*
X157689819Y-70454285D01*
X156689819Y-69120952D02*
X156689819Y-69597142D01*
X156689819Y-69597142D02*
X157166009Y-69644761D01*
X157166009Y-69644761D02*
X157118390Y-69597142D01*
X157118390Y-69597142D02*
X157070771Y-69501904D01*
X157070771Y-69501904D02*
X157070771Y-69263809D01*
X157070771Y-69263809D02*
X157118390Y-69168571D01*
X157118390Y-69168571D02*
X157166009Y-69120952D01*
X157166009Y-69120952D02*
X157261247Y-69073333D01*
X157261247Y-69073333D02*
X157499342Y-69073333D01*
X157499342Y-69073333D02*
X157594580Y-69120952D01*
X157594580Y-69120952D02*
X157642200Y-69168571D01*
X157642200Y-69168571D02*
X157689819Y-69263809D01*
X157689819Y-69263809D02*
X157689819Y-69501904D01*
X157689819Y-69501904D02*
X157642200Y-69597142D01*
X157642200Y-69597142D02*
X157594580Y-69644761D01*
X122071905Y-75234819D02*
X122071905Y-74234819D01*
X122071905Y-74234819D02*
X122310000Y-74234819D01*
X122310000Y-74234819D02*
X122452857Y-74282438D01*
X122452857Y-74282438D02*
X122548095Y-74377676D01*
X122548095Y-74377676D02*
X122595714Y-74472914D01*
X122595714Y-74472914D02*
X122643333Y-74663390D01*
X122643333Y-74663390D02*
X122643333Y-74806247D01*
X122643333Y-74806247D02*
X122595714Y-74996723D01*
X122595714Y-74996723D02*
X122548095Y-75091961D01*
X122548095Y-75091961D02*
X122452857Y-75187200D01*
X122452857Y-75187200D02*
X122310000Y-75234819D01*
X122310000Y-75234819D02*
X122071905Y-75234819D01*
X123595714Y-75234819D02*
X123024286Y-75234819D01*
X123310000Y-75234819D02*
X123310000Y-74234819D01*
X123310000Y-74234819D02*
X123214762Y-74377676D01*
X123214762Y-74377676D02*
X123119524Y-74472914D01*
X123119524Y-74472914D02*
X123024286Y-74520533D01*
D12*
%TO.C,J1*%
X127150000Y-75910000D02*
X127150000Y-78570000D01*
X132290000Y-75910000D02*
X127150000Y-75910000D01*
X132290000Y-75910000D02*
X132290000Y-78570000D01*
X132290000Y-78570000D02*
X127150000Y-78570000D01*
X134890000Y-77240000D02*
X134890000Y-78570000D01*
X134890000Y-78570000D02*
X133560000Y-78570000D01*
%TO.C,J4*%
X104730000Y-78430000D02*
X104730000Y-83570000D01*
X104730000Y-78430000D02*
X107390000Y-78430000D01*
X104730000Y-83570000D02*
X107390000Y-83570000D01*
X106060000Y-75830000D02*
X107390000Y-75830000D01*
X107390000Y-75830000D02*
X107390000Y-77160000D01*
X107390000Y-78430000D02*
X107390000Y-83570000D01*
%TO.C,J7*%
X95345000Y-109110000D02*
X95345000Y-111870000D01*
X143715000Y-109110000D02*
X95345000Y-109110000D01*
X143715000Y-109110000D02*
X143715000Y-111870000D01*
X143715000Y-111870000D02*
X95345000Y-111870000D01*
X144985000Y-109110000D02*
X146365000Y-109110000D01*
X146365000Y-109110000D02*
X146365000Y-110490000D01*
%TO.C,D2*%
X118350000Y-80285000D02*
X118350000Y-77195000D01*
X112800000Y-78740000D02*
G75*
G02*
X118350000Y-77195170I2990000J0D01*
G01*
X118350000Y-80284830D02*
G75*
G02*
X112800000Y-78740000I-2560000J1544830D01*
G01*
X118290000Y-78740000D02*
G75*
G02*
X113290000Y-78740000I-2500000J0D01*
G01*
X113290000Y-78740000D02*
G75*
G02*
X118290000Y-78740000I2500000J0D01*
G01*
%TO.C,J6*%
X95335000Y-112610000D02*
X95335000Y-115370000D01*
X143705000Y-112610000D02*
X95335000Y-112610000D01*
X143705000Y-112610000D02*
X143705000Y-115370000D01*
X143705000Y-115370000D02*
X95335000Y-115370000D01*
X144975000Y-112610000D02*
X146355000Y-112610000D01*
X146355000Y-112610000D02*
X146355000Y-113990000D01*
%TO.C,J3*%
X96480000Y-78430000D02*
X96480000Y-83570000D01*
X96480000Y-78430000D02*
X99140000Y-78430000D01*
X96480000Y-83570000D02*
X99140000Y-83570000D01*
X97810000Y-75830000D02*
X99140000Y-75830000D01*
X99140000Y-75830000D02*
X99140000Y-77160000D01*
X99140000Y-78430000D02*
X99140000Y-83570000D01*
%TO.C,J5*%
X145515000Y-68410000D02*
X145515000Y-71070000D01*
X153195000Y-68410000D02*
X145515000Y-68410000D01*
X153195000Y-68410000D02*
X153195000Y-71070000D01*
X153195000Y-71070000D02*
X145515000Y-71070000D01*
X155795000Y-69740000D02*
X155795000Y-71070000D01*
X155795000Y-71070000D02*
X154465000Y-71070000D01*
%TO.C,D1*%
X120250000Y-77195000D02*
X120250000Y-77660000D01*
X120250000Y-79820000D02*
X120250000Y-80285000D01*
X120250000Y-77195170D02*
G75*
G02*
X125598136Y-77660000I2560000J-1544830D01*
G01*
X120555316Y-77660000D02*
G75*
G02*
X125064684Y-77660000I2254684J-1080000D01*
G01*
X125064684Y-79820000D02*
G75*
G02*
X120555316Y-79820000I-2254684J1080000D01*
G01*
X125598136Y-79820000D02*
G75*
G02*
X120250000Y-80284830I-2788136J1080000D01*
G01*
%TD*%
M02*
