%TF.GenerationSoftware,KiCad,Pcbnew,9.0.2*%
%TF.CreationDate,2026-05-02T16:59:57+05:30*%
%TF.ProjectId,raspberry pi Project,72617370-6265-4727-9279-207069205072,rev?*%
%TF.SameCoordinates,Original*%
%TF.FileFunction,Copper,L2,Bot*%
%TF.FilePolarity,Positive*%
%FSLAX46Y46*%
G04 Gerber Fmt 4.6, Leading zero omitted, Abs format (unit mm)*
G04 Created by KiCad (PCBNEW 9.0.2) date 2026-05-02 16:59:57*
%MOMM*%
%LPD*%
G01*
G04 APERTURE LIST*
%TA.AperFunction,NonConductor*%
%ADD10C,0.050000*%
%TD*%
%ADD11C,0.200000*%
%TA.AperFunction,EtchedComponent*%
%ADD12C,0.010000*%
%TD*%
%TA.AperFunction,ComponentPad*%
%ADD13R,1.700000X1.700000*%
%TD*%
%TA.AperFunction,ComponentPad*%
%ADD14C,1.700000*%
%TD*%
%TA.AperFunction,ComponentPad*%
%ADD15R,1.800000X1.800000*%
%TD*%
%TA.AperFunction,ComponentPad*%
%ADD16C,1.800000*%
%TD*%
%TA.AperFunction,ComponentPad*%
%ADD17R,1.070000X1.800000*%
%TD*%
%TA.AperFunction,ComponentPad*%
%ADD18O,1.070000X1.800000*%
%TD*%
%TA.AperFunction,Conductor*%
%ADD19C,0.800000*%
%TD*%
%TA.AperFunction,Conductor*%
%ADD20C,1.000000*%
%TD*%
G04 APERTURE END LIST*
D10*
X108215000Y-62490000D02*
X138215000Y-62490000D01*
X138215000Y-71490000D01*
X108215000Y-71490000D01*
X108215000Y-62490000D01*
D11*
G36*
X136323928Y-63892501D02*
G01*
X136088649Y-63967532D01*
X136122219Y-64064750D01*
X136163681Y-64144452D01*
X136212465Y-64209188D01*
X136268607Y-64260916D01*
X136333483Y-64301702D01*
X136407230Y-64331549D01*
X136491390Y-64350215D01*
X136587857Y-64356757D01*
X136682542Y-64349866D01*
X136767891Y-64329896D01*
X136845410Y-64297373D01*
X136916303Y-64252110D01*
X136981406Y-64193212D01*
X137035078Y-64125712D01*
X137077527Y-64048794D01*
X137108869Y-63961097D01*
X137128576Y-63860866D01*
X137135498Y-63746028D01*
X137128413Y-63623839D01*
X137108351Y-63518348D01*
X137076663Y-63427175D01*
X137034065Y-63348288D01*
X136980600Y-63280086D01*
X136915285Y-63220752D01*
X136843052Y-63174873D01*
X136762926Y-63141687D01*
X136673525Y-63121170D01*
X136573129Y-63114050D01*
X136464267Y-63122829D01*
X136369857Y-63147918D01*
X136287370Y-63188349D01*
X136214898Y-63244402D01*
X136166917Y-63300198D01*
X136125720Y-63372835D01*
X136091946Y-63465759D01*
X136332135Y-63522033D01*
X136352018Y-63462988D01*
X136381596Y-63414380D01*
X136421088Y-63374535D01*
X136468668Y-63344799D01*
X136522871Y-63326680D01*
X136585439Y-63320386D01*
X136650400Y-63326658D01*
X136707187Y-63344750D01*
X136757459Y-63374429D01*
X136802327Y-63416593D01*
X136835648Y-63466090D01*
X136861661Y-63531669D01*
X136879044Y-63617358D01*
X136885491Y-63728003D01*
X136878995Y-63846206D01*
X136861630Y-63936246D01*
X136835947Y-64003762D01*
X136803499Y-64053481D01*
X136759165Y-64096097D01*
X136709670Y-64125979D01*
X136653943Y-64144138D01*
X136590348Y-64150421D01*
X136528241Y-64143359D01*
X136473353Y-64122745D01*
X136423946Y-64088212D01*
X136384253Y-64042393D01*
X136350587Y-63978698D01*
X136323928Y-63892501D01*
G37*
G36*
X135570948Y-63448855D02*
G01*
X135647729Y-63467979D01*
X135718768Y-63499465D01*
X135782520Y-63543153D01*
X135835659Y-63597947D01*
X135879016Y-63665062D01*
X135910714Y-63738991D01*
X135929381Y-63813481D01*
X135935582Y-63889423D01*
X135928755Y-63989204D01*
X135909488Y-64074128D01*
X135879016Y-64146611D01*
X135835482Y-64211353D01*
X135780834Y-64264409D01*
X135713859Y-64306785D01*
X135639849Y-64337265D01*
X135564033Y-64355382D01*
X135485540Y-64361447D01*
X135391064Y-64352898D01*
X135307380Y-64328159D01*
X135232390Y-64287590D01*
X135164605Y-64230215D01*
X135109179Y-64160873D01*
X135069703Y-64083745D01*
X135045499Y-63997286D01*
X135037179Y-63900194D01*
X135274002Y-63900194D01*
X135281750Y-63987235D01*
X135302766Y-64053548D01*
X135335111Y-64103819D01*
X135379610Y-64143109D01*
X135429362Y-64166058D01*
X135486346Y-64173868D01*
X135543347Y-64166068D01*
X135593253Y-64143123D01*
X135638021Y-64103819D01*
X135670639Y-64053546D01*
X135691742Y-63987732D01*
X135699497Y-63901879D01*
X135691741Y-63816028D01*
X135670636Y-63750241D01*
X135638021Y-63700013D01*
X135593248Y-63660664D01*
X135543342Y-63637698D01*
X135486346Y-63629891D01*
X135429367Y-63637707D01*
X135379615Y-63660679D01*
X135335111Y-63700013D01*
X135302639Y-63750183D01*
X135281684Y-63815468D01*
X135274002Y-63900194D01*
X135037179Y-63900194D01*
X135037110Y-63899388D01*
X135045427Y-63802299D01*
X135069409Y-63716673D01*
X135108500Y-63640399D01*
X135163360Y-63571932D01*
X135230444Y-63515559D01*
X135305593Y-63475459D01*
X135390414Y-63450857D01*
X135487152Y-63442312D01*
X135570948Y-63448855D01*
G37*
G36*
X134854808Y-64338000D02*
G01*
X134854808Y-63132808D01*
X133963736Y-63132808D01*
X133963736Y-63334454D01*
X134612201Y-63334454D01*
X134612201Y-63601754D01*
X134008872Y-63601754D01*
X134008872Y-63803401D01*
X134612201Y-63803401D01*
X134612201Y-64136353D01*
X133940802Y-64136353D01*
X133940802Y-64338000D01*
X134854808Y-64338000D01*
G37*
G36*
X133275997Y-64338000D02*
G01*
X133275997Y-63132808D01*
X133033318Y-63132808D01*
X133033318Y-64338000D01*
X133275997Y-64338000D01*
G37*
G36*
X132011748Y-64338000D02*
G01*
X132242117Y-64338000D01*
X132242117Y-63891548D01*
X132246964Y-63762166D01*
X132256919Y-63708293D01*
X132276528Y-63670951D01*
X132304839Y-63643593D01*
X132340690Y-63626495D01*
X132384780Y-63620512D01*
X132441730Y-63628822D01*
X132492124Y-63653484D01*
X132532252Y-63691814D01*
X132557337Y-63740752D01*
X132569422Y-63806596D01*
X132574923Y-63941740D01*
X132574923Y-64338000D01*
X132805293Y-64338000D01*
X132805293Y-63465759D01*
X132591336Y-63465759D01*
X132591336Y-63593621D01*
X132541552Y-63537384D01*
X132488651Y-63495419D01*
X132432144Y-63466037D01*
X132371138Y-63448346D01*
X132304399Y-63442312D01*
X132230610Y-63449391D01*
X132165108Y-63469936D01*
X132108135Y-63502509D01*
X132069560Y-63540498D01*
X132042210Y-63586022D01*
X132024497Y-63637804D01*
X132015440Y-63698106D01*
X132011748Y-63793655D01*
X132011748Y-64338000D01*
G37*
G36*
X131316974Y-64338000D02*
G01*
X131316974Y-63132808D01*
X131074295Y-63132808D01*
X131074295Y-64338000D01*
X131316974Y-64338000D01*
G37*
G36*
X130533293Y-63448855D02*
G01*
X130610074Y-63467979D01*
X130681113Y-63499465D01*
X130744865Y-63543153D01*
X130798004Y-63597947D01*
X130841360Y-63665062D01*
X130873058Y-63738991D01*
X130891726Y-63813481D01*
X130897927Y-63889423D01*
X130891100Y-63989204D01*
X130871833Y-64074128D01*
X130841360Y-64146611D01*
X130797826Y-64211353D01*
X130743179Y-64264409D01*
X130676203Y-64306785D01*
X130602193Y-64337265D01*
X130526377Y-64355382D01*
X130447885Y-64361447D01*
X130353408Y-64352898D01*
X130269725Y-64328159D01*
X130194734Y-64287590D01*
X130126950Y-64230215D01*
X130071524Y-64160873D01*
X130032048Y-64083745D01*
X130007844Y-63997286D01*
X129999524Y-63900194D01*
X130236346Y-63900194D01*
X130244095Y-63987235D01*
X130265111Y-64053548D01*
X130297456Y-64103819D01*
X130341954Y-64143109D01*
X130391707Y-64166058D01*
X130448691Y-64173868D01*
X130505692Y-64166068D01*
X130555598Y-64143123D01*
X130600366Y-64103819D01*
X130632984Y-64053546D01*
X130654087Y-63987732D01*
X130661842Y-63901879D01*
X130654085Y-63816028D01*
X130632981Y-63750241D01*
X130600366Y-63700013D01*
X130555593Y-63660664D01*
X130505687Y-63637698D01*
X130448691Y-63629891D01*
X130391712Y-63637707D01*
X130341960Y-63660679D01*
X130297456Y-63700013D01*
X130264984Y-63750183D01*
X130244029Y-63815468D01*
X130236346Y-63900194D01*
X129999524Y-63900194D01*
X129999455Y-63899388D01*
X130007772Y-63802299D01*
X130031754Y-63716673D01*
X130070845Y-63640399D01*
X130125704Y-63571932D01*
X130192788Y-63515559D01*
X130267937Y-63475459D01*
X130352759Y-63450857D01*
X130449497Y-63442312D01*
X130533293Y-63448855D01*
G37*
G36*
X129546629Y-64338000D02*
G01*
X129546629Y-63334454D01*
X129903248Y-63334454D01*
X129903248Y-63132808D01*
X128948210Y-63132808D01*
X128948210Y-63334454D01*
X129304023Y-63334454D01*
X129304023Y-64338000D01*
X129546629Y-64338000D01*
G37*
G36*
X127967520Y-63119531D02*
G01*
X128034530Y-63134776D01*
X128089699Y-63158502D01*
X128135027Y-63190180D01*
X128173943Y-63231247D01*
X128200800Y-63275260D01*
X128216835Y-63322992D01*
X128222295Y-63375634D01*
X128214922Y-63434915D01*
X128191154Y-63501077D01*
X128153989Y-63566616D01*
X128098464Y-63640515D01*
X128185987Y-63691266D01*
X128253547Y-63744857D01*
X128304214Y-63801203D01*
X128342566Y-63865646D01*
X128365367Y-63934584D01*
X128373091Y-64009591D01*
X128367582Y-64071601D01*
X128351335Y-64129172D01*
X128324219Y-64183327D01*
X128285383Y-64234831D01*
X128238046Y-64278621D01*
X128182160Y-64313353D01*
X128116394Y-64339191D01*
X128038954Y-64355612D01*
X127947669Y-64361447D01*
X127872644Y-64357633D01*
X127808103Y-64346880D01*
X127752616Y-64330013D01*
X127673981Y-64290499D01*
X127597644Y-64232193D01*
X127499799Y-64312060D01*
X127400907Y-64370826D01*
X127261542Y-64191527D01*
X127351301Y-64134521D01*
X127423086Y-64077368D01*
X127744337Y-64077368D01*
X127803619Y-64121175D01*
X127853367Y-64147856D01*
X127904404Y-64163853D01*
X127957487Y-64169179D01*
X128010266Y-64163535D01*
X128053139Y-64147667D01*
X128088279Y-64122064D01*
X128115125Y-64087950D01*
X128131346Y-64047944D01*
X128137006Y-64000285D01*
X128132830Y-63962110D01*
X128120031Y-63923844D01*
X128097658Y-63884734D01*
X128068409Y-63850256D01*
X128029369Y-63818011D01*
X127978810Y-63788013D01*
X127744337Y-64077368D01*
X127423086Y-64077368D01*
X127450879Y-64055240D01*
X127426314Y-64018067D01*
X127401713Y-63969584D01*
X127379088Y-63910512D01*
X127347637Y-63807724D01*
X127555806Y-63761269D01*
X127580424Y-63840379D01*
X127606657Y-63897043D01*
X127773866Y-63675540D01*
X127687536Y-63615915D01*
X127631624Y-63567014D01*
X127598450Y-63526942D01*
X127574012Y-63481646D01*
X127559738Y-63435679D01*
X127555000Y-63388237D01*
X127555351Y-63384720D01*
X127757452Y-63384720D01*
X127763876Y-63416839D01*
X127785073Y-63451488D01*
X127826329Y-63490452D01*
X127888611Y-63538006D01*
X127945177Y-63472427D01*
X127977007Y-63429699D01*
X127993008Y-63396085D01*
X127997641Y-63369186D01*
X127990136Y-63335820D01*
X127966500Y-63305658D01*
X127930969Y-63285561D01*
X127880404Y-63278181D01*
X127828419Y-63286412D01*
X127790645Y-63309322D01*
X127765690Y-63343879D01*
X127757452Y-63384720D01*
X127555351Y-63384720D01*
X127560539Y-63332689D01*
X127576757Y-63282496D01*
X127603786Y-63236437D01*
X127642707Y-63193697D01*
X127688497Y-63160189D01*
X127743107Y-63135409D01*
X127808274Y-63119664D01*
X127886193Y-63114050D01*
X127967520Y-63119531D01*
G37*
G36*
X126649200Y-64338000D02*
G01*
X126649200Y-63132808D01*
X126286060Y-63132808D01*
X126068000Y-63954929D01*
X125852431Y-63132808D01*
X125488412Y-63132808D01*
X125488412Y-64338000D01*
X125713872Y-64338000D01*
X125713872Y-63389336D01*
X125952376Y-64338000D01*
X126186043Y-64338000D01*
X126423740Y-63389336D01*
X126423740Y-64338000D01*
X126649200Y-64338000D01*
G37*
G36*
X125247271Y-64338000D02*
G01*
X125247271Y-63132808D01*
X124356200Y-63132808D01*
X124356200Y-63334454D01*
X125004665Y-63334454D01*
X125004665Y-63601754D01*
X124401336Y-63601754D01*
X124401336Y-63803401D01*
X125004665Y-63803401D01*
X125004665Y-64136353D01*
X124333265Y-64136353D01*
X124333265Y-64338000D01*
X125247271Y-64338000D01*
G37*
G36*
X124249808Y-64338000D02*
G01*
X123992400Y-64338000D01*
X123893189Y-64066011D01*
X123412885Y-64066011D01*
X123307958Y-64338000D01*
X123043956Y-64338000D01*
X123233059Y-63864364D01*
X123490701Y-63864364D01*
X123818597Y-63864364D01*
X123656297Y-63414175D01*
X123490701Y-63864364D01*
X123233059Y-63864364D01*
X123525139Y-63132808D01*
X123781741Y-63132808D01*
X124249808Y-64338000D01*
G37*
G36*
X122976912Y-63953464D02*
G01*
X122740826Y-63930016D01*
X122720241Y-64004514D01*
X122691136Y-64060093D01*
X122654364Y-64100669D01*
X122608025Y-64129914D01*
X122550404Y-64148439D01*
X122478510Y-64155110D01*
X122401670Y-64148791D01*
X122344277Y-64131855D01*
X122301849Y-64106237D01*
X122267895Y-64070510D01*
X122248752Y-64032871D01*
X122242424Y-63991932D01*
X122248804Y-63952700D01*
X122267411Y-63920491D01*
X122298664Y-63894784D01*
X122354752Y-63869200D01*
X122548998Y-63815857D01*
X122678057Y-63776247D01*
X122765975Y-63735804D01*
X122822819Y-63695616D01*
X122871974Y-63641900D01*
X122906063Y-63584138D01*
X122926491Y-63521316D01*
X122933461Y-63451911D01*
X122927715Y-63391767D01*
X122910546Y-63334430D01*
X122881437Y-63278914D01*
X122842253Y-63230104D01*
X122792730Y-63189306D01*
X122731374Y-63156182D01*
X122664754Y-63133590D01*
X122586596Y-63119175D01*
X122494923Y-63114050D01*
X122380183Y-63121418D01*
X122287706Y-63141685D01*
X122213494Y-63172803D01*
X122154277Y-63213774D01*
X122104203Y-63267340D01*
X122067796Y-63328503D01*
X122044309Y-63398655D01*
X122034183Y-63479828D01*
X122276863Y-63489207D01*
X122292501Y-63429918D01*
X122315039Y-63386778D01*
X122343688Y-63356217D01*
X122380143Y-63335081D01*
X122430010Y-63320985D01*
X122497341Y-63315697D01*
X122566728Y-63321202D01*
X122620866Y-63336219D01*
X122662937Y-63359294D01*
X122684544Y-63380266D01*
X122697148Y-63404767D01*
X122701479Y-63434032D01*
X122692696Y-63473259D01*
X122665429Y-63507232D01*
X122630899Y-63528447D01*
X122562299Y-63555233D01*
X122442459Y-63588345D01*
X122277873Y-63635000D01*
X122180582Y-63675613D01*
X122127595Y-63709469D01*
X122083633Y-63750083D01*
X122047812Y-63797905D01*
X122021899Y-63851608D01*
X122005594Y-63914824D01*
X121999818Y-63989587D01*
X122006157Y-64056878D01*
X122025098Y-64121098D01*
X122057191Y-64183321D01*
X122100387Y-64238013D01*
X122154014Y-64282561D01*
X122219490Y-64317556D01*
X122290805Y-64340873D01*
X122377062Y-64355997D01*
X122481001Y-64361447D01*
X122596023Y-64353897D01*
X122690438Y-64332948D01*
X122767805Y-64300455D01*
X122831025Y-64257253D01*
X122884260Y-64201365D01*
X122926427Y-64133569D01*
X122957612Y-64051844D01*
X122976912Y-63953464D01*
G37*
G36*
X121797438Y-63132808D02*
G01*
X121554832Y-63132808D01*
X121554832Y-63791457D01*
X121551885Y-63934696D01*
X121545819Y-63994716D01*
X121530448Y-64041643D01*
X121505909Y-64081200D01*
X121471667Y-64114591D01*
X121430260Y-64138673D01*
X121377789Y-64154165D01*
X121311346Y-64159800D01*
X121243651Y-64154274D01*
X121193060Y-64139467D01*
X121155642Y-64117082D01*
X121124891Y-64085894D01*
X121104171Y-64051201D01*
X121092554Y-64012155D01*
X121085099Y-63939655D01*
X121081856Y-63805599D01*
X121081856Y-63132808D01*
X120839176Y-63132808D01*
X120839176Y-63767351D01*
X120845208Y-63968959D01*
X120858886Y-64074730D01*
X120876132Y-64132661D01*
X120900352Y-64182846D01*
X120931427Y-64226332D01*
X120969523Y-64263818D01*
X121016249Y-64296661D01*
X121072843Y-64324810D01*
X121133031Y-64344031D01*
X121208982Y-64356773D01*
X121303946Y-64361447D01*
X121419262Y-64356054D01*
X121504144Y-64341900D01*
X121565090Y-64321513D01*
X121621766Y-64291214D01*
X121668184Y-64256596D01*
X121705628Y-64217685D01*
X121749032Y-64151150D01*
X121773698Y-64083743D01*
X121790492Y-63967566D01*
X121797438Y-63777169D01*
X121797438Y-63132808D01*
G37*
G36*
X120582794Y-64338000D02*
G01*
X120340115Y-64338000D01*
X120340115Y-63836227D01*
X120290949Y-63836227D01*
X120213024Y-63840276D01*
X120168803Y-63849782D01*
X120132232Y-63868357D01*
X120095823Y-63899681D01*
X120055578Y-63949780D01*
X119967962Y-64076122D01*
X119792547Y-64338000D01*
X119502386Y-64338000D01*
X119649078Y-64103526D01*
X119733722Y-63975324D01*
X119787271Y-63908401D01*
X119843761Y-63856944D01*
X119917184Y-63807504D01*
X119838512Y-63790572D01*
X119774121Y-63765895D01*
X119721712Y-63734280D01*
X119679487Y-63695909D01*
X119645178Y-63649505D01*
X119620487Y-63597391D01*
X119605227Y-63538493D01*
X119601061Y-63485909D01*
X119849919Y-63485909D01*
X119856420Y-63537495D01*
X119874539Y-63577427D01*
X119903628Y-63608465D01*
X119942536Y-63629011D01*
X120001943Y-63638911D01*
X120160596Y-63643959D01*
X120340115Y-63643959D01*
X120340115Y-63334454D01*
X120150778Y-63334454D01*
X119973677Y-63338631D01*
X119920276Y-63356139D01*
X119882306Y-63386478D01*
X119864775Y-63413362D01*
X119853821Y-63446000D01*
X119849919Y-63485909D01*
X119601061Y-63485909D01*
X119599912Y-63471401D01*
X119605942Y-63401519D01*
X119623493Y-63338531D01*
X119652376Y-63281112D01*
X119691781Y-63230681D01*
X119738089Y-63192493D01*
X119792180Y-63165341D01*
X119852047Y-63149131D01*
X119942187Y-63137401D01*
X120072083Y-63132808D01*
X120582794Y-63132808D01*
X120582794Y-64338000D01*
G37*
G36*
X119371374Y-64338000D02*
G01*
X119371374Y-63132808D01*
X118480303Y-63132808D01*
X118480303Y-63334454D01*
X119128768Y-63334454D01*
X119128768Y-63601754D01*
X118525439Y-63601754D01*
X118525439Y-63803401D01*
X119128768Y-63803401D01*
X119128768Y-64136353D01*
X118457369Y-64136353D01*
X118457369Y-64338000D01*
X119371374Y-64338000D01*
G37*
G36*
X118255062Y-64338000D02*
G01*
X118255062Y-63132808D01*
X117891922Y-63132808D01*
X117673862Y-63954929D01*
X117458293Y-63132808D01*
X117094274Y-63132808D01*
X117094274Y-64338000D01*
X117319734Y-64338000D01*
X117319734Y-63389336D01*
X117558237Y-64338000D01*
X117791905Y-64338000D01*
X118029602Y-63389336D01*
X118029602Y-64338000D01*
X118255062Y-64338000D01*
G37*
G36*
X116853133Y-64338000D02*
G01*
X116853133Y-63132808D01*
X115962062Y-63132808D01*
X115962062Y-63334454D01*
X116610526Y-63334454D01*
X116610526Y-63601754D01*
X116007198Y-63601754D01*
X116007198Y-63803401D01*
X116610526Y-63803401D01*
X116610526Y-64136353D01*
X115939127Y-64136353D01*
X115939127Y-64338000D01*
X116853133Y-64338000D01*
G37*
G36*
X115731032Y-64338000D02*
G01*
X115731032Y-63132808D01*
X115494947Y-63132808D01*
X115003140Y-63939615D01*
X115003140Y-63132808D01*
X114777679Y-63132808D01*
X114777679Y-64338000D01*
X115021165Y-64338000D01*
X115505645Y-63543209D01*
X115505645Y-64338000D01*
X115731032Y-64338000D01*
G37*
G36*
X114250774Y-64338000D02*
G01*
X114250774Y-63334454D01*
X114607393Y-63334454D01*
X114607393Y-63132808D01*
X113652355Y-63132808D01*
X113652355Y-63334454D01*
X114008168Y-63334454D01*
X114008168Y-64338000D01*
X114250774Y-64338000D01*
G37*
G36*
X137154330Y-65969464D02*
G01*
X136918244Y-65946016D01*
X136897659Y-66020514D01*
X136868554Y-66076093D01*
X136831782Y-66116669D01*
X136785443Y-66145914D01*
X136727822Y-66164439D01*
X136655928Y-66171110D01*
X136579088Y-66164791D01*
X136521695Y-66147855D01*
X136479267Y-66122237D01*
X136445313Y-66086510D01*
X136426170Y-66048871D01*
X136419842Y-66007932D01*
X136426222Y-65968700D01*
X136444829Y-65936491D01*
X136476082Y-65910784D01*
X136532170Y-65885200D01*
X136726416Y-65831857D01*
X136855475Y-65792247D01*
X136943393Y-65751804D01*
X137000237Y-65711616D01*
X137049392Y-65657900D01*
X137083481Y-65600138D01*
X137103909Y-65537316D01*
X137110879Y-65467911D01*
X137105133Y-65407767D01*
X137087964Y-65350430D01*
X137058855Y-65294914D01*
X137019671Y-65246104D01*
X136970148Y-65205306D01*
X136908792Y-65172182D01*
X136842172Y-65149590D01*
X136764014Y-65135175D01*
X136672341Y-65130050D01*
X136557601Y-65137418D01*
X136465124Y-65157685D01*
X136390912Y-65188803D01*
X136331695Y-65229774D01*
X136281621Y-65283340D01*
X136245214Y-65344503D01*
X136221727Y-65414655D01*
X136211601Y-65495828D01*
X136454281Y-65505207D01*
X136469919Y-65445918D01*
X136492457Y-65402778D01*
X136521106Y-65372217D01*
X136557561Y-65351081D01*
X136607428Y-65336985D01*
X136674759Y-65331697D01*
X136744146Y-65337202D01*
X136798284Y-65352219D01*
X136840355Y-65375294D01*
X136861962Y-65396266D01*
X136874566Y-65420767D01*
X136878897Y-65450032D01*
X136870114Y-65489259D01*
X136842847Y-65523232D01*
X136808317Y-65544447D01*
X136739717Y-65571233D01*
X136619877Y-65604345D01*
X136455291Y-65651000D01*
X136358000Y-65691613D01*
X136305013Y-65725469D01*
X136261051Y-65766083D01*
X136225230Y-65813905D01*
X136199317Y-65867608D01*
X136183012Y-65930824D01*
X136177236Y-66005587D01*
X136183575Y-66072878D01*
X136202516Y-66137098D01*
X136234609Y-66199321D01*
X136277805Y-66254013D01*
X136331432Y-66298561D01*
X136396908Y-66333556D01*
X136468223Y-66356873D01*
X136554480Y-66371997D01*
X136658419Y-66377447D01*
X136773441Y-66369897D01*
X136867856Y-66348948D01*
X136945223Y-66316455D01*
X137008443Y-66273253D01*
X137061678Y-66217365D01*
X137103845Y-66149569D01*
X137135030Y-66067844D01*
X137154330Y-65969464D01*
G37*
G36*
X135204319Y-65908501D02*
G01*
X134969040Y-65983532D01*
X135002610Y-66080750D01*
X135044072Y-66160452D01*
X135092856Y-66225188D01*
X135148998Y-66276916D01*
X135213874Y-66317702D01*
X135287621Y-66347549D01*
X135371781Y-66366215D01*
X135468248Y-66372757D01*
X135562933Y-66365866D01*
X135648282Y-66345896D01*
X135725801Y-66313373D01*
X135796693Y-66268110D01*
X135861796Y-66209212D01*
X135915469Y-66141712D01*
X135957918Y-66064794D01*
X135989260Y-65977097D01*
X136008967Y-65876866D01*
X136015889Y-65762028D01*
X136008803Y-65639839D01*
X135988742Y-65534348D01*
X135957054Y-65443175D01*
X135914456Y-65364288D01*
X135860990Y-65296086D01*
X135795676Y-65236752D01*
X135723443Y-65190873D01*
X135643317Y-65157687D01*
X135553916Y-65137170D01*
X135453520Y-65130050D01*
X135344658Y-65138829D01*
X135250248Y-65163918D01*
X135167761Y-65204349D01*
X135095289Y-65260402D01*
X135047308Y-65316198D01*
X135006110Y-65388835D01*
X134972337Y-65481759D01*
X135212526Y-65538033D01*
X135232409Y-65478988D01*
X135261987Y-65430380D01*
X135301479Y-65390535D01*
X135349059Y-65360799D01*
X135403262Y-65342680D01*
X135465830Y-65336386D01*
X135530791Y-65342658D01*
X135587577Y-65360750D01*
X135637850Y-65390429D01*
X135682718Y-65432593D01*
X135716039Y-65482090D01*
X135742052Y-65547669D01*
X135759435Y-65633358D01*
X135765882Y-65744003D01*
X135759386Y-65862206D01*
X135742020Y-65952246D01*
X135716338Y-66019762D01*
X135683890Y-66069481D01*
X135639555Y-66112097D01*
X135590061Y-66141979D01*
X135534334Y-66160138D01*
X135470739Y-66166421D01*
X135408631Y-66159359D01*
X135353743Y-66138745D01*
X135304337Y-66104212D01*
X135264644Y-66058393D01*
X135230978Y-65994698D01*
X135204319Y-65908501D01*
G37*
G36*
X134768419Y-66354000D02*
G01*
X134768419Y-65148808D01*
X134525739Y-65148808D01*
X134525739Y-66354000D01*
X134768419Y-66354000D01*
G37*
G36*
X134294417Y-66354000D02*
G01*
X134294417Y-65148808D01*
X133403346Y-65148808D01*
X133403346Y-65350454D01*
X134051810Y-65350454D01*
X134051810Y-65617754D01*
X133448482Y-65617754D01*
X133448482Y-65819401D01*
X134051810Y-65819401D01*
X134051810Y-66152353D01*
X133380411Y-66152353D01*
X133380411Y-66354000D01*
X134294417Y-66354000D01*
G37*
G36*
X133172316Y-66354000D02*
G01*
X133172316Y-65148808D01*
X132936231Y-65148808D01*
X132444424Y-65955615D01*
X132444424Y-65148808D01*
X132218963Y-65148808D01*
X132218963Y-66354000D01*
X132462449Y-66354000D01*
X132946929Y-65559209D01*
X132946929Y-66354000D01*
X133172316Y-66354000D01*
G37*
G36*
X131193656Y-65908501D02*
G01*
X130958377Y-65983532D01*
X130991947Y-66080750D01*
X131033409Y-66160452D01*
X131082193Y-66225188D01*
X131138335Y-66276916D01*
X131203211Y-66317702D01*
X131276958Y-66347549D01*
X131361118Y-66366215D01*
X131457585Y-66372757D01*
X131552270Y-66365866D01*
X131637619Y-66345896D01*
X131715138Y-66313373D01*
X131786030Y-66268110D01*
X131851133Y-66209212D01*
X131904806Y-66141712D01*
X131947255Y-66064794D01*
X131978597Y-65977097D01*
X131998304Y-65876866D01*
X132005226Y-65762028D01*
X131998140Y-65639839D01*
X131978079Y-65534348D01*
X131946391Y-65443175D01*
X131903793Y-65364288D01*
X131850327Y-65296086D01*
X131785013Y-65236752D01*
X131712780Y-65190873D01*
X131632654Y-65157687D01*
X131543253Y-65137170D01*
X131442857Y-65130050D01*
X131333995Y-65138829D01*
X131239585Y-65163918D01*
X131157098Y-65204349D01*
X131084626Y-65260402D01*
X131036645Y-65316198D01*
X130995447Y-65388835D01*
X130961674Y-65481759D01*
X131201863Y-65538033D01*
X131221746Y-65478988D01*
X131251324Y-65430380D01*
X131290816Y-65390535D01*
X131338396Y-65360799D01*
X131392599Y-65342680D01*
X131455167Y-65336386D01*
X131520128Y-65342658D01*
X131576915Y-65360750D01*
X131627187Y-65390429D01*
X131672055Y-65432593D01*
X131705376Y-65482090D01*
X131731389Y-65547669D01*
X131748772Y-65633358D01*
X131755219Y-65744003D01*
X131748723Y-65862206D01*
X131731357Y-65952246D01*
X131705675Y-66019762D01*
X131673227Y-66069481D01*
X131628892Y-66112097D01*
X131579398Y-66141979D01*
X131523671Y-66160138D01*
X131460076Y-66166421D01*
X131397968Y-66159359D01*
X131343080Y-66138745D01*
X131293674Y-66104212D01*
X131253981Y-66058393D01*
X131220315Y-65994698D01*
X131193656Y-65908501D01*
G37*
G36*
X130750355Y-66354000D02*
G01*
X130750355Y-65148808D01*
X129859284Y-65148808D01*
X129859284Y-65350454D01*
X130507749Y-65350454D01*
X130507749Y-65617754D01*
X129904420Y-65617754D01*
X129904420Y-65819401D01*
X130507749Y-65819401D01*
X130507749Y-66152353D01*
X129836350Y-66152353D01*
X129836350Y-66354000D01*
X130750355Y-66354000D01*
G37*
G36*
X129225621Y-65969464D02*
G01*
X128989535Y-65946016D01*
X128968950Y-66020514D01*
X128939845Y-66076093D01*
X128903073Y-66116669D01*
X128856734Y-66145914D01*
X128799113Y-66164439D01*
X128727219Y-66171110D01*
X128650379Y-66164791D01*
X128592986Y-66147855D01*
X128550558Y-66122237D01*
X128516604Y-66086510D01*
X128497461Y-66048871D01*
X128491133Y-66007932D01*
X128497513Y-65968700D01*
X128516120Y-65936491D01*
X128547373Y-65910784D01*
X128603461Y-65885200D01*
X128797707Y-65831857D01*
X128926766Y-65792247D01*
X129014684Y-65751804D01*
X129071528Y-65711616D01*
X129120683Y-65657900D01*
X129154772Y-65600138D01*
X129175200Y-65537316D01*
X129182170Y-65467911D01*
X129176424Y-65407767D01*
X129159255Y-65350430D01*
X129130146Y-65294914D01*
X129090962Y-65246104D01*
X129041439Y-65205306D01*
X128980083Y-65172182D01*
X128913463Y-65149590D01*
X128835305Y-65135175D01*
X128743632Y-65130050D01*
X128628892Y-65137418D01*
X128536415Y-65157685D01*
X128462203Y-65188803D01*
X128402986Y-65229774D01*
X128352912Y-65283340D01*
X128316505Y-65344503D01*
X128293018Y-65414655D01*
X128282892Y-65495828D01*
X128525572Y-65505207D01*
X128541210Y-65445918D01*
X128563748Y-65402778D01*
X128592397Y-65372217D01*
X128628852Y-65351081D01*
X128678719Y-65336985D01*
X128746050Y-65331697D01*
X128815437Y-65337202D01*
X128869575Y-65352219D01*
X128911646Y-65375294D01*
X128933253Y-65396266D01*
X128945857Y-65420767D01*
X128950188Y-65450032D01*
X128941405Y-65489259D01*
X128914138Y-65523232D01*
X128879608Y-65544447D01*
X128811008Y-65571233D01*
X128691168Y-65604345D01*
X128526582Y-65651000D01*
X128429291Y-65691613D01*
X128376304Y-65725469D01*
X128332342Y-65766083D01*
X128296521Y-65813905D01*
X128270608Y-65867608D01*
X128254303Y-65930824D01*
X128248527Y-66005587D01*
X128254866Y-66072878D01*
X128273807Y-66137098D01*
X128305900Y-66199321D01*
X128349096Y-66254013D01*
X128402723Y-66298561D01*
X128468199Y-66333556D01*
X128539514Y-66356873D01*
X128625771Y-66371997D01*
X128729710Y-66377447D01*
X128844732Y-66369897D01*
X128939147Y-66348948D01*
X129016514Y-66316455D01*
X129079734Y-66273253D01*
X129132969Y-66217365D01*
X129175136Y-66149569D01*
X129206321Y-66067844D01*
X129225621Y-65969464D01*
G37*
G36*
X128046147Y-65148808D02*
G01*
X127803541Y-65148808D01*
X127803541Y-65807457D01*
X127800594Y-65950696D01*
X127794528Y-66010716D01*
X127779157Y-66057643D01*
X127754618Y-66097200D01*
X127720376Y-66130591D01*
X127678969Y-66154673D01*
X127626498Y-66170165D01*
X127560055Y-66175800D01*
X127492360Y-66170274D01*
X127441769Y-66155467D01*
X127404351Y-66133082D01*
X127373600Y-66101894D01*
X127352880Y-66067201D01*
X127341263Y-66028155D01*
X127333808Y-65955655D01*
X127330565Y-65821599D01*
X127330565Y-65148808D01*
X127087885Y-65148808D01*
X127087885Y-65783351D01*
X127093917Y-65984959D01*
X127107595Y-66090730D01*
X127124841Y-66148661D01*
X127149061Y-66198846D01*
X127180136Y-66242332D01*
X127218232Y-66279818D01*
X127264958Y-66312661D01*
X127321552Y-66340810D01*
X127381740Y-66360031D01*
X127457691Y-66372773D01*
X127552655Y-66377447D01*
X127667971Y-66372054D01*
X127752853Y-66357900D01*
X127813799Y-66337513D01*
X127870475Y-66307214D01*
X127916893Y-66272596D01*
X127954337Y-66233685D01*
X127997741Y-66167150D01*
X128022407Y-66099743D01*
X128039201Y-65983566D01*
X128046147Y-65793169D01*
X128046147Y-65148808D01*
G37*
G36*
X126832309Y-66354000D02*
G01*
X126589703Y-66354000D01*
X126589703Y-65899122D01*
X126431507Y-65899122D01*
X126276451Y-65894095D01*
X126179815Y-65881829D01*
X126117471Y-65861100D01*
X126053932Y-65824750D01*
X126015757Y-65793045D01*
X125981774Y-65753766D01*
X125951863Y-65705974D01*
X125930309Y-65654067D01*
X125916595Y-65592515D01*
X125911959Y-65523159D01*
X126161789Y-65523159D01*
X126168825Y-65574617D01*
X126189267Y-65618267D01*
X126221700Y-65653466D01*
X126265104Y-65678277D01*
X126325306Y-65691362D01*
X126456933Y-65697475D01*
X126589703Y-65697475D01*
X126589703Y-65350454D01*
X126472466Y-65350454D01*
X126352166Y-65353126D01*
X126297857Y-65358808D01*
X126260473Y-65369790D01*
X126228251Y-65387759D01*
X126200331Y-65413030D01*
X126179245Y-65443899D01*
X126166322Y-65480124D01*
X126161789Y-65523159D01*
X125911959Y-65523159D01*
X125911709Y-65519422D01*
X125920132Y-65425864D01*
X125943768Y-65348772D01*
X125981392Y-65284875D01*
X126032429Y-65230661D01*
X126089720Y-65191816D01*
X126154389Y-65166906D01*
X126240557Y-65154697D01*
X126442937Y-65148808D01*
X126832309Y-65148808D01*
X126832309Y-66354000D01*
G37*
G36*
X125712700Y-66354000D02*
G01*
X125470094Y-66354000D01*
X125470094Y-65899122D01*
X125311898Y-65899122D01*
X125156842Y-65894095D01*
X125060205Y-65881829D01*
X124997862Y-65861100D01*
X124934323Y-65824750D01*
X124896148Y-65793045D01*
X124862165Y-65753766D01*
X124832254Y-65705974D01*
X124810700Y-65654067D01*
X124796985Y-65592515D01*
X124792350Y-65523159D01*
X125042180Y-65523159D01*
X125049215Y-65574617D01*
X125069658Y-65618267D01*
X125102091Y-65653466D01*
X125145495Y-65678277D01*
X125205697Y-65691362D01*
X125337323Y-65697475D01*
X125470094Y-65697475D01*
X125470094Y-65350454D01*
X125352857Y-65350454D01*
X125232557Y-65353126D01*
X125178248Y-65358808D01*
X125140864Y-65369790D01*
X125108642Y-65387759D01*
X125080722Y-65413030D01*
X125059636Y-65443899D01*
X125046713Y-65480124D01*
X125042180Y-65523159D01*
X124792350Y-65523159D01*
X124792100Y-65519422D01*
X124800522Y-65425864D01*
X124824159Y-65348772D01*
X124861782Y-65284875D01*
X124912820Y-65230661D01*
X124970111Y-65191816D01*
X125034780Y-65166906D01*
X125120948Y-65154697D01*
X125323328Y-65148808D01*
X125712700Y-65148808D01*
X125712700Y-66354000D01*
G37*
G36*
X124157995Y-65135700D02*
G01*
X124243831Y-65151879D01*
X124320076Y-65177750D01*
X124374035Y-65205039D01*
X124425736Y-65241004D01*
X124475488Y-65286414D01*
X124538936Y-65364457D01*
X124587302Y-65451791D01*
X124616598Y-65536948D01*
X124635482Y-65639035D01*
X124642257Y-65761149D01*
X124635143Y-65877711D01*
X124614906Y-65979223D01*
X124582737Y-66067849D01*
X124539172Y-66145412D01*
X124484061Y-66213316D01*
X124417850Y-66271334D01*
X124343480Y-66316613D01*
X124259798Y-66349662D01*
X124165224Y-66370256D01*
X124057833Y-66377447D01*
X123951939Y-66370262D01*
X123858379Y-66349650D01*
X123775287Y-66316501D01*
X123701138Y-66270977D01*
X123634829Y-66212510D01*
X123579848Y-66144363D01*
X123536300Y-66066242D01*
X123504082Y-65976684D01*
X123483779Y-65873802D01*
X123476632Y-65755360D01*
X123476977Y-65749645D01*
X123727445Y-65749645D01*
X123734337Y-65856540D01*
X123753271Y-65942434D01*
X123782305Y-66011134D01*
X123820502Y-66065744D01*
X123870559Y-66112048D01*
X123926074Y-66144551D01*
X123988195Y-66164293D01*
X124058639Y-66171110D01*
X124129027Y-66164268D01*
X124191359Y-66144419D01*
X124247316Y-66111671D01*
X124298021Y-66064938D01*
X124336953Y-66009781D01*
X124366332Y-65941385D01*
X124385361Y-65856932D01*
X124392250Y-65752942D01*
X124385431Y-65646790D01*
X124366721Y-65561716D01*
X124338073Y-65493878D01*
X124300439Y-65440140D01*
X124251116Y-65394908D01*
X124195338Y-65362867D01*
X124131811Y-65343223D01*
X124058639Y-65336386D01*
X123985339Y-65343176D01*
X123921992Y-65362639D01*
X123866661Y-65394304D01*
X123818011Y-65438895D01*
X123780952Y-65491961D01*
X123752687Y-65559202D01*
X123734195Y-65643799D01*
X123727445Y-65749645D01*
X123476977Y-65749645D01*
X123483846Y-65635896D01*
X123504329Y-65532267D01*
X123536811Y-65442192D01*
X123580693Y-65363742D01*
X123636074Y-65295427D01*
X123702883Y-65236781D01*
X123777489Y-65191129D01*
X123860988Y-65157898D01*
X123954894Y-65137245D01*
X124061057Y-65130050D01*
X124157995Y-65135700D01*
G37*
G36*
X123286270Y-66354000D02*
G01*
X123043590Y-66354000D01*
X123043590Y-65852227D01*
X122994424Y-65852227D01*
X122916499Y-65856276D01*
X122872278Y-65865782D01*
X122835707Y-65884357D01*
X122799298Y-65915681D01*
X122759053Y-65965780D01*
X122671437Y-66092122D01*
X122496022Y-66354000D01*
X122205861Y-66354000D01*
X122352554Y-66119526D01*
X122437197Y-65991324D01*
X122490746Y-65924401D01*
X122547237Y-65872944D01*
X122620659Y-65823504D01*
X122541987Y-65806572D01*
X122477596Y-65781895D01*
X122425187Y-65750280D01*
X122382962Y-65711909D01*
X122348653Y-65665505D01*
X122323962Y-65613391D01*
X122308702Y-65554493D01*
X122304536Y-65501909D01*
X122553394Y-65501909D01*
X122559895Y-65553495D01*
X122578014Y-65593427D01*
X122607103Y-65624465D01*
X122646011Y-65645011D01*
X122705419Y-65654911D01*
X122864071Y-65659959D01*
X123043590Y-65659959D01*
X123043590Y-65350454D01*
X122854253Y-65350454D01*
X122677152Y-65354631D01*
X122623752Y-65372139D01*
X122585781Y-65402478D01*
X122568250Y-65429362D01*
X122557297Y-65462000D01*
X122553394Y-65501909D01*
X122304536Y-65501909D01*
X122303387Y-65487401D01*
X122309418Y-65417519D01*
X122326969Y-65354531D01*
X122355851Y-65297112D01*
X122395256Y-65246681D01*
X122441565Y-65208493D01*
X122495655Y-65181341D01*
X122555522Y-65165131D01*
X122645662Y-65153401D01*
X122775558Y-65148808D01*
X123286270Y-65148808D01*
X123286270Y-66354000D01*
G37*
G36*
X121804326Y-66354000D02*
G01*
X121804326Y-65350454D01*
X122160945Y-65350454D01*
X122160945Y-65148808D01*
X121205907Y-65148808D01*
X121205907Y-65350454D01*
X121561720Y-65350454D01*
X121561720Y-66354000D01*
X121804326Y-66354000D01*
G37*
G36*
X121049030Y-66354000D02*
G01*
X121049030Y-65148808D01*
X120157958Y-65148808D01*
X120157958Y-65350454D01*
X120806423Y-65350454D01*
X120806423Y-65617754D01*
X120203094Y-65617754D01*
X120203094Y-65819401D01*
X120806423Y-65819401D01*
X120806423Y-66152353D01*
X120135024Y-66152353D01*
X120135024Y-66354000D01*
X121049030Y-66354000D01*
G37*
G36*
X119930226Y-66354000D02*
G01*
X119473663Y-66354000D01*
X119346150Y-66346811D01*
X119258900Y-66328501D01*
X119189517Y-66301194D01*
X119133328Y-66269007D01*
X119088394Y-66232293D01*
X119038222Y-66174273D01*
X118995236Y-66103939D01*
X118959654Y-66019436D01*
X118939928Y-65946715D01*
X118927291Y-65861818D01*
X118922798Y-65762907D01*
X118923279Y-65751843D01*
X119173611Y-65751843D01*
X119180608Y-65884746D01*
X119198230Y-65973567D01*
X119217914Y-66026496D01*
X119239234Y-66064373D01*
X119261758Y-66090437D01*
X119304816Y-66120295D01*
X119359724Y-66140775D01*
X119411845Y-66148860D01*
X119506416Y-66152353D01*
X119687620Y-66152353D01*
X119687620Y-65350454D01*
X119578590Y-65350454D01*
X119442300Y-65354133D01*
X119379361Y-65362032D01*
X119316388Y-65384186D01*
X119267107Y-65419038D01*
X119228863Y-65467453D01*
X119198230Y-65536274D01*
X119180729Y-65619719D01*
X119173611Y-65751843D01*
X118923279Y-65751843D01*
X118927697Y-65650109D01*
X118941285Y-65556070D01*
X118962145Y-65478096D01*
X118993040Y-65403721D01*
X119031299Y-65338988D01*
X119076891Y-65282824D01*
X119130632Y-65234953D01*
X119190726Y-65198127D01*
X119258094Y-65171815D01*
X119345735Y-65155499D01*
X119486779Y-65148808D01*
X119930226Y-65148808D01*
X119930226Y-66354000D01*
G37*
G36*
X118249787Y-66354000D02*
G01*
X117840778Y-66354000D01*
X117629554Y-66350462D01*
X117548126Y-66345793D01*
X117485119Y-66334176D01*
X117431344Y-66314968D01*
X117385387Y-66288640D01*
X117344821Y-66254499D01*
X117310202Y-66213343D01*
X117281266Y-66164369D01*
X117259927Y-66111500D01*
X117247344Y-66058348D01*
X117243164Y-66004341D01*
X117244213Y-65993863D01*
X117493977Y-65993863D01*
X117498104Y-66035542D01*
X117509640Y-66069244D01*
X117528049Y-66096665D01*
X117566674Y-66127682D01*
X117616123Y-66144952D01*
X117663077Y-66149887D01*
X117782526Y-66152353D01*
X118007107Y-66152353D01*
X118007107Y-65828780D01*
X117811175Y-65828780D01*
X117659934Y-65834442D01*
X117596046Y-65846145D01*
X117551671Y-65869072D01*
X117520209Y-65901466D01*
X117500812Y-65942579D01*
X117493977Y-65993863D01*
X117244213Y-65993863D01*
X117249936Y-65936694D01*
X117269624Y-65876643D01*
X117302222Y-65822551D01*
X117346004Y-65776982D01*
X117401547Y-65740493D01*
X117471043Y-65713082D01*
X117422452Y-65685428D01*
X117381587Y-65650297D01*
X117347651Y-65607129D01*
X117322336Y-65558395D01*
X117307247Y-65506951D01*
X117305377Y-65486742D01*
X117538234Y-65486742D01*
X117542441Y-65523899D01*
X117554387Y-65554582D01*
X117573918Y-65580238D01*
X117614811Y-65608054D01*
X117671810Y-65623030D01*
X117848105Y-65627133D01*
X118007107Y-65627133D01*
X118007107Y-65350454D01*
X117867742Y-65350454D01*
X117660380Y-65354558D01*
X117621484Y-65363077D01*
X117591651Y-65377243D01*
X117569009Y-65396616D01*
X117546288Y-65435438D01*
X117538234Y-65486742D01*
X117305377Y-65486742D01*
X117302149Y-65451864D01*
X117306367Y-65400859D01*
X117318706Y-65354194D01*
X117339078Y-65311034D01*
X117381029Y-65253927D01*
X117431256Y-65210430D01*
X117489821Y-65179287D01*
X117556699Y-65160751D01*
X117635861Y-65152331D01*
X117769410Y-65148808D01*
X118249787Y-65148808D01*
X118249787Y-66354000D01*
G37*
G36*
X117149009Y-65481759D02*
G01*
X116903911Y-65481759D01*
X116695743Y-66102600D01*
X116492411Y-65481759D01*
X116253907Y-65481759D01*
X116561287Y-66321686D01*
X116616168Y-66476219D01*
X116647739Y-66547222D01*
X116673981Y-66592429D01*
X116703939Y-66629233D01*
X116737142Y-66657569D01*
X116775677Y-66679254D01*
X116824849Y-66696477D01*
X116878774Y-66706740D01*
X116942452Y-66710399D01*
X117008344Y-66706925D01*
X117072805Y-66696550D01*
X117093321Y-66516739D01*
X117040370Y-66524984D01*
X116995795Y-66527510D01*
X116944398Y-66521608D01*
X116905833Y-66505471D01*
X116876946Y-66479882D01*
X116843748Y-66427512D01*
X116817889Y-66358689D01*
X117149009Y-65481759D01*
G37*
G36*
X115079490Y-65913190D02*
G01*
X115079490Y-65711543D01*
X114556542Y-65711543D01*
X114556542Y-66192286D01*
X114610662Y-66236326D01*
X114683042Y-66279555D01*
X114777459Y-66321613D01*
X114875158Y-66352839D01*
X114972623Y-66371317D01*
X115070551Y-66377447D01*
X115164755Y-66372148D01*
X115250223Y-66356819D01*
X115328068Y-66332054D01*
X115399253Y-66298092D01*
X115465153Y-66253977D01*
X115521796Y-66201816D01*
X115569932Y-66141102D01*
X115609912Y-66070946D01*
X115648828Y-65970405D01*
X115672390Y-65863742D01*
X115680401Y-65749645D01*
X115675212Y-65655635D01*
X115660109Y-65569094D01*
X115635556Y-65489083D01*
X115601706Y-65414788D01*
X115557762Y-65345773D01*
X115505138Y-65285751D01*
X115443304Y-65233987D01*
X115371336Y-65190133D01*
X115292076Y-65157983D01*
X115197193Y-65137411D01*
X115083593Y-65130050D01*
X114970265Y-65136813D01*
X114876221Y-65155632D01*
X114798342Y-65184823D01*
X114734009Y-65223473D01*
X114676993Y-65274315D01*
X114631347Y-65333544D01*
X114596362Y-65402176D01*
X114572076Y-65481759D01*
X114813070Y-65528654D01*
X114835376Y-65472686D01*
X114867075Y-65426251D01*
X114908618Y-65387970D01*
X114957673Y-65359958D01*
X115015314Y-65342532D01*
X115083593Y-65336386D01*
X115161717Y-65343233D01*
X115228599Y-65362743D01*
X115286345Y-65394213D01*
X115336458Y-65438089D01*
X115375268Y-65491074D01*
X115404515Y-65557019D01*
X115423457Y-65638724D01*
X115430321Y-65739680D01*
X115423280Y-65849119D01*
X115403939Y-65937049D01*
X115374286Y-66007366D01*
X115335286Y-66063253D01*
X115284158Y-66110357D01*
X115226558Y-66143656D01*
X115161175Y-66164030D01*
X115086085Y-66171110D01*
X115010436Y-66163687D01*
X114933164Y-66140849D01*
X114860588Y-66106594D01*
X114801639Y-66067429D01*
X114801639Y-65913190D01*
X115079490Y-65913190D01*
G37*
G36*
X114454692Y-66354000D02*
G01*
X114197285Y-66354000D01*
X114098073Y-66082011D01*
X113617770Y-66082011D01*
X113512843Y-66354000D01*
X113248841Y-66354000D01*
X113437944Y-65880364D01*
X113695586Y-65880364D01*
X114023482Y-65880364D01*
X113861182Y-65430175D01*
X113695586Y-65880364D01*
X113437944Y-65880364D01*
X113730024Y-65148808D01*
X113986625Y-65148808D01*
X114454692Y-66354000D01*
G37*
G36*
X113127721Y-66354000D02*
G01*
X113127721Y-65148808D01*
X112885041Y-65148808D01*
X112885041Y-66354000D01*
X113127721Y-66354000D01*
G37*
G36*
X112775865Y-66354000D02*
G01*
X112518457Y-66354000D01*
X112419246Y-66082011D01*
X111938942Y-66082011D01*
X111834016Y-66354000D01*
X111570013Y-66354000D01*
X111759116Y-65880364D01*
X112016758Y-65880364D01*
X112344654Y-65880364D01*
X112182355Y-65430175D01*
X112016758Y-65880364D01*
X111759116Y-65880364D01*
X112051196Y-65148808D01*
X112307798Y-65148808D01*
X112775865Y-66354000D01*
G37*
G36*
X137093660Y-70386000D02*
G01*
X136637096Y-70386000D01*
X136509583Y-70378811D01*
X136422334Y-70360501D01*
X136352950Y-70333194D01*
X136296761Y-70301007D01*
X136251828Y-70264293D01*
X136201656Y-70206273D01*
X136158670Y-70135939D01*
X136123087Y-70051436D01*
X136103362Y-69978715D01*
X136090724Y-69893818D01*
X136086231Y-69794907D01*
X136086712Y-69783843D01*
X136337044Y-69783843D01*
X136344041Y-69916746D01*
X136361664Y-70005567D01*
X136381348Y-70058496D01*
X136402668Y-70096373D01*
X136425191Y-70122437D01*
X136468249Y-70152295D01*
X136523157Y-70172775D01*
X136575279Y-70180860D01*
X136669849Y-70184353D01*
X136851053Y-70184353D01*
X136851053Y-69382454D01*
X136742023Y-69382454D01*
X136605733Y-69386133D01*
X136542794Y-69394032D01*
X136479821Y-69416186D01*
X136430540Y-69451038D01*
X136392297Y-69499453D01*
X136361664Y-69568274D01*
X136344163Y-69651719D01*
X136337044Y-69783843D01*
X136086712Y-69783843D01*
X136091130Y-69682109D01*
X136104719Y-69588070D01*
X136125579Y-69510096D01*
X136156474Y-69435721D01*
X136194732Y-69370988D01*
X136240324Y-69314824D01*
X136294065Y-69266953D01*
X136354159Y-69230127D01*
X136421528Y-69203815D01*
X136509168Y-69187499D01*
X136650212Y-69180808D01*
X137093660Y-69180808D01*
X137093660Y-70386000D01*
G37*
G36*
X135634365Y-69498314D02*
G01*
X135708858Y-69521516D01*
X135775749Y-69559736D01*
X135836371Y-69614143D01*
X135884044Y-69678813D01*
X135919232Y-69755719D01*
X135941554Y-69847256D01*
X135949504Y-69956474D01*
X135943606Y-70047975D01*
X135926789Y-70127901D01*
X135899951Y-70197969D01*
X135863408Y-70259604D01*
X135816385Y-70312360D01*
X135760806Y-70353463D01*
X135695450Y-70383647D01*
X135618442Y-70402694D01*
X135527379Y-70409447D01*
X135433802Y-70401404D01*
X135355088Y-70378672D01*
X135288436Y-70342329D01*
X135231577Y-70292043D01*
X135185028Y-70227698D01*
X135148632Y-70146837D01*
X135378122Y-70109321D01*
X135402783Y-70166821D01*
X135433883Y-70202378D01*
X135474223Y-70223761D01*
X135524888Y-70231247D01*
X135575438Y-70224813D01*
X135619121Y-70206076D01*
X135657658Y-70174461D01*
X135686502Y-70133567D01*
X135705426Y-70081599D01*
X135713419Y-70015532D01*
X135136322Y-70015532D01*
X135139878Y-69904359D01*
X135144293Y-69874848D01*
X135365006Y-69874848D01*
X135709316Y-69874848D01*
X135703773Y-69813075D01*
X135687341Y-69763708D01*
X135660956Y-69724053D01*
X135625111Y-69693105D01*
X135584142Y-69674804D01*
X135536318Y-69668512D01*
X135491585Y-69674388D01*
X135452184Y-69691662D01*
X135416664Y-69721122D01*
X135390303Y-69759114D01*
X135372651Y-69809197D01*
X135365006Y-69874848D01*
X135144293Y-69874848D01*
X135153726Y-69811805D01*
X135176275Y-69735059D01*
X135206447Y-69671657D01*
X135243740Y-69619565D01*
X135304126Y-69563654D01*
X135373963Y-69523711D01*
X135455122Y-69498990D01*
X135550314Y-69490312D01*
X135634365Y-69498314D01*
G37*
G36*
X134709727Y-70386000D02*
G01*
X135060558Y-69513759D01*
X134818757Y-69513759D01*
X134654773Y-69958892D01*
X134607219Y-70107563D01*
X134583478Y-70032824D01*
X134558859Y-69958892D01*
X134393262Y-69513759D01*
X134156371Y-69513759D01*
X134502292Y-70386000D01*
X134709727Y-70386000D01*
G37*
G36*
X133767958Y-69498314D02*
G01*
X133842452Y-69521516D01*
X133909342Y-69559736D01*
X133969965Y-69614143D01*
X134017638Y-69678813D01*
X134052826Y-69755719D01*
X134075148Y-69847256D01*
X134083098Y-69956474D01*
X134077200Y-70047975D01*
X134060383Y-70127901D01*
X134033545Y-70197969D01*
X133997002Y-70259604D01*
X133949978Y-70312360D01*
X133894400Y-70353463D01*
X133829044Y-70383647D01*
X133752036Y-70402694D01*
X133660973Y-70409447D01*
X133567395Y-70401404D01*
X133488682Y-70378672D01*
X133422030Y-70342329D01*
X133365171Y-70292043D01*
X133318622Y-70227698D01*
X133282226Y-70146837D01*
X133511716Y-70109321D01*
X133536377Y-70166821D01*
X133567477Y-70202378D01*
X133607817Y-70223761D01*
X133658482Y-70231247D01*
X133709032Y-70224813D01*
X133752715Y-70206076D01*
X133791252Y-70174461D01*
X133820096Y-70133567D01*
X133839019Y-70081599D01*
X133847013Y-70015532D01*
X133269916Y-70015532D01*
X133273472Y-69904359D01*
X133277887Y-69874848D01*
X133498600Y-69874848D01*
X133842909Y-69874848D01*
X133837367Y-69813075D01*
X133820935Y-69763708D01*
X133794549Y-69724053D01*
X133758705Y-69693105D01*
X133717736Y-69674804D01*
X133669912Y-69668512D01*
X133625179Y-69674388D01*
X133585778Y-69691662D01*
X133550258Y-69721122D01*
X133523897Y-69759114D01*
X133506245Y-69809197D01*
X133498600Y-69874848D01*
X133277887Y-69874848D01*
X133287320Y-69811805D01*
X133309869Y-69735059D01*
X133340041Y-69671657D01*
X133377334Y-69619565D01*
X133437720Y-69563654D01*
X133507557Y-69523711D01*
X133588716Y-69498990D01*
X133683907Y-69490312D01*
X133767958Y-69498314D01*
G37*
G36*
X133082630Y-70386000D02*
G01*
X133082630Y-69180808D01*
X132852334Y-69180808D01*
X132852334Y-70386000D01*
X133082630Y-70386000D01*
G37*
G36*
X132304737Y-69496855D02*
G01*
X132381519Y-69515979D01*
X132452557Y-69547465D01*
X132516310Y-69591153D01*
X132569448Y-69645947D01*
X132612805Y-69713062D01*
X132644503Y-69786991D01*
X132663170Y-69861481D01*
X132669371Y-69937423D01*
X132662544Y-70037204D01*
X132643277Y-70122128D01*
X132612805Y-70194611D01*
X132569271Y-70259353D01*
X132514623Y-70312409D01*
X132447648Y-70354785D01*
X132373638Y-70385265D01*
X132297822Y-70403382D01*
X132219330Y-70409447D01*
X132124853Y-70400898D01*
X132041169Y-70376159D01*
X131966179Y-70335590D01*
X131898394Y-70278215D01*
X131842968Y-70208873D01*
X131803492Y-70131745D01*
X131779288Y-70045286D01*
X131770969Y-69948194D01*
X132007791Y-69948194D01*
X132015539Y-70035235D01*
X132036555Y-70101548D01*
X132068900Y-70151819D01*
X132113399Y-70191109D01*
X132163151Y-70214058D01*
X132220136Y-70221868D01*
X132277137Y-70214068D01*
X132327043Y-70191123D01*
X132371810Y-70151819D01*
X132404428Y-70101546D01*
X132425532Y-70035732D01*
X132433286Y-69949879D01*
X132425530Y-69864028D01*
X132404425Y-69798241D01*
X132371810Y-69748013D01*
X132327037Y-69708664D01*
X132277132Y-69685698D01*
X132220136Y-69677891D01*
X132163156Y-69685707D01*
X132113404Y-69708679D01*
X132068900Y-69748013D01*
X132036429Y-69798183D01*
X132015473Y-69863468D01*
X132007791Y-69948194D01*
X131770969Y-69948194D01*
X131770900Y-69947388D01*
X131779216Y-69850299D01*
X131803198Y-69764673D01*
X131842289Y-69688399D01*
X131897149Y-69619932D01*
X131964233Y-69563559D01*
X132039382Y-69523459D01*
X132124203Y-69498857D01*
X132220942Y-69490312D01*
X132304737Y-69496855D01*
G37*
G36*
X131167447Y-69495169D02*
G01*
X131219875Y-69509450D01*
X131268907Y-69533177D01*
X131333303Y-69582167D01*
X131382041Y-69641621D01*
X131382041Y-69513759D01*
X131596803Y-69513759D01*
X131596803Y-70718951D01*
X131366434Y-70718951D01*
X131366434Y-70282318D01*
X131300147Y-70344189D01*
X131243115Y-70380724D01*
X131181917Y-70402087D01*
X131112323Y-70409447D01*
X131039443Y-70401835D01*
X130973119Y-70379443D01*
X130911719Y-70341861D01*
X130854183Y-70287301D01*
X130809610Y-70223844D01*
X130776401Y-70147442D01*
X130755172Y-70055527D01*
X130747571Y-69944897D01*
X130747591Y-69944604D01*
X130981971Y-69944604D01*
X130989230Y-70043951D01*
X131008046Y-70113418D01*
X131035314Y-70160685D01*
X131074533Y-70197774D01*
X131118445Y-70219266D01*
X131168890Y-70226558D01*
X131221304Y-70218747D01*
X131267977Y-70195471D01*
X131310746Y-70154824D01*
X131340916Y-70103546D01*
X131361233Y-70031737D01*
X131368925Y-69932880D01*
X131361741Y-69847162D01*
X131342447Y-69782937D01*
X131313164Y-69735263D01*
X131272264Y-69697810D01*
X131226183Y-69675958D01*
X131172993Y-69668512D01*
X131122051Y-69675986D01*
X131077305Y-69698118D01*
X131036926Y-69736509D01*
X131008364Y-69785021D01*
X130989202Y-69852418D01*
X130981971Y-69944604D01*
X130747591Y-69944604D01*
X130755074Y-69837338D01*
X130776067Y-69747672D01*
X130808989Y-69672843D01*
X130853304Y-69610406D01*
X130910322Y-69556886D01*
X130971423Y-69519917D01*
X131037675Y-69497833D01*
X131110711Y-69490312D01*
X131167447Y-69495169D01*
G37*
G36*
X130316514Y-69498314D02*
G01*
X130391007Y-69521516D01*
X130457898Y-69559736D01*
X130518520Y-69614143D01*
X130566193Y-69678813D01*
X130601382Y-69755719D01*
X130623704Y-69847256D01*
X130631653Y-69956474D01*
X130625755Y-70047975D01*
X130608938Y-70127901D01*
X130582101Y-70197969D01*
X130545558Y-70259604D01*
X130498534Y-70312360D01*
X130442956Y-70353463D01*
X130377600Y-70383647D01*
X130300591Y-70402694D01*
X130209528Y-70409447D01*
X130115951Y-70401404D01*
X130037237Y-70378672D01*
X129970586Y-70342329D01*
X129913726Y-70292043D01*
X129867177Y-70227698D01*
X129830781Y-70146837D01*
X130060272Y-70109321D01*
X130084932Y-70166821D01*
X130116032Y-70202378D01*
X130156372Y-70223761D01*
X130207037Y-70231247D01*
X130257588Y-70224813D01*
X130301270Y-70206076D01*
X130339808Y-70174461D01*
X130368652Y-70133567D01*
X130387575Y-70081599D01*
X130395568Y-70015532D01*
X129818471Y-70015532D01*
X129822027Y-69904359D01*
X129826443Y-69874848D01*
X130047156Y-69874848D01*
X130391465Y-69874848D01*
X130385923Y-69813075D01*
X130369490Y-69763708D01*
X130343105Y-69724053D01*
X130307261Y-69693105D01*
X130266292Y-69674804D01*
X130218468Y-69668512D01*
X130173735Y-69674388D01*
X130134334Y-69691662D01*
X130098813Y-69721122D01*
X130072452Y-69759114D01*
X130054800Y-69809197D01*
X130047156Y-69874848D01*
X129826443Y-69874848D01*
X129835876Y-69811805D01*
X129858425Y-69735059D01*
X129888597Y-69671657D01*
X129925889Y-69619565D01*
X129986276Y-69563654D01*
X130056112Y-69523711D01*
X130137272Y-69498990D01*
X130232463Y-69490312D01*
X130316514Y-69498314D01*
G37*
G36*
X129063101Y-69611652D02*
G01*
X129120652Y-69557154D01*
X129181169Y-69519849D01*
X129245643Y-69497772D01*
X129315600Y-69490312D01*
X129392738Y-69497800D01*
X129461193Y-69519540D01*
X129522781Y-69555430D01*
X129578722Y-69606669D01*
X129621840Y-69667155D01*
X129654293Y-69741849D01*
X129675264Y-69833752D01*
X129682843Y-69946582D01*
X129675242Y-70056256D01*
X129653983Y-70147622D01*
X129620668Y-70223803D01*
X129575865Y-70287301D01*
X129518098Y-70341970D01*
X129456797Y-70379542D01*
X129390928Y-70401873D01*
X129318897Y-70409447D01*
X129246382Y-70400116D01*
X129172571Y-70371125D01*
X129127067Y-70342050D01*
X129085218Y-70304682D01*
X129046762Y-70258138D01*
X129046762Y-70386000D01*
X128832805Y-70386000D01*
X128832805Y-69956181D01*
X129062295Y-69956181D01*
X129069538Y-70046157D01*
X129088896Y-70113086D01*
X129118056Y-70162297D01*
X129158961Y-70201410D01*
X129203467Y-70223760D01*
X129253318Y-70231247D01*
X129300631Y-70225473D01*
X129341434Y-70208717D01*
X129377308Y-70180620D01*
X129409023Y-70139290D01*
X129428457Y-70094772D01*
X129442210Y-70028592D01*
X129447564Y-69933540D01*
X129440403Y-69846972D01*
X129421229Y-69782491D01*
X129392243Y-69734970D01*
X129351689Y-69697561D01*
X129306528Y-69675866D01*
X129254930Y-69668512D01*
X129201850Y-69676047D01*
X129156361Y-69698094D01*
X129116444Y-69735849D01*
X129088766Y-69784083D01*
X129069664Y-69854925D01*
X129062295Y-69956181D01*
X128832805Y-69956181D01*
X128832805Y-69180808D01*
X129063101Y-69180808D01*
X129063101Y-69611652D01*
G37*
G36*
X128136346Y-70386000D02*
G01*
X127727337Y-70386000D01*
X127516113Y-70382462D01*
X127434685Y-70377793D01*
X127371679Y-70366176D01*
X127317903Y-70346968D01*
X127271946Y-70320640D01*
X127231381Y-70286499D01*
X127196762Y-70245343D01*
X127167826Y-70196369D01*
X127146487Y-70143500D01*
X127133903Y-70090348D01*
X127129724Y-70036341D01*
X127130773Y-70025863D01*
X127380537Y-70025863D01*
X127384664Y-70067542D01*
X127396200Y-70101244D01*
X127414609Y-70128665D01*
X127453234Y-70159682D01*
X127502683Y-70176952D01*
X127549637Y-70181887D01*
X127669085Y-70184353D01*
X127893667Y-70184353D01*
X127893667Y-69860780D01*
X127697735Y-69860780D01*
X127546494Y-69866442D01*
X127482606Y-69878145D01*
X127438230Y-69901072D01*
X127406769Y-69933466D01*
X127387372Y-69974579D01*
X127380537Y-70025863D01*
X127130773Y-70025863D01*
X127136496Y-69968694D01*
X127156184Y-69908643D01*
X127188782Y-69854551D01*
X127232563Y-69808982D01*
X127288107Y-69772493D01*
X127357602Y-69745082D01*
X127309011Y-69717428D01*
X127268146Y-69682297D01*
X127234211Y-69639129D01*
X127208896Y-69590395D01*
X127193806Y-69538951D01*
X127191936Y-69518742D01*
X127424794Y-69518742D01*
X127429000Y-69555899D01*
X127440946Y-69586582D01*
X127460478Y-69612238D01*
X127501371Y-69640054D01*
X127558370Y-69655030D01*
X127734665Y-69659133D01*
X127893667Y-69659133D01*
X127893667Y-69382454D01*
X127754302Y-69382454D01*
X127546939Y-69386558D01*
X127508043Y-69395077D01*
X127478210Y-69409243D01*
X127455568Y-69428616D01*
X127432847Y-69467438D01*
X127424794Y-69518742D01*
X127191936Y-69518742D01*
X127188709Y-69483864D01*
X127192927Y-69432859D01*
X127205266Y-69386194D01*
X127225638Y-69343034D01*
X127267589Y-69285927D01*
X127317815Y-69242430D01*
X127376380Y-69211287D01*
X127443258Y-69192751D01*
X127522420Y-69184331D01*
X127655969Y-69180808D01*
X128136346Y-69180808D01*
X128136346Y-70386000D01*
G37*
G36*
X127035568Y-69513759D02*
G01*
X126790471Y-69513759D01*
X126582302Y-70134600D01*
X126378970Y-69513759D01*
X126140467Y-69513759D01*
X126447847Y-70353686D01*
X126502728Y-70508219D01*
X126534299Y-70579222D01*
X126560540Y-70624429D01*
X126590499Y-70661233D01*
X126623702Y-70689569D01*
X126662237Y-70711254D01*
X126711409Y-70728477D01*
X126765333Y-70738740D01*
X126829012Y-70742399D01*
X126894903Y-70738925D01*
X126959364Y-70728550D01*
X126979881Y-70548739D01*
X126926930Y-70556984D01*
X126882355Y-70559510D01*
X126830958Y-70553608D01*
X126792393Y-70537471D01*
X126763506Y-70511882D01*
X126730308Y-70459512D01*
X126704448Y-70390689D01*
X127035568Y-69513759D01*
G37*
G36*
X125949078Y-69743543D02*
G01*
X125949078Y-69513759D01*
X125718782Y-69513759D01*
X125718782Y-69743543D01*
X125949078Y-69743543D01*
G37*
G36*
X125949078Y-70386000D02*
G01*
X125949078Y-70156216D01*
X125718782Y-70156216D01*
X125718782Y-70386000D01*
X125949078Y-70386000D01*
G37*
G36*
X124659330Y-70386000D02*
G01*
X125088855Y-69180808D01*
X124825732Y-69180808D01*
X124521577Y-70071806D01*
X124227313Y-69180808D01*
X123969905Y-69180808D01*
X124400310Y-70386000D01*
X124659330Y-70386000D01*
G37*
G36*
X123878387Y-69391833D02*
G01*
X123878387Y-69180808D01*
X123648091Y-69180808D01*
X123648091Y-69391833D01*
X123878387Y-69391833D01*
G37*
G36*
X123878387Y-70386000D02*
G01*
X123878387Y-69513759D01*
X123648091Y-69513759D01*
X123648091Y-70386000D01*
X123878387Y-70386000D01*
G37*
G36*
X123492972Y-70137458D02*
G01*
X123261796Y-70109321D01*
X123248006Y-70151598D01*
X123228049Y-70184869D01*
X123202006Y-70210731D01*
X123170100Y-70229046D01*
X123128858Y-70240949D01*
X123075757Y-70245316D01*
X123016844Y-70240918D01*
X122973192Y-70229217D01*
X122941301Y-70211757D01*
X122918602Y-70184442D01*
X122910966Y-70148962D01*
X122915188Y-70124079D01*
X122927379Y-70104485D01*
X122950652Y-70090269D01*
X123004389Y-70073491D01*
X123193708Y-70025321D01*
X123302577Y-69987783D01*
X123357711Y-69959185D01*
X123403407Y-69919478D01*
X123435119Y-69874063D01*
X123454343Y-69821828D01*
X123461025Y-69760836D01*
X123455389Y-69705606D01*
X123438897Y-69655887D01*
X123411393Y-69610411D01*
X123371706Y-69568348D01*
X123325521Y-69536653D01*
X123266103Y-69512278D01*
X123190372Y-69496210D01*
X123094588Y-69490312D01*
X123002348Y-69494891D01*
X122929570Y-69507302D01*
X122872798Y-69525904D01*
X122829047Y-69549590D01*
X122777980Y-69594399D01*
X122738155Y-69651980D01*
X122709319Y-69724785D01*
X122926500Y-69766990D01*
X122947182Y-69718073D01*
X122979403Y-69683459D01*
X123006875Y-69668196D01*
X123043093Y-69658159D01*
X123090484Y-69654443D01*
X123151258Y-69658072D01*
X123193080Y-69667356D01*
X123220837Y-69680455D01*
X123240667Y-69701862D01*
X123247069Y-69728156D01*
X123241542Y-69751066D01*
X123224134Y-69770947D01*
X123173889Y-69793092D01*
X123008932Y-69837186D01*
X122886680Y-69871785D01*
X122804373Y-69906816D01*
X122751964Y-69941233D01*
X122712510Y-69987056D01*
X122688364Y-70043695D01*
X122679790Y-70114450D01*
X122685963Y-70172462D01*
X122704196Y-70225690D01*
X122734949Y-70275416D01*
X122779808Y-70322472D01*
X122831592Y-70358264D01*
X122896227Y-70385400D01*
X122976484Y-70403042D01*
X123075757Y-70409447D01*
X123165730Y-70404192D01*
X123241208Y-70389507D01*
X123304443Y-70366630D01*
X123357344Y-70336247D01*
X123404864Y-70296209D01*
X123442912Y-70250213D01*
X123472223Y-70197636D01*
X123492972Y-70137458D01*
G37*
G36*
X122249092Y-69180808D02*
G01*
X122249092Y-69622130D01*
X122188580Y-69562823D01*
X122124819Y-69522331D01*
X122056744Y-69498399D01*
X121982672Y-69490312D01*
X121905993Y-69497952D01*
X121839204Y-69519988D01*
X121781778Y-69554878D01*
X121742850Y-69595898D01*
X121715639Y-69644445D01*
X121698593Y-69698187D01*
X121690251Y-69761982D01*
X121686723Y-69872210D01*
X121686723Y-70386000D01*
X121917093Y-70386000D01*
X121917093Y-69923868D01*
X121921457Y-69798630D01*
X121930209Y-69749258D01*
X121948314Y-69716030D01*
X121976517Y-69690347D01*
X122012702Y-69674297D01*
X122059755Y-69668512D01*
X122114549Y-69675646D01*
X122162191Y-69696502D01*
X122200692Y-69730938D01*
X122228210Y-69780986D01*
X122243003Y-69844305D01*
X122249092Y-69947755D01*
X122249092Y-70386000D01*
X122479462Y-70386000D01*
X122479462Y-69180808D01*
X122249092Y-69180808D01*
G37*
G36*
X121290464Y-70386000D02*
G01*
X121565896Y-69513759D01*
X121342121Y-69513759D01*
X121179016Y-70085361D01*
X121028953Y-69513759D01*
X120806863Y-69513759D01*
X120661709Y-70085361D01*
X120495307Y-69513759D01*
X120268234Y-69513759D01*
X120547770Y-70386000D01*
X120769127Y-70386000D01*
X120919117Y-69825023D01*
X121066688Y-70386000D01*
X121290464Y-70386000D01*
G37*
G36*
X119893591Y-69495001D02*
G01*
X119963296Y-69507820D01*
X120018718Y-69527260D01*
X120062411Y-69552374D01*
X120112478Y-69599214D01*
X120152991Y-69661791D01*
X120183677Y-69743543D01*
X119974630Y-69781059D01*
X119948400Y-69725306D01*
X119918942Y-69693498D01*
X119880039Y-69675375D01*
X119823028Y-69668512D01*
X119762430Y-69672687D01*
X119723288Y-69683125D01*
X119699270Y-69697601D01*
X119682107Y-69719341D01*
X119670748Y-69750664D01*
X119666444Y-69794981D01*
X119666444Y-69818575D01*
X119741588Y-69842881D01*
X119890219Y-69875434D01*
X120002284Y-69902405D01*
X120073401Y-69929436D01*
X120112947Y-69953279D01*
X120145635Y-69982791D01*
X120172173Y-70018390D01*
X120191570Y-70058415D01*
X120203366Y-70102210D01*
X120207418Y-70150647D01*
X120202381Y-70205302D01*
X120187804Y-70253663D01*
X120163875Y-70296972D01*
X120129968Y-70336101D01*
X120089313Y-70367202D01*
X120041447Y-70389988D01*
X119984970Y-70404353D01*
X119918063Y-70409447D01*
X119843711Y-70402049D01*
X119774595Y-70380138D01*
X119710376Y-70344179D01*
X119648346Y-70292210D01*
X119640139Y-70318882D01*
X119618011Y-70386000D01*
X119390132Y-70386000D01*
X119416231Y-70323632D01*
X119431531Y-70268470D01*
X119439308Y-70206015D01*
X119442595Y-70098184D01*
X119441849Y-70014726D01*
X119666444Y-70014726D01*
X119669285Y-70091252D01*
X119675457Y-70127566D01*
X119695398Y-70168853D01*
X119730411Y-70204136D01*
X119769660Y-70227435D01*
X119809012Y-70240884D01*
X119849260Y-70245316D01*
X119884983Y-70241204D01*
X119915168Y-70229408D01*
X119941071Y-70209925D01*
X119961296Y-70184529D01*
X119973120Y-70156826D01*
X119977121Y-70125881D01*
X119972229Y-70095214D01*
X119957669Y-70068451D01*
X119932058Y-70044401D01*
X119893728Y-70027010D01*
X119806615Y-70004028D01*
X119666444Y-69968637D01*
X119666444Y-70014726D01*
X119441849Y-70014726D01*
X119440177Y-69827660D01*
X119444714Y-69725678D01*
X119455944Y-69659971D01*
X119470952Y-69620225D01*
X119495128Y-69586159D01*
X119529807Y-69555122D01*
X119577124Y-69527022D01*
X119629066Y-69508399D01*
X119703373Y-69495336D01*
X119806615Y-69490312D01*
X119893591Y-69495001D01*
G37*
G36*
X119294731Y-70137458D02*
G01*
X119063555Y-70109321D01*
X119049765Y-70151598D01*
X119029807Y-70184869D01*
X119003764Y-70210731D01*
X118971858Y-70229046D01*
X118930617Y-70240949D01*
X118877515Y-70245316D01*
X118818602Y-70240918D01*
X118774951Y-70229217D01*
X118743060Y-70211757D01*
X118720361Y-70184442D01*
X118712725Y-70148962D01*
X118716946Y-70124079D01*
X118729138Y-70104485D01*
X118752411Y-70090269D01*
X118806147Y-70073491D01*
X118995467Y-70025321D01*
X119104336Y-69987783D01*
X119159469Y-69959185D01*
X119205165Y-69919478D01*
X119236877Y-69874063D01*
X119256101Y-69821828D01*
X119262784Y-69760836D01*
X119257148Y-69705606D01*
X119240656Y-69655887D01*
X119213152Y-69610411D01*
X119173464Y-69568348D01*
X119127279Y-69536653D01*
X119067861Y-69512278D01*
X118992130Y-69496210D01*
X118896346Y-69490312D01*
X118804107Y-69494891D01*
X118731329Y-69507302D01*
X118674557Y-69525904D01*
X118630806Y-69549590D01*
X118579739Y-69594399D01*
X118539914Y-69651980D01*
X118511078Y-69724785D01*
X118728258Y-69766990D01*
X118748941Y-69718073D01*
X118781161Y-69683459D01*
X118808633Y-69668196D01*
X118844851Y-69658159D01*
X118892243Y-69654443D01*
X118953017Y-69658072D01*
X118994838Y-69667356D01*
X119022595Y-69680455D01*
X119042425Y-69701862D01*
X119048827Y-69728156D01*
X119043301Y-69751066D01*
X119025893Y-69770947D01*
X118975648Y-69793092D01*
X118810690Y-69837186D01*
X118688438Y-69871785D01*
X118606131Y-69906816D01*
X118553722Y-69941233D01*
X118514268Y-69987056D01*
X118490122Y-70043695D01*
X118481549Y-70114450D01*
X118487721Y-70172462D01*
X118505955Y-70225690D01*
X118536707Y-70275416D01*
X118581566Y-70322472D01*
X118633351Y-70358264D01*
X118697985Y-70385400D01*
X118778242Y-70403042D01*
X118877515Y-70409447D01*
X118967489Y-70404192D01*
X119042966Y-70389507D01*
X119106201Y-70366630D01*
X119159103Y-70336247D01*
X119206623Y-70296209D01*
X119244671Y-70250213D01*
X119273982Y-70197636D01*
X119294731Y-70137458D01*
G37*
G36*
X117812128Y-70386000D02*
G01*
X117569521Y-70386000D01*
X117569521Y-69931122D01*
X117411325Y-69931122D01*
X117256269Y-69926095D01*
X117159633Y-69913829D01*
X117097290Y-69893100D01*
X117033750Y-69856750D01*
X116995576Y-69825045D01*
X116961593Y-69785766D01*
X116931681Y-69737974D01*
X116910128Y-69686067D01*
X116896413Y-69624515D01*
X116891778Y-69555159D01*
X117141608Y-69555159D01*
X117148643Y-69606617D01*
X117169085Y-69650267D01*
X117201519Y-69685466D01*
X117244923Y-69710277D01*
X117305124Y-69723362D01*
X117436751Y-69729475D01*
X117569521Y-69729475D01*
X117569521Y-69382454D01*
X117452285Y-69382454D01*
X117331984Y-69385126D01*
X117277676Y-69390808D01*
X117240292Y-69401790D01*
X117208070Y-69419759D01*
X117180150Y-69445030D01*
X117159064Y-69475899D01*
X117146141Y-69512124D01*
X117141608Y-69555159D01*
X116891778Y-69555159D01*
X116891528Y-69551422D01*
X116899950Y-69457864D01*
X116923587Y-69380772D01*
X116961210Y-69316875D01*
X117012248Y-69262661D01*
X117069539Y-69223816D01*
X117134207Y-69198906D01*
X117220376Y-69186697D01*
X117422756Y-69180808D01*
X117812128Y-69180808D01*
X117812128Y-70386000D01*
G37*
G36*
X116440974Y-69495001D02*
G01*
X116510679Y-69507820D01*
X116566101Y-69527260D01*
X116609794Y-69552374D01*
X116659861Y-69599214D01*
X116700374Y-69661791D01*
X116731060Y-69743543D01*
X116522013Y-69781059D01*
X116495783Y-69725306D01*
X116466325Y-69693498D01*
X116427422Y-69675375D01*
X116370411Y-69668512D01*
X116309813Y-69672687D01*
X116270671Y-69683125D01*
X116246653Y-69697601D01*
X116229490Y-69719341D01*
X116218131Y-69750664D01*
X116213827Y-69794981D01*
X116213827Y-69818575D01*
X116288971Y-69842881D01*
X116437602Y-69875434D01*
X116549667Y-69902405D01*
X116620785Y-69929436D01*
X116660330Y-69953279D01*
X116693018Y-69982791D01*
X116719556Y-70018390D01*
X116738953Y-70058415D01*
X116750749Y-70102210D01*
X116754801Y-70150647D01*
X116749764Y-70205302D01*
X116735187Y-70253663D01*
X116711258Y-70296972D01*
X116677351Y-70336101D01*
X116636696Y-70367202D01*
X116588830Y-70389988D01*
X116532353Y-70404353D01*
X116465446Y-70409447D01*
X116391094Y-70402049D01*
X116321978Y-70380138D01*
X116257760Y-70344179D01*
X116195729Y-70292210D01*
X116187522Y-70318882D01*
X116165394Y-70386000D01*
X115937515Y-70386000D01*
X115963614Y-70323632D01*
X115978914Y-70268470D01*
X115986691Y-70206015D01*
X115989979Y-70098184D01*
X115989233Y-70014726D01*
X116213827Y-70014726D01*
X116216668Y-70091252D01*
X116222840Y-70127566D01*
X116242781Y-70168853D01*
X116277794Y-70204136D01*
X116317044Y-70227435D01*
X116356395Y-70240884D01*
X116396643Y-70245316D01*
X116432366Y-70241204D01*
X116462551Y-70229408D01*
X116488454Y-70209925D01*
X116508679Y-70184529D01*
X116520503Y-70156826D01*
X116524504Y-70125881D01*
X116519612Y-70095214D01*
X116505052Y-70068451D01*
X116479441Y-70044401D01*
X116441111Y-70027010D01*
X116353998Y-70004028D01*
X116213827Y-69968637D01*
X116213827Y-70014726D01*
X115989233Y-70014726D01*
X115987561Y-69827660D01*
X115992097Y-69725678D01*
X116003327Y-69659971D01*
X116018335Y-69620225D01*
X116042511Y-69586159D01*
X116077190Y-69555122D01*
X116124508Y-69527022D01*
X116176449Y-69508399D01*
X116250757Y-69495336D01*
X116353998Y-69490312D01*
X116440974Y-69495001D01*
G37*
G36*
X115760928Y-70386000D02*
G01*
X115760928Y-69180808D01*
X115530631Y-69180808D01*
X115530631Y-70386000D01*
X115760928Y-70386000D01*
G37*
G36*
X115294326Y-69391833D02*
G01*
X115294326Y-69180808D01*
X115064030Y-69180808D01*
X115064030Y-69391833D01*
X115294326Y-69391833D01*
G37*
G36*
X115294326Y-70386000D02*
G01*
X115294326Y-69513759D01*
X115064030Y-69513759D01*
X115064030Y-70386000D01*
X115294326Y-70386000D01*
G37*
G36*
X114665425Y-70386000D02*
G01*
X114940858Y-69513759D01*
X114717083Y-69513759D01*
X114553977Y-70085361D01*
X114403914Y-69513759D01*
X114181824Y-69513759D01*
X114036671Y-70085361D01*
X113870268Y-69513759D01*
X113643196Y-69513759D01*
X113922732Y-70386000D01*
X114144089Y-70386000D01*
X114294078Y-69825023D01*
X114441650Y-70386000D01*
X114665425Y-70386000D01*
G37*
G36*
X113268553Y-69495001D02*
G01*
X113338257Y-69507820D01*
X113393679Y-69527260D01*
X113437372Y-69552374D01*
X113487439Y-69599214D01*
X113527953Y-69661791D01*
X113558639Y-69743543D01*
X113349591Y-69781059D01*
X113323362Y-69725306D01*
X113293904Y-69693498D01*
X113255001Y-69675375D01*
X113197990Y-69668512D01*
X113137392Y-69672687D01*
X113098249Y-69683125D01*
X113074232Y-69697601D01*
X113057069Y-69719341D01*
X113045710Y-69750664D01*
X113041406Y-69794981D01*
X113041406Y-69818575D01*
X113116550Y-69842881D01*
X113265181Y-69875434D01*
X113377245Y-69902405D01*
X113448363Y-69929436D01*
X113487909Y-69953279D01*
X113520596Y-69982791D01*
X113547135Y-70018390D01*
X113566531Y-70058415D01*
X113578328Y-70102210D01*
X113582379Y-70150647D01*
X113577343Y-70205302D01*
X113562766Y-70253663D01*
X113538837Y-70296972D01*
X113504930Y-70336101D01*
X113464274Y-70367202D01*
X113416409Y-70389988D01*
X113359931Y-70404353D01*
X113293025Y-70409447D01*
X113218673Y-70402049D01*
X113149556Y-70380138D01*
X113085338Y-70344179D01*
X113023307Y-70292210D01*
X113015101Y-70318882D01*
X112992972Y-70386000D01*
X112765094Y-70386000D01*
X112791193Y-70323632D01*
X112806493Y-70268470D01*
X112814269Y-70206015D01*
X112817557Y-70098184D01*
X112816811Y-70014726D01*
X113041406Y-70014726D01*
X113044247Y-70091252D01*
X113050418Y-70127566D01*
X113070360Y-70168853D01*
X113105373Y-70204136D01*
X113144622Y-70227435D01*
X113183974Y-70240884D01*
X113224221Y-70245316D01*
X113259944Y-70241204D01*
X113290130Y-70229408D01*
X113316032Y-70209925D01*
X113336258Y-70184529D01*
X113348082Y-70156826D01*
X113352083Y-70125881D01*
X113347191Y-70095214D01*
X113332630Y-70068451D01*
X113307020Y-70044401D01*
X113268690Y-70027010D01*
X113181577Y-70004028D01*
X113041406Y-69968637D01*
X113041406Y-70014726D01*
X112816811Y-70014726D01*
X112815139Y-69827660D01*
X112819676Y-69725678D01*
X112830905Y-69659971D01*
X112845914Y-69620225D01*
X112870089Y-69586159D01*
X112904768Y-69555122D01*
X112952086Y-69527022D01*
X113004028Y-69508399D01*
X113078335Y-69495336D01*
X113181577Y-69490312D01*
X113268553Y-69495001D01*
G37*
G36*
X112588506Y-70386000D02*
G01*
X112588506Y-69180808D01*
X112358210Y-69180808D01*
X112358210Y-70386000D01*
X112588506Y-70386000D01*
G37*
D12*
%TO.C,REF\u002A\u002A*%
X138481264Y-98618873D02*
X138498739Y-98650233D01*
X138499575Y-98686034D01*
X138479082Y-98717472D01*
X138474416Y-98721348D01*
X138464949Y-98726814D01*
X138451267Y-98731021D01*
X138430748Y-98734133D01*
X138400768Y-98736313D01*
X138358704Y-98737724D01*
X138301932Y-98738529D01*
X138227830Y-98738893D01*
X138133773Y-98738978D01*
X137812227Y-98738978D01*
X137790647Y-98712327D01*
X137775877Y-98688614D01*
X137769067Y-98665600D01*
X137774949Y-98644594D01*
X137790647Y-98618873D01*
X137812227Y-98592222D01*
X138459684Y-98592222D01*
X138481264Y-98618873D01*
%TA.AperFunction,EtchedComponent*%
G36*
X138481264Y-98618873D02*
G01*
X138498739Y-98650233D01*
X138499575Y-98686034D01*
X138479082Y-98717472D01*
X138474416Y-98721348D01*
X138464949Y-98726814D01*
X138451267Y-98731021D01*
X138430748Y-98734133D01*
X138400768Y-98736313D01*
X138358704Y-98737724D01*
X138301932Y-98738529D01*
X138227830Y-98738893D01*
X138133773Y-98738978D01*
X137812227Y-98738978D01*
X137790647Y-98712327D01*
X137775877Y-98688614D01*
X137769067Y-98665600D01*
X137774949Y-98644594D01*
X137790647Y-98618873D01*
X137812227Y-98592222D01*
X138459684Y-98592222D01*
X138481264Y-98618873D01*
G37*
%TD.AperFunction*%
X138221567Y-91452041D02*
X138295789Y-91452299D01*
X138352541Y-91452970D01*
X138394512Y-91454248D01*
X138424389Y-91456327D01*
X138444861Y-91459401D01*
X138458614Y-91463666D01*
X138468337Y-91469316D01*
X138476717Y-91476545D01*
X138498181Y-91508009D01*
X138499947Y-91543174D01*
X138480267Y-91576178D01*
X138474398Y-91581484D01*
X138465314Y-91586934D01*
X138451973Y-91591100D01*
X138431757Y-91594154D01*
X138402049Y-91596268D01*
X138360232Y-91597614D01*
X138303689Y-91598362D01*
X138229802Y-91598686D01*
X138135956Y-91598755D01*
X138060294Y-91598716D01*
X137982385Y-91598461D01*
X137922375Y-91597817D01*
X137877648Y-91596613D01*
X137845585Y-91594676D01*
X137823571Y-91591836D01*
X137808987Y-91587921D01*
X137799218Y-91582758D01*
X137791645Y-91576178D01*
X137772623Y-91546994D01*
X137773463Y-91513863D01*
X137796776Y-91479709D01*
X137824485Y-91452000D01*
X138137537Y-91452000D01*
X138221567Y-91452041D01*
%TA.AperFunction,EtchedComponent*%
G36*
X138221567Y-91452041D02*
G01*
X138295789Y-91452299D01*
X138352541Y-91452970D01*
X138394512Y-91454248D01*
X138424389Y-91456327D01*
X138444861Y-91459401D01*
X138458614Y-91463666D01*
X138468337Y-91469316D01*
X138476717Y-91476545D01*
X138498181Y-91508009D01*
X138499947Y-91543174D01*
X138480267Y-91576178D01*
X138474398Y-91581484D01*
X138465314Y-91586934D01*
X138451973Y-91591100D01*
X138431757Y-91594154D01*
X138402049Y-91596268D01*
X138360232Y-91597614D01*
X138303689Y-91598362D01*
X138229802Y-91598686D01*
X138135956Y-91598755D01*
X138060294Y-91598716D01*
X137982385Y-91598461D01*
X137922375Y-91597817D01*
X137877648Y-91596613D01*
X137845585Y-91594676D01*
X137823571Y-91591836D01*
X137808987Y-91587921D01*
X137799218Y-91582758D01*
X137791645Y-91576178D01*
X137772623Y-91546994D01*
X137773463Y-91513863D01*
X137796776Y-91479709D01*
X137824485Y-91452000D01*
X138137537Y-91452000D01*
X138221567Y-91452041D01*
G37*
%TD.AperFunction*%
X133034307Y-91695331D02*
X133075450Y-91697540D01*
X133107582Y-91703106D01*
X133138122Y-91713414D01*
X133174489Y-91729852D01*
X133201728Y-91743800D01*
X133287429Y-91802335D01*
X133356617Y-91874381D01*
X133407741Y-91958053D01*
X133439250Y-92051469D01*
X133446225Y-92084566D01*
X133453094Y-92125040D01*
X133454919Y-92158001D01*
X133451947Y-92192302D01*
X133444426Y-92236800D01*
X133432002Y-92288066D01*
X133394112Y-92378566D01*
X133339836Y-92457655D01*
X133271770Y-92523472D01*
X133192511Y-92574160D01*
X133104654Y-92607860D01*
X133010795Y-92622714D01*
X132913530Y-92616864D01*
X132817220Y-92590601D01*
X132728494Y-92545582D01*
X132653419Y-92484627D01*
X132593641Y-92409816D01*
X132550809Y-92323232D01*
X132526571Y-92226957D01*
X132522576Y-92123072D01*
X132532850Y-92045438D01*
X132560053Y-91962687D01*
X132605484Y-91887594D01*
X132671302Y-91815702D01*
X132715567Y-91777154D01*
X132773961Y-91737744D01*
X132834586Y-91712554D01*
X132903865Y-91699139D01*
X132988222Y-91695052D01*
X133034307Y-91695331D01*
%TA.AperFunction,EtchedComponent*%
G36*
X133034307Y-91695331D02*
G01*
X133075450Y-91697540D01*
X133107582Y-91703106D01*
X133138122Y-91713414D01*
X133174489Y-91729852D01*
X133201728Y-91743800D01*
X133287429Y-91802335D01*
X133356617Y-91874381D01*
X133407741Y-91958053D01*
X133439250Y-92051469D01*
X133446225Y-92084566D01*
X133453094Y-92125040D01*
X133454919Y-92158001D01*
X133451947Y-92192302D01*
X133444426Y-92236800D01*
X133432002Y-92288066D01*
X133394112Y-92378566D01*
X133339836Y-92457655D01*
X133271770Y-92523472D01*
X133192511Y-92574160D01*
X133104654Y-92607860D01*
X133010795Y-92622714D01*
X132913530Y-92616864D01*
X132817220Y-92590601D01*
X132728494Y-92545582D01*
X132653419Y-92484627D01*
X132593641Y-92409816D01*
X132550809Y-92323232D01*
X132526571Y-92226957D01*
X132522576Y-92123072D01*
X132532850Y-92045438D01*
X132560053Y-91962687D01*
X132605484Y-91887594D01*
X132671302Y-91815702D01*
X132715567Y-91777154D01*
X132773961Y-91737744D01*
X132834586Y-91712554D01*
X132903865Y-91699139D01*
X132988222Y-91695052D01*
X133034307Y-91695331D01*
G37*
%TD.AperFunction*%
X137895178Y-98989083D02*
X137896631Y-98990443D01*
X137904992Y-99001646D01*
X137910547Y-99018748D01*
X137913840Y-99045918D01*
X137915418Y-99087322D01*
X137915822Y-99147127D01*
X137915822Y-99286489D01*
X138179589Y-99286489D01*
X138255417Y-99286564D01*
X138322083Y-99286972D01*
X138371867Y-99287954D01*
X138407784Y-99289750D01*
X138432850Y-99292601D01*
X138450081Y-99296747D01*
X138462492Y-99302429D01*
X138473100Y-99309886D01*
X138475906Y-99312176D01*
X138498548Y-99343354D01*
X138500112Y-99377734D01*
X138480267Y-99410666D01*
X138472191Y-99417645D01*
X138461593Y-99423117D01*
X138445749Y-99427137D01*
X138421773Y-99429928D01*
X138386774Y-99431712D01*
X138337864Y-99432711D01*
X138272154Y-99433148D01*
X138186756Y-99433244D01*
X137915822Y-99433244D01*
X137915822Y-99579180D01*
X137915821Y-99590280D01*
X137915596Y-99646798D01*
X137914457Y-99685642D01*
X137911657Y-99711035D01*
X137906450Y-99727196D01*
X137898089Y-99738348D01*
X137885826Y-99748711D01*
X137855138Y-99764559D01*
X137821358Y-99761457D01*
X137788822Y-99735813D01*
X137785105Y-99730871D01*
X137780269Y-99720662D01*
X137776506Y-99705236D01*
X137773683Y-99682114D01*
X137771670Y-99648817D01*
X137770333Y-99602863D01*
X137769542Y-99541772D01*
X137769163Y-99463065D01*
X137769067Y-99364260D01*
X137769068Y-99344233D01*
X137769158Y-99250110D01*
X137769498Y-99175595D01*
X137770239Y-99118189D01*
X137771535Y-99075389D01*
X137773537Y-99044696D01*
X137776396Y-99023609D01*
X137780266Y-99009627D01*
X137785298Y-99000250D01*
X137791645Y-98992978D01*
X137824362Y-98974172D01*
X137861939Y-98972725D01*
X137895178Y-98989083D01*
%TA.AperFunction,EtchedComponent*%
G36*
X137895178Y-98989083D02*
G01*
X137896631Y-98990443D01*
X137904992Y-99001646D01*
X137910547Y-99018748D01*
X137913840Y-99045918D01*
X137915418Y-99087322D01*
X137915822Y-99147127D01*
X137915822Y-99286489D01*
X138179589Y-99286489D01*
X138255417Y-99286564D01*
X138322083Y-99286972D01*
X138371867Y-99287954D01*
X138407784Y-99289750D01*
X138432850Y-99292601D01*
X138450081Y-99296747D01*
X138462492Y-99302429D01*
X138473100Y-99309886D01*
X138475906Y-99312176D01*
X138498548Y-99343354D01*
X138500112Y-99377734D01*
X138480267Y-99410666D01*
X138472191Y-99417645D01*
X138461593Y-99423117D01*
X138445749Y-99427137D01*
X138421773Y-99429928D01*
X138386774Y-99431712D01*
X138337864Y-99432711D01*
X138272154Y-99433148D01*
X138186756Y-99433244D01*
X137915822Y-99433244D01*
X137915822Y-99579180D01*
X137915821Y-99590280D01*
X137915596Y-99646798D01*
X137914457Y-99685642D01*
X137911657Y-99711035D01*
X137906450Y-99727196D01*
X137898089Y-99738348D01*
X137885826Y-99748711D01*
X137855138Y-99764559D01*
X137821358Y-99761457D01*
X137788822Y-99735813D01*
X137785105Y-99730871D01*
X137780269Y-99720662D01*
X137776506Y-99705236D01*
X137773683Y-99682114D01*
X137771670Y-99648817D01*
X137770333Y-99602863D01*
X137769542Y-99541772D01*
X137769163Y-99463065D01*
X137769067Y-99364260D01*
X137769068Y-99344233D01*
X137769158Y-99250110D01*
X137769498Y-99175595D01*
X137770239Y-99118189D01*
X137771535Y-99075389D01*
X137773537Y-99044696D01*
X137776396Y-99023609D01*
X137780266Y-99009627D01*
X137785298Y-99000250D01*
X137791645Y-98992978D01*
X137824362Y-98974172D01*
X137861939Y-98972725D01*
X137895178Y-98989083D01*
G37*
%TD.AperFunction*%
X138177631Y-99996891D02*
X138294000Y-99997375D01*
X138308175Y-99997443D01*
X138369937Y-99998029D01*
X138413620Y-99999352D01*
X138443001Y-100001897D01*
X138461855Y-100006152D01*
X138473959Y-100012604D01*
X138483089Y-100021738D01*
X138500506Y-100055196D01*
X138497604Y-100090144D01*
X138473100Y-100121047D01*
X138459897Y-100130056D01*
X138441361Y-100137508D01*
X138415333Y-100141876D01*
X138376787Y-100143931D01*
X138320700Y-100144444D01*
X138198045Y-100144444D01*
X138198045Y-100641155D01*
X138332871Y-100641155D01*
X138368662Y-100641228D01*
X138414992Y-100641991D01*
X138445526Y-100644167D01*
X138464557Y-100648464D01*
X138476374Y-100655588D01*
X138485271Y-100666245D01*
X138500341Y-100698496D01*
X138497673Y-100733783D01*
X138473100Y-100764514D01*
X138466845Y-100769169D01*
X138456321Y-100775105D01*
X138442391Y-100779636D01*
X138422317Y-100782952D01*
X138393360Y-100785241D01*
X138352780Y-100786692D01*
X138297840Y-100787495D01*
X138225799Y-100787838D01*
X138133920Y-100787911D01*
X137824485Y-100787911D01*
X137796776Y-100760202D01*
X137774533Y-100728823D01*
X137771844Y-100695594D01*
X137791645Y-100663733D01*
X137801415Y-100655447D01*
X137817307Y-100648035D01*
X137841275Y-100643698D01*
X137878148Y-100641662D01*
X137932756Y-100641155D01*
X138051289Y-100641155D01*
X138051289Y-100144444D01*
X137935776Y-100144444D01*
X137884078Y-100144006D01*
X137849554Y-100142042D01*
X137826978Y-100137526D01*
X137811126Y-100129433D01*
X137796776Y-100116735D01*
X137774533Y-100085357D01*
X137771844Y-100052128D01*
X137791645Y-100020266D01*
X137797835Y-100014634D01*
X137806041Y-100009544D01*
X137817817Y-100005457D01*
X137835276Y-100002279D01*
X137860530Y-99999913D01*
X137895690Y-99998262D01*
X137942869Y-99997231D01*
X138004177Y-99996723D01*
X138081727Y-99996641D01*
X138177631Y-99996891D01*
%TA.AperFunction,EtchedComponent*%
G36*
X138177631Y-99996891D02*
G01*
X138294000Y-99997375D01*
X138308175Y-99997443D01*
X138369937Y-99998029D01*
X138413620Y-99999352D01*
X138443001Y-100001897D01*
X138461855Y-100006152D01*
X138473959Y-100012604D01*
X138483089Y-100021738D01*
X138500506Y-100055196D01*
X138497604Y-100090144D01*
X138473100Y-100121047D01*
X138459897Y-100130056D01*
X138441361Y-100137508D01*
X138415333Y-100141876D01*
X138376787Y-100143931D01*
X138320700Y-100144444D01*
X138198045Y-100144444D01*
X138198045Y-100641155D01*
X138332871Y-100641155D01*
X138368662Y-100641228D01*
X138414992Y-100641991D01*
X138445526Y-100644167D01*
X138464557Y-100648464D01*
X138476374Y-100655588D01*
X138485271Y-100666245D01*
X138500341Y-100698496D01*
X138497673Y-100733783D01*
X138473100Y-100764514D01*
X138466845Y-100769169D01*
X138456321Y-100775105D01*
X138442391Y-100779636D01*
X138422317Y-100782952D01*
X138393360Y-100785241D01*
X138352780Y-100786692D01*
X138297840Y-100787495D01*
X138225799Y-100787838D01*
X138133920Y-100787911D01*
X137824485Y-100787911D01*
X137796776Y-100760202D01*
X137774533Y-100728823D01*
X137771844Y-100695594D01*
X137791645Y-100663733D01*
X137801415Y-100655447D01*
X137817307Y-100648035D01*
X137841275Y-100643698D01*
X137878148Y-100641662D01*
X137932756Y-100641155D01*
X138051289Y-100641155D01*
X138051289Y-100144444D01*
X137935776Y-100144444D01*
X137884078Y-100144006D01*
X137849554Y-100142042D01*
X137826978Y-100137526D01*
X137811126Y-100129433D01*
X137796776Y-100116735D01*
X137774533Y-100085357D01*
X137771844Y-100052128D01*
X137791645Y-100020266D01*
X137797835Y-100014634D01*
X137806041Y-100009544D01*
X137817817Y-100005457D01*
X137835276Y-100002279D01*
X137860530Y-99999913D01*
X137895690Y-99998262D01*
X137942869Y-99997231D01*
X138004177Y-99996723D01*
X138081727Y-99996641D01*
X138177631Y-99996891D01*
G37*
%TD.AperFunction*%
X138195526Y-95312825D02*
X138274311Y-95313050D01*
X138335021Y-95313668D01*
X138356089Y-95314225D01*
X138380396Y-95314867D01*
X138413175Y-95316837D01*
X138436095Y-95319765D01*
X138451897Y-95323842D01*
X138463319Y-95329257D01*
X138473100Y-95336197D01*
X138502845Y-95359594D01*
X138502251Y-95525286D01*
X138501953Y-95560082D01*
X138498522Y-95658565D01*
X138490839Y-95739527D01*
X138478282Y-95806621D01*
X138460227Y-95863504D01*
X138436052Y-95913831D01*
X138434135Y-95917190D01*
X138397417Y-95975002D01*
X138360451Y-96017356D01*
X138316966Y-96050172D01*
X138260689Y-96079372D01*
X138251073Y-96083654D01*
X138187887Y-96106231D01*
X138132509Y-96113203D01*
X138077483Y-96104601D01*
X138015351Y-96080459D01*
X138013658Y-96079663D01*
X137944236Y-96039212D01*
X137887638Y-95988527D01*
X137843070Y-95925802D01*
X137809741Y-95849226D01*
X137786861Y-95756991D01*
X137773636Y-95647288D01*
X137769275Y-95518309D01*
X137769270Y-95514737D01*
X137769372Y-95470844D01*
X137915822Y-95470844D01*
X137916270Y-95558333D01*
X137918746Y-95625253D01*
X137929998Y-95717651D01*
X137949537Y-95796966D01*
X137976511Y-95858940D01*
X137997240Y-95889880D01*
X138027006Y-95918000D01*
X138069434Y-95941340D01*
X138085400Y-95948467D01*
X138117902Y-95960291D01*
X138142333Y-95962721D01*
X138167061Y-95957108D01*
X138182939Y-95951382D01*
X138242847Y-95918452D01*
X138288600Y-95871114D01*
X138321736Y-95807348D01*
X138343790Y-95725139D01*
X138344292Y-95722345D01*
X138350255Y-95676060D01*
X138354483Y-95619664D01*
X138356089Y-95564726D01*
X138356089Y-95470844D01*
X137915822Y-95470844D01*
X137769372Y-95470844D01*
X137769410Y-95454717D01*
X137770446Y-95412786D01*
X137773040Y-95384672D01*
X137777853Y-95366103D01*
X137785544Y-95352806D01*
X137796776Y-95340509D01*
X137824485Y-95312800D01*
X138133920Y-95312800D01*
X138195526Y-95312825D01*
%TA.AperFunction,EtchedComponent*%
G36*
X138195526Y-95312825D02*
G01*
X138274311Y-95313050D01*
X138335021Y-95313668D01*
X138356089Y-95314225D01*
X138380396Y-95314867D01*
X138413175Y-95316837D01*
X138436095Y-95319765D01*
X138451897Y-95323842D01*
X138463319Y-95329257D01*
X138473100Y-95336197D01*
X138502845Y-95359594D01*
X138502251Y-95525286D01*
X138501953Y-95560082D01*
X138498522Y-95658565D01*
X138490839Y-95739527D01*
X138478282Y-95806621D01*
X138460227Y-95863504D01*
X138436052Y-95913831D01*
X138434135Y-95917190D01*
X138397417Y-95975002D01*
X138360451Y-96017356D01*
X138316966Y-96050172D01*
X138260689Y-96079372D01*
X138251073Y-96083654D01*
X138187887Y-96106231D01*
X138132509Y-96113203D01*
X138077483Y-96104601D01*
X138015351Y-96080459D01*
X138013658Y-96079663D01*
X137944236Y-96039212D01*
X137887638Y-95988527D01*
X137843070Y-95925802D01*
X137809741Y-95849226D01*
X137786861Y-95756991D01*
X137773636Y-95647288D01*
X137769275Y-95518309D01*
X137769270Y-95514737D01*
X137769372Y-95470844D01*
X137915822Y-95470844D01*
X137916270Y-95558333D01*
X137918746Y-95625253D01*
X137929998Y-95717651D01*
X137949537Y-95796966D01*
X137976511Y-95858940D01*
X137997240Y-95889880D01*
X138027006Y-95918000D01*
X138069434Y-95941340D01*
X138085400Y-95948467D01*
X138117902Y-95960291D01*
X138142333Y-95962721D01*
X138167061Y-95957108D01*
X138182939Y-95951382D01*
X138242847Y-95918452D01*
X138288600Y-95871114D01*
X138321736Y-95807348D01*
X138343790Y-95725139D01*
X138344292Y-95722345D01*
X138350255Y-95676060D01*
X138354483Y-95619664D01*
X138356089Y-95564726D01*
X138356089Y-95470844D01*
X137915822Y-95470844D01*
X137769372Y-95470844D01*
X137769410Y-95454717D01*
X137770446Y-95412786D01*
X137773040Y-95384672D01*
X137777853Y-95366103D01*
X137785544Y-95352806D01*
X137796776Y-95340509D01*
X137824485Y-95312800D01*
X138133920Y-95312800D01*
X138195526Y-95312825D01*
G37*
%TD.AperFunction*%
X138135956Y-88223378D02*
X138211617Y-88223417D01*
X138289526Y-88223672D01*
X138349536Y-88224316D01*
X138394264Y-88225520D01*
X138426326Y-88227457D01*
X138448340Y-88230297D01*
X138462924Y-88234212D01*
X138472694Y-88239374D01*
X138480267Y-88245955D01*
X138486501Y-88252923D01*
X138493801Y-88265921D01*
X138498554Y-88285069D01*
X138501292Y-88314472D01*
X138502545Y-88358238D01*
X138502845Y-88420472D01*
X138502469Y-88469418D01*
X138498041Y-88576278D01*
X138487953Y-88665506D01*
X138471365Y-88740304D01*
X138447435Y-88803875D01*
X138415321Y-88859421D01*
X138374182Y-88910146D01*
X138368330Y-88916134D01*
X138319821Y-88953001D01*
X138259013Y-88984101D01*
X138194769Y-89005583D01*
X138135956Y-89013600D01*
X138114739Y-89012321D01*
X138057323Y-89000009D01*
X137997413Y-88977480D01*
X137943363Y-88948250D01*
X137903532Y-88915833D01*
X137886510Y-88896292D01*
X137847322Y-88841580D01*
X137817193Y-88781277D01*
X137795232Y-88712081D01*
X137780550Y-88630689D01*
X137772259Y-88533800D01*
X137770148Y-88446333D01*
X137915808Y-88446333D01*
X137915817Y-88449361D01*
X137917782Y-88500481D01*
X137922507Y-88560584D01*
X137929035Y-88617292D01*
X137938331Y-88667250D01*
X137964600Y-88742002D01*
X138003899Y-88799511D01*
X138056933Y-88841012D01*
X138108200Y-88862229D01*
X138156026Y-88863647D01*
X138206961Y-88845365D01*
X138252878Y-88815695D01*
X138295287Y-88768998D01*
X138325090Y-88707608D01*
X138344226Y-88628462D01*
X138344464Y-88626972D01*
X138350256Y-88578001D01*
X138354396Y-88519307D01*
X138356004Y-88463266D01*
X138356089Y-88370133D01*
X137915822Y-88370133D01*
X137915808Y-88446333D01*
X137770148Y-88446333D01*
X137769467Y-88418111D01*
X137769066Y-88378629D01*
X137768653Y-88332918D01*
X137770457Y-88297117D01*
X137776739Y-88270026D01*
X137789759Y-88250444D01*
X137811778Y-88237170D01*
X137845055Y-88229002D01*
X137891851Y-88224740D01*
X137915822Y-88224143D01*
X137954427Y-88223183D01*
X138035041Y-88223130D01*
X138135956Y-88223378D01*
%TA.AperFunction,EtchedComponent*%
G36*
X138135956Y-88223378D02*
G01*
X138211617Y-88223417D01*
X138289526Y-88223672D01*
X138349536Y-88224316D01*
X138394264Y-88225520D01*
X138426326Y-88227457D01*
X138448340Y-88230297D01*
X138462924Y-88234212D01*
X138472694Y-88239374D01*
X138480267Y-88245955D01*
X138486501Y-88252923D01*
X138493801Y-88265921D01*
X138498554Y-88285069D01*
X138501292Y-88314472D01*
X138502545Y-88358238D01*
X138502845Y-88420472D01*
X138502469Y-88469418D01*
X138498041Y-88576278D01*
X138487953Y-88665506D01*
X138471365Y-88740304D01*
X138447435Y-88803875D01*
X138415321Y-88859421D01*
X138374182Y-88910146D01*
X138368330Y-88916134D01*
X138319821Y-88953001D01*
X138259013Y-88984101D01*
X138194769Y-89005583D01*
X138135956Y-89013600D01*
X138114739Y-89012321D01*
X138057323Y-89000009D01*
X137997413Y-88977480D01*
X137943363Y-88948250D01*
X137903532Y-88915833D01*
X137886510Y-88896292D01*
X137847322Y-88841580D01*
X137817193Y-88781277D01*
X137795232Y-88712081D01*
X137780550Y-88630689D01*
X137772259Y-88533800D01*
X137770148Y-88446333D01*
X137915808Y-88446333D01*
X137915817Y-88449361D01*
X137917782Y-88500481D01*
X137922507Y-88560584D01*
X137929035Y-88617292D01*
X137938331Y-88667250D01*
X137964600Y-88742002D01*
X138003899Y-88799511D01*
X138056933Y-88841012D01*
X138108200Y-88862229D01*
X138156026Y-88863647D01*
X138206961Y-88845365D01*
X138252878Y-88815695D01*
X138295287Y-88768998D01*
X138325090Y-88707608D01*
X138344226Y-88628462D01*
X138344464Y-88626972D01*
X138350256Y-88578001D01*
X138354396Y-88519307D01*
X138356004Y-88463266D01*
X138356089Y-88370133D01*
X137915822Y-88370133D01*
X137915808Y-88446333D01*
X137770148Y-88446333D01*
X137769467Y-88418111D01*
X137769066Y-88378629D01*
X137768653Y-88332918D01*
X137770457Y-88297117D01*
X137776739Y-88270026D01*
X137789759Y-88250444D01*
X137811778Y-88237170D01*
X137845055Y-88229002D01*
X137891851Y-88224740D01*
X137915822Y-88224143D01*
X137954427Y-88223183D01*
X138035041Y-88223130D01*
X138135956Y-88223378D01*
G37*
%TD.AperFunction*%
X138194486Y-93111489D02*
X138273573Y-93111708D01*
X138334516Y-93112317D01*
X138380062Y-93113508D01*
X138412963Y-93115471D01*
X138435968Y-93118397D01*
X138451826Y-93122477D01*
X138463286Y-93127903D01*
X138473100Y-93134864D01*
X138497493Y-93165292D01*
X138500372Y-93200235D01*
X138481282Y-93237216D01*
X138477807Y-93241400D01*
X138469279Y-93249576D01*
X138457728Y-93255636D01*
X138439896Y-93260019D01*
X138412524Y-93263161D01*
X138372354Y-93265498D01*
X138316128Y-93267469D01*
X138240589Y-93269511D01*
X138021458Y-93275155D01*
X138262099Y-93540444D01*
X138328875Y-93614278D01*
X138386991Y-93679458D01*
X138431949Y-93731652D01*
X138464871Y-93772727D01*
X138486879Y-93804545D01*
X138499094Y-93828974D01*
X138502639Y-93847876D01*
X138498636Y-93863117D01*
X138488207Y-93876561D01*
X138472474Y-93890073D01*
X138463991Y-93896318D01*
X138453413Y-93901950D01*
X138439255Y-93906161D01*
X138418803Y-93909113D01*
X138389342Y-93910968D01*
X138348161Y-93911887D01*
X138292544Y-93912032D01*
X138219779Y-93911565D01*
X138127151Y-93910648D01*
X137812199Y-93907333D01*
X137790633Y-93880682D01*
X137774441Y-93854617D01*
X137771670Y-93821759D01*
X137790623Y-93787228D01*
X137794208Y-93782916D01*
X137802737Y-93774784D01*
X137814329Y-93768755D01*
X137832235Y-93764394D01*
X137859706Y-93761266D01*
X137899994Y-93758937D01*
X137956351Y-93756971D01*
X138032029Y-93754933D01*
X138251878Y-93749289D01*
X138088084Y-93568666D01*
X138009451Y-93481928D01*
X137941058Y-93406157D01*
X137885708Y-93344020D01*
X137842338Y-93293922D01*
X137809881Y-93254265D01*
X137787273Y-93223452D01*
X137773448Y-93199886D01*
X137767343Y-93181970D01*
X137767892Y-93168107D01*
X137774029Y-93156699D01*
X137784691Y-93146150D01*
X137798811Y-93134864D01*
X137804772Y-93130411D01*
X137815268Y-93124412D01*
X137829093Y-93119833D01*
X137848998Y-93116481D01*
X137877732Y-93114167D01*
X137918045Y-93112699D01*
X137972687Y-93111887D01*
X138044407Y-93111540D01*
X138135956Y-93111466D01*
X138194486Y-93111489D01*
%TA.AperFunction,EtchedComponent*%
G36*
X138194486Y-93111489D02*
G01*
X138273573Y-93111708D01*
X138334516Y-93112317D01*
X138380062Y-93113508D01*
X138412963Y-93115471D01*
X138435968Y-93118397D01*
X138451826Y-93122477D01*
X138463286Y-93127903D01*
X138473100Y-93134864D01*
X138497493Y-93165292D01*
X138500372Y-93200235D01*
X138481282Y-93237216D01*
X138477807Y-93241400D01*
X138469279Y-93249576D01*
X138457728Y-93255636D01*
X138439896Y-93260019D01*
X138412524Y-93263161D01*
X138372354Y-93265498D01*
X138316128Y-93267469D01*
X138240589Y-93269511D01*
X138021458Y-93275155D01*
X138262099Y-93540444D01*
X138328875Y-93614278D01*
X138386991Y-93679458D01*
X138431949Y-93731652D01*
X138464871Y-93772727D01*
X138486879Y-93804545D01*
X138499094Y-93828974D01*
X138502639Y-93847876D01*
X138498636Y-93863117D01*
X138488207Y-93876561D01*
X138472474Y-93890073D01*
X138463991Y-93896318D01*
X138453413Y-93901950D01*
X138439255Y-93906161D01*
X138418803Y-93909113D01*
X138389342Y-93910968D01*
X138348161Y-93911887D01*
X138292544Y-93912032D01*
X138219779Y-93911565D01*
X138127151Y-93910648D01*
X137812199Y-93907333D01*
X137790633Y-93880682D01*
X137774441Y-93854617D01*
X137771670Y-93821759D01*
X137790623Y-93787228D01*
X137794208Y-93782916D01*
X137802737Y-93774784D01*
X137814329Y-93768755D01*
X137832235Y-93764394D01*
X137859706Y-93761266D01*
X137899994Y-93758937D01*
X137956351Y-93756971D01*
X138032029Y-93754933D01*
X138251878Y-93749289D01*
X138088084Y-93568666D01*
X138009451Y-93481928D01*
X137941058Y-93406157D01*
X137885708Y-93344020D01*
X137842338Y-93293922D01*
X137809881Y-93254265D01*
X137787273Y-93223452D01*
X137773448Y-93199886D01*
X137767343Y-93181970D01*
X137767892Y-93168107D01*
X137774029Y-93156699D01*
X137784691Y-93146150D01*
X137798811Y-93134864D01*
X137804772Y-93130411D01*
X137815268Y-93124412D01*
X137829093Y-93119833D01*
X137848998Y-93116481D01*
X137877732Y-93114167D01*
X137918045Y-93112699D01*
X137972687Y-93111887D01*
X138044407Y-93111540D01*
X138135956Y-93111466D01*
X138194486Y-93111489D01*
G37*
%TD.AperFunction*%
X138154259Y-91927702D02*
X138205592Y-91940643D01*
X138262118Y-91963806D01*
X138316035Y-91993698D01*
X138359539Y-92026827D01*
X138369887Y-92037023D01*
X138421662Y-92104108D01*
X138461554Y-92184234D01*
X138485956Y-92270444D01*
X138494068Y-92325408D01*
X138500673Y-92418861D01*
X138498586Y-92508642D01*
X138488340Y-92591131D01*
X138470470Y-92662714D01*
X138445508Y-92719772D01*
X138413988Y-92758689D01*
X138412012Y-92760064D01*
X138386786Y-92767152D01*
X138339535Y-92771391D01*
X138270071Y-92772800D01*
X138207838Y-92771940D01*
X138160456Y-92767220D01*
X138128353Y-92755530D01*
X138108800Y-92733761D01*
X138099070Y-92698802D01*
X138096433Y-92647544D01*
X138098161Y-92576877D01*
X138101173Y-92528257D01*
X138109366Y-92478061D01*
X138123419Y-92445567D01*
X138144654Y-92428108D01*
X138174394Y-92423017D01*
X138178936Y-92423123D01*
X138213730Y-92431825D01*
X138237147Y-92455835D01*
X138250347Y-92497100D01*
X138254489Y-92557569D01*
X138254489Y-92626044D01*
X138292841Y-92626044D01*
X138301976Y-92625994D01*
X138319227Y-92623773D01*
X138329521Y-92614506D01*
X138336459Y-92593125D01*
X138343641Y-92554564D01*
X138344575Y-92549090D01*
X138354478Y-92452140D01*
X138351559Y-92362148D01*
X138336829Y-92281240D01*
X138311299Y-92211541D01*
X138275978Y-92155176D01*
X138231879Y-92114271D01*
X138180012Y-92090949D01*
X138121388Y-92087337D01*
X138092494Y-92092855D01*
X138036604Y-92119539D01*
X137990945Y-92165727D01*
X137956108Y-92230709D01*
X137932690Y-92313771D01*
X137928241Y-92338445D01*
X137917742Y-92427774D01*
X137918971Y-92507581D01*
X137931906Y-92585674D01*
X137938696Y-92620817D01*
X137939713Y-92666255D01*
X137927182Y-92697570D01*
X137900395Y-92717723D01*
X137872148Y-92724107D01*
X137840924Y-92714621D01*
X137827499Y-92705292D01*
X137803967Y-92671057D01*
X137786095Y-92618435D01*
X137774599Y-92549919D01*
X137770192Y-92468000D01*
X137774179Y-92370850D01*
X137790494Y-92264843D01*
X137818545Y-92171031D01*
X137857452Y-92092235D01*
X137906334Y-92031281D01*
X137939195Y-92005211D01*
X137988394Y-91975703D01*
X138042252Y-91950432D01*
X138093419Y-91932782D01*
X138134544Y-91926142D01*
X138154259Y-91927702D01*
%TA.AperFunction,EtchedComponent*%
G36*
X138154259Y-91927702D02*
G01*
X138205592Y-91940643D01*
X138262118Y-91963806D01*
X138316035Y-91993698D01*
X138359539Y-92026827D01*
X138369887Y-92037023D01*
X138421662Y-92104108D01*
X138461554Y-92184234D01*
X138485956Y-92270444D01*
X138494068Y-92325408D01*
X138500673Y-92418861D01*
X138498586Y-92508642D01*
X138488340Y-92591131D01*
X138470470Y-92662714D01*
X138445508Y-92719772D01*
X138413988Y-92758689D01*
X138412012Y-92760064D01*
X138386786Y-92767152D01*
X138339535Y-92771391D01*
X138270071Y-92772800D01*
X138207838Y-92771940D01*
X138160456Y-92767220D01*
X138128353Y-92755530D01*
X138108800Y-92733761D01*
X138099070Y-92698802D01*
X138096433Y-92647544D01*
X138098161Y-92576877D01*
X138101173Y-92528257D01*
X138109366Y-92478061D01*
X138123419Y-92445567D01*
X138144654Y-92428108D01*
X138174394Y-92423017D01*
X138178936Y-92423123D01*
X138213730Y-92431825D01*
X138237147Y-92455835D01*
X138250347Y-92497100D01*
X138254489Y-92557569D01*
X138254489Y-92626044D01*
X138292841Y-92626044D01*
X138301976Y-92625994D01*
X138319227Y-92623773D01*
X138329521Y-92614506D01*
X138336459Y-92593125D01*
X138343641Y-92554564D01*
X138344575Y-92549090D01*
X138354478Y-92452140D01*
X138351559Y-92362148D01*
X138336829Y-92281240D01*
X138311299Y-92211541D01*
X138275978Y-92155176D01*
X138231879Y-92114271D01*
X138180012Y-92090949D01*
X138121388Y-92087337D01*
X138092494Y-92092855D01*
X138036604Y-92119539D01*
X137990945Y-92165727D01*
X137956108Y-92230709D01*
X137932690Y-92313771D01*
X137928241Y-92338445D01*
X137917742Y-92427774D01*
X137918971Y-92507581D01*
X137931906Y-92585674D01*
X137938696Y-92620817D01*
X137939713Y-92666255D01*
X137927182Y-92697570D01*
X137900395Y-92717723D01*
X137872148Y-92724107D01*
X137840924Y-92714621D01*
X137827499Y-92705292D01*
X137803967Y-92671057D01*
X137786095Y-92618435D01*
X137774599Y-92549919D01*
X137770192Y-92468000D01*
X137774179Y-92370850D01*
X137790494Y-92264843D01*
X137818545Y-92171031D01*
X137857452Y-92092235D01*
X137906334Y-92031281D01*
X137939195Y-92005211D01*
X137988394Y-91975703D01*
X138042252Y-91950432D01*
X138093419Y-91932782D01*
X138134544Y-91926142D01*
X138154259Y-91927702D01*
G37*
%TD.AperFunction*%
X138206911Y-94296829D02*
X138285228Y-94297061D01*
X138345496Y-94297681D01*
X138390393Y-94298874D01*
X138422602Y-94300821D01*
X138444800Y-94303706D01*
X138459669Y-94307712D01*
X138469889Y-94313021D01*
X138478138Y-94319817D01*
X138482795Y-94324332D01*
X138489282Y-94332562D01*
X138494194Y-94343922D01*
X138497749Y-94361190D01*
X138500167Y-94387145D01*
X138501667Y-94424564D01*
X138502467Y-94476227D01*
X138502787Y-94544911D01*
X138502845Y-94633394D01*
X138502838Y-94653069D01*
X138502572Y-94740094D01*
X138501806Y-94807746D01*
X138500392Y-94858701D01*
X138498180Y-94895633D01*
X138495022Y-94921217D01*
X138490769Y-94938129D01*
X138485271Y-94949043D01*
X138475285Y-94959536D01*
X138444168Y-94972797D01*
X138408280Y-94971614D01*
X138376733Y-94955450D01*
X138374457Y-94953261D01*
X138368189Y-94944573D01*
X138363523Y-94931231D01*
X138360227Y-94910248D01*
X138358068Y-94878637D01*
X138356814Y-94833410D01*
X138356231Y-94771580D01*
X138356089Y-94690161D01*
X138356089Y-94443555D01*
X138198045Y-94443555D01*
X138198045Y-94605994D01*
X138197964Y-94641662D01*
X138197167Y-94697432D01*
X138195162Y-94736570D01*
X138191521Y-94763024D01*
X138185812Y-94780741D01*
X138177607Y-94793671D01*
X138174423Y-94797314D01*
X138143448Y-94815722D01*
X138107112Y-94816356D01*
X138073493Y-94798817D01*
X138073424Y-94798755D01*
X138064798Y-94789084D01*
X138058742Y-94775791D01*
X138054811Y-94755083D01*
X138052556Y-94723172D01*
X138051531Y-94676266D01*
X138051289Y-94610576D01*
X138051289Y-94442429D01*
X137986378Y-94445814D01*
X137921467Y-94449200D01*
X137918414Y-94691277D01*
X137918086Y-94716293D01*
X137916606Y-94797913D01*
X137914222Y-94860232D01*
X137910227Y-94905846D01*
X137903913Y-94937348D01*
X137894574Y-94957333D01*
X137881503Y-94968396D01*
X137863992Y-94973131D01*
X137841335Y-94974133D01*
X137838970Y-94974127D01*
X137818939Y-94972973D01*
X137803146Y-94968176D01*
X137791090Y-94957368D01*
X137782267Y-94938183D01*
X137776175Y-94908255D01*
X137772311Y-94865217D01*
X137770174Y-94806701D01*
X137769260Y-94730343D01*
X137769067Y-94633774D01*
X137769067Y-94343594D01*
X137798811Y-94320197D01*
X137805495Y-94315248D01*
X137816066Y-94309404D01*
X137830153Y-94304943D01*
X137850478Y-94301679D01*
X137879765Y-94299426D01*
X137920737Y-94297998D01*
X137976117Y-94297208D01*
X138048628Y-94296871D01*
X138140994Y-94296800D01*
X138206911Y-94296829D01*
%TA.AperFunction,EtchedComponent*%
G36*
X138206911Y-94296829D02*
G01*
X138285228Y-94297061D01*
X138345496Y-94297681D01*
X138390393Y-94298874D01*
X138422602Y-94300821D01*
X138444800Y-94303706D01*
X138459669Y-94307712D01*
X138469889Y-94313021D01*
X138478138Y-94319817D01*
X138482795Y-94324332D01*
X138489282Y-94332562D01*
X138494194Y-94343922D01*
X138497749Y-94361190D01*
X138500167Y-94387145D01*
X138501667Y-94424564D01*
X138502467Y-94476227D01*
X138502787Y-94544911D01*
X138502845Y-94633394D01*
X138502838Y-94653069D01*
X138502572Y-94740094D01*
X138501806Y-94807746D01*
X138500392Y-94858701D01*
X138498180Y-94895633D01*
X138495022Y-94921217D01*
X138490769Y-94938129D01*
X138485271Y-94949043D01*
X138475285Y-94959536D01*
X138444168Y-94972797D01*
X138408280Y-94971614D01*
X138376733Y-94955450D01*
X138374457Y-94953261D01*
X138368189Y-94944573D01*
X138363523Y-94931231D01*
X138360227Y-94910248D01*
X138358068Y-94878637D01*
X138356814Y-94833410D01*
X138356231Y-94771580D01*
X138356089Y-94690161D01*
X138356089Y-94443555D01*
X138198045Y-94443555D01*
X138198045Y-94605994D01*
X138197964Y-94641662D01*
X138197167Y-94697432D01*
X138195162Y-94736570D01*
X138191521Y-94763024D01*
X138185812Y-94780741D01*
X138177607Y-94793671D01*
X138174423Y-94797314D01*
X138143448Y-94815722D01*
X138107112Y-94816356D01*
X138073493Y-94798817D01*
X138073424Y-94798755D01*
X138064798Y-94789084D01*
X138058742Y-94775791D01*
X138054811Y-94755083D01*
X138052556Y-94723172D01*
X138051531Y-94676266D01*
X138051289Y-94610576D01*
X138051289Y-94442429D01*
X137986378Y-94445814D01*
X137921467Y-94449200D01*
X137918414Y-94691277D01*
X137918086Y-94716293D01*
X137916606Y-94797913D01*
X137914222Y-94860232D01*
X137910227Y-94905846D01*
X137903913Y-94937348D01*
X137894574Y-94957333D01*
X137881503Y-94968396D01*
X137863992Y-94973131D01*
X137841335Y-94974133D01*
X137838970Y-94974127D01*
X137818939Y-94972973D01*
X137803146Y-94968176D01*
X137791090Y-94957368D01*
X137782267Y-94938183D01*
X137776175Y-94908255D01*
X137772311Y-94865217D01*
X137770174Y-94806701D01*
X137769260Y-94730343D01*
X137769067Y-94633774D01*
X137769067Y-94343594D01*
X137798811Y-94320197D01*
X137805495Y-94315248D01*
X137816066Y-94309404D01*
X137830153Y-94304943D01*
X137850478Y-94301679D01*
X137879765Y-94299426D01*
X137920737Y-94297998D01*
X137976117Y-94297208D01*
X138048628Y-94296871D01*
X138140994Y-94296800D01*
X138206911Y-94296829D01*
G37*
%TD.AperFunction*%
X138210713Y-89352303D02*
X138288889Y-89352552D01*
X138349103Y-89353188D01*
X138393982Y-89354385D01*
X138426152Y-89356316D01*
X138448239Y-89359154D01*
X138462870Y-89363073D01*
X138472670Y-89368245D01*
X138480267Y-89374844D01*
X138483444Y-89378178D01*
X138489554Y-89386700D01*
X138494229Y-89398702D01*
X138497659Y-89416913D01*
X138500036Y-89444060D01*
X138501552Y-89482871D01*
X138502398Y-89536076D01*
X138502765Y-89606402D01*
X138502845Y-89696578D01*
X138502833Y-89738686D01*
X138502651Y-89819833D01*
X138502098Y-89882325D01*
X138500982Y-89928891D01*
X138499113Y-89962259D01*
X138496298Y-89985156D01*
X138492346Y-90000312D01*
X138487066Y-90010454D01*
X138480267Y-90018311D01*
X138458667Y-90033037D01*
X138429467Y-90040889D01*
X138405560Y-90035390D01*
X138378667Y-90018311D01*
X138374059Y-90013332D01*
X138367772Y-90003557D01*
X138363146Y-89989441D01*
X138359930Y-89967946D01*
X138357870Y-89936032D01*
X138356712Y-89890658D01*
X138356202Y-89828787D01*
X138356089Y-89747378D01*
X138356089Y-89499022D01*
X138198045Y-89499022D01*
X138198045Y-89660199D01*
X138197899Y-89696017D01*
X138196176Y-89761641D01*
X138191741Y-89808882D01*
X138183637Y-89840617D01*
X138170906Y-89859723D01*
X138152592Y-89869077D01*
X138127738Y-89871555D01*
X138107482Y-89870758D01*
X138085656Y-89865506D01*
X138070304Y-89852712D01*
X138060309Y-89829372D01*
X138054553Y-89792483D01*
X138051919Y-89739041D01*
X138051289Y-89666042D01*
X138051289Y-89497895D01*
X137986378Y-89501281D01*
X137921467Y-89504666D01*
X137918418Y-89752383D01*
X137917539Y-89814974D01*
X137916095Y-89883435D01*
X137914164Y-89934339D01*
X137911514Y-89970592D01*
X137907910Y-89995099D01*
X137903121Y-90010765D01*
X137896913Y-90020494D01*
X137890510Y-90026509D01*
X137858828Y-90039518D01*
X137823142Y-90035957D01*
X137792084Y-90016182D01*
X137789161Y-90012931D01*
X137782810Y-90003951D01*
X137777957Y-89991847D01*
X137774403Y-89973841D01*
X137771946Y-89947153D01*
X137770385Y-89909003D01*
X137769518Y-89856614D01*
X137769146Y-89787206D01*
X137769067Y-89697999D01*
X137769083Y-89643266D01*
X137769275Y-89566169D01*
X137769860Y-89507223D01*
X137771051Y-89463636D01*
X137773064Y-89432617D01*
X137776112Y-89411375D01*
X137780409Y-89397118D01*
X137786172Y-89387055D01*
X137793612Y-89378394D01*
X137795293Y-89376609D01*
X137802832Y-89369365D01*
X137811850Y-89363723D01*
X137824984Y-89359483D01*
X137844872Y-89356444D01*
X137874151Y-89354406D01*
X137915458Y-89353170D01*
X137971431Y-89352535D01*
X138044707Y-89352300D01*
X138137923Y-89352266D01*
X138210713Y-89352303D01*
%TA.AperFunction,EtchedComponent*%
G36*
X138210713Y-89352303D02*
G01*
X138288889Y-89352552D01*
X138349103Y-89353188D01*
X138393982Y-89354385D01*
X138426152Y-89356316D01*
X138448239Y-89359154D01*
X138462870Y-89363073D01*
X138472670Y-89368245D01*
X138480267Y-89374844D01*
X138483444Y-89378178D01*
X138489554Y-89386700D01*
X138494229Y-89398702D01*
X138497659Y-89416913D01*
X138500036Y-89444060D01*
X138501552Y-89482871D01*
X138502398Y-89536076D01*
X138502765Y-89606402D01*
X138502845Y-89696578D01*
X138502833Y-89738686D01*
X138502651Y-89819833D01*
X138502098Y-89882325D01*
X138500982Y-89928891D01*
X138499113Y-89962259D01*
X138496298Y-89985156D01*
X138492346Y-90000312D01*
X138487066Y-90010454D01*
X138480267Y-90018311D01*
X138458667Y-90033037D01*
X138429467Y-90040889D01*
X138405560Y-90035390D01*
X138378667Y-90018311D01*
X138374059Y-90013332D01*
X138367772Y-90003557D01*
X138363146Y-89989441D01*
X138359930Y-89967946D01*
X138357870Y-89936032D01*
X138356712Y-89890658D01*
X138356202Y-89828787D01*
X138356089Y-89747378D01*
X138356089Y-89499022D01*
X138198045Y-89499022D01*
X138198045Y-89660199D01*
X138197899Y-89696017D01*
X138196176Y-89761641D01*
X138191741Y-89808882D01*
X138183637Y-89840617D01*
X138170906Y-89859723D01*
X138152592Y-89869077D01*
X138127738Y-89871555D01*
X138107482Y-89870758D01*
X138085656Y-89865506D01*
X138070304Y-89852712D01*
X138060309Y-89829372D01*
X138054553Y-89792483D01*
X138051919Y-89739041D01*
X138051289Y-89666042D01*
X138051289Y-89497895D01*
X137986378Y-89501281D01*
X137921467Y-89504666D01*
X137918418Y-89752383D01*
X137917539Y-89814974D01*
X137916095Y-89883435D01*
X137914164Y-89934339D01*
X137911514Y-89970592D01*
X137907910Y-89995099D01*
X137903121Y-90010765D01*
X137896913Y-90020494D01*
X137890510Y-90026509D01*
X137858828Y-90039518D01*
X137823142Y-90035957D01*
X137792084Y-90016182D01*
X137789161Y-90012931D01*
X137782810Y-90003951D01*
X137777957Y-89991847D01*
X137774403Y-89973841D01*
X137771946Y-89947153D01*
X137770385Y-89909003D01*
X137769518Y-89856614D01*
X137769146Y-89787206D01*
X137769067Y-89697999D01*
X137769083Y-89643266D01*
X137769275Y-89566169D01*
X137769860Y-89507223D01*
X137771051Y-89463636D01*
X137773064Y-89432617D01*
X137776112Y-89411375D01*
X137780409Y-89397118D01*
X137786172Y-89387055D01*
X137793612Y-89378394D01*
X137795293Y-89376609D01*
X137802832Y-89369365D01*
X137811850Y-89363723D01*
X137824984Y-89359483D01*
X137844872Y-89356444D01*
X137874151Y-89354406D01*
X137915458Y-89353170D01*
X137971431Y-89352535D01*
X138044707Y-89352300D01*
X138137923Y-89352266D01*
X138210713Y-89352303D01*
G37*
%TD.AperFunction*%
X137851915Y-97204772D02*
X137886481Y-97217636D01*
X137934826Y-97237395D01*
X137993825Y-97262619D01*
X138060355Y-97291881D01*
X138131291Y-97323750D01*
X138203507Y-97356799D01*
X138273880Y-97389599D01*
X138339285Y-97420720D01*
X138396597Y-97448735D01*
X138442692Y-97472214D01*
X138474446Y-97489728D01*
X138488733Y-97499849D01*
X138502102Y-97534257D01*
X138495741Y-97575954D01*
X138491044Y-97581319D01*
X138468893Y-97597148D01*
X138432132Y-97619350D01*
X138384415Y-97645767D01*
X138329393Y-97674240D01*
X138170150Y-97754014D01*
X138316742Y-97827201D01*
X138336032Y-97836897D01*
X138388380Y-97863875D01*
X138433170Y-97887904D01*
X138466154Y-97906668D01*
X138483089Y-97917854D01*
X138484332Y-97919000D01*
X138499619Y-97947121D01*
X138501302Y-97982183D01*
X138488733Y-98013224D01*
X138485884Y-98015650D01*
X138465259Y-98027910D01*
X138427708Y-98047648D01*
X138375880Y-98073552D01*
X138312423Y-98104315D01*
X138239985Y-98138625D01*
X138161216Y-98175175D01*
X138117093Y-98195415D01*
X138036365Y-98232188D01*
X137972687Y-98260645D01*
X137923752Y-98281669D01*
X137887257Y-98296146D01*
X137860895Y-98304961D01*
X137842361Y-98308996D01*
X137829352Y-98309138D01*
X137819561Y-98306270D01*
X137798678Y-98291613D01*
X137778377Y-98265010D01*
X137778035Y-98264255D01*
X137771034Y-98244665D01*
X137770504Y-98227210D01*
X137778478Y-98210298D01*
X137796989Y-98192337D01*
X137828071Y-98171737D01*
X137873756Y-98146905D01*
X137936078Y-98116250D01*
X138017071Y-98078180D01*
X138048454Y-98063546D01*
X138111638Y-98033797D01*
X138166244Y-98007703D01*
X138209290Y-97986708D01*
X138237793Y-97972261D01*
X138248770Y-97965809D01*
X138248189Y-97964450D01*
X138234242Y-97954458D01*
X138204704Y-97937167D01*
X138163087Y-97914570D01*
X138112903Y-97888662D01*
X138081414Y-97872689D01*
X138026061Y-97843739D01*
X137987044Y-97821251D01*
X137961566Y-97803035D01*
X137946831Y-97786904D01*
X137940042Y-97770670D01*
X137938400Y-97752143D01*
X137938875Y-97741640D01*
X137943082Y-97725524D01*
X137953946Y-97710210D01*
X137974219Y-97693612D01*
X138006654Y-97673643D01*
X138054004Y-97648217D01*
X138119022Y-97615248D01*
X138138277Y-97605515D01*
X138184946Y-97581057D01*
X138221109Y-97560822D01*
X138243497Y-97546689D01*
X138248845Y-97540540D01*
X138245573Y-97539173D01*
X138224664Y-97529798D01*
X138187725Y-97512938D01*
X138137874Y-97490021D01*
X138078226Y-97462480D01*
X138011898Y-97431745D01*
X137954677Y-97405030D01*
X137892688Y-97375407D01*
X137846949Y-97352336D01*
X137814908Y-97334357D01*
X137794014Y-97320010D01*
X137781718Y-97307834D01*
X137775466Y-97296368D01*
X137772574Y-97286958D01*
X137772425Y-97261853D01*
X137787768Y-97234710D01*
X137788753Y-97233410D01*
X137811388Y-97211326D01*
X137833613Y-97200277D01*
X137834253Y-97200231D01*
X137851915Y-97204772D01*
%TA.AperFunction,EtchedComponent*%
G36*
X137851915Y-97204772D02*
G01*
X137886481Y-97217636D01*
X137934826Y-97237395D01*
X137993825Y-97262619D01*
X138060355Y-97291881D01*
X138131291Y-97323750D01*
X138203507Y-97356799D01*
X138273880Y-97389599D01*
X138339285Y-97420720D01*
X138396597Y-97448735D01*
X138442692Y-97472214D01*
X138474446Y-97489728D01*
X138488733Y-97499849D01*
X138502102Y-97534257D01*
X138495741Y-97575954D01*
X138491044Y-97581319D01*
X138468893Y-97597148D01*
X138432132Y-97619350D01*
X138384415Y-97645767D01*
X138329393Y-97674240D01*
X138170150Y-97754014D01*
X138316742Y-97827201D01*
X138336032Y-97836897D01*
X138388380Y-97863875D01*
X138433170Y-97887904D01*
X138466154Y-97906668D01*
X138483089Y-97917854D01*
X138484332Y-97919000D01*
X138499619Y-97947121D01*
X138501302Y-97982183D01*
X138488733Y-98013224D01*
X138485884Y-98015650D01*
X138465259Y-98027910D01*
X138427708Y-98047648D01*
X138375880Y-98073552D01*
X138312423Y-98104315D01*
X138239985Y-98138625D01*
X138161216Y-98175175D01*
X138117093Y-98195415D01*
X138036365Y-98232188D01*
X137972687Y-98260645D01*
X137923752Y-98281669D01*
X137887257Y-98296146D01*
X137860895Y-98304961D01*
X137842361Y-98308996D01*
X137829352Y-98309138D01*
X137819561Y-98306270D01*
X137798678Y-98291613D01*
X137778377Y-98265010D01*
X137778035Y-98264255D01*
X137771034Y-98244665D01*
X137770504Y-98227210D01*
X137778478Y-98210298D01*
X137796989Y-98192337D01*
X137828071Y-98171737D01*
X137873756Y-98146905D01*
X137936078Y-98116250D01*
X138017071Y-98078180D01*
X138048454Y-98063546D01*
X138111638Y-98033797D01*
X138166244Y-98007703D01*
X138209290Y-97986708D01*
X138237793Y-97972261D01*
X138248770Y-97965809D01*
X138248189Y-97964450D01*
X138234242Y-97954458D01*
X138204704Y-97937167D01*
X138163087Y-97914570D01*
X138112903Y-97888662D01*
X138081414Y-97872689D01*
X138026061Y-97843739D01*
X137987044Y-97821251D01*
X137961566Y-97803035D01*
X137946831Y-97786904D01*
X137940042Y-97770670D01*
X137938400Y-97752143D01*
X137938875Y-97741640D01*
X137943082Y-97725524D01*
X137953946Y-97710210D01*
X137974219Y-97693612D01*
X138006654Y-97673643D01*
X138054004Y-97648217D01*
X138119022Y-97615248D01*
X138138277Y-97605515D01*
X138184946Y-97581057D01*
X138221109Y-97560822D01*
X138243497Y-97546689D01*
X138248845Y-97540540D01*
X138245573Y-97539173D01*
X138224664Y-97529798D01*
X138187725Y-97512938D01*
X138137874Y-97490021D01*
X138078226Y-97462480D01*
X138011898Y-97431745D01*
X137954677Y-97405030D01*
X137892688Y-97375407D01*
X137846949Y-97352336D01*
X137814908Y-97334357D01*
X137794014Y-97320010D01*
X137781718Y-97307834D01*
X137775466Y-97296368D01*
X137772574Y-97286958D01*
X137772425Y-97261853D01*
X137787768Y-97234710D01*
X137788753Y-97233410D01*
X137811388Y-97211326D01*
X137833613Y-97200277D01*
X137834253Y-97200231D01*
X137851915Y-97204772D01*
G37*
%TD.AperFunction*%
X138020232Y-90324048D02*
X138045029Y-90329840D01*
X138066699Y-90344647D01*
X138094049Y-90372620D01*
X138101378Y-90380598D01*
X138122281Y-90404308D01*
X138139251Y-90426702D01*
X138153205Y-90450735D01*
X138165056Y-90479363D01*
X138175720Y-90515540D01*
X138186111Y-90562220D01*
X138197146Y-90622359D01*
X138209738Y-90698910D01*
X138224804Y-90794829D01*
X138227838Y-90813192D01*
X138241458Y-90875522D01*
X138257192Y-90920740D01*
X138274263Y-90947024D01*
X138291897Y-90952553D01*
X138296168Y-90949932D01*
X138311233Y-90932000D01*
X138327867Y-90903874D01*
X138333857Y-90891074D01*
X138341050Y-90869776D01*
X138345827Y-90843390D01*
X138348646Y-90807546D01*
X138349964Y-90757872D01*
X138350237Y-90690000D01*
X138350164Y-90672215D01*
X138349053Y-90604594D01*
X138346828Y-90539655D01*
X138343762Y-90484030D01*
X138340127Y-90444349D01*
X138336059Y-90408838D01*
X138335276Y-90379585D01*
X138339876Y-90360685D01*
X138350551Y-90345571D01*
X138354144Y-90341915D01*
X138385918Y-90325573D01*
X138421572Y-90326893D01*
X138452190Y-90345850D01*
X138463796Y-90366220D01*
X138476491Y-90402204D01*
X138486541Y-90444628D01*
X138487140Y-90448078D01*
X138492356Y-90490748D01*
X138496730Y-90548134D01*
X138499818Y-90613151D01*
X138501177Y-90678711D01*
X138501218Y-90694943D01*
X138498741Y-90793256D01*
X138490735Y-90873308D01*
X138476203Y-90938487D01*
X138454149Y-90992183D01*
X138423576Y-91037784D01*
X138383486Y-91078677D01*
X138357259Y-91098798D01*
X138327712Y-91110424D01*
X138287995Y-91113333D01*
X138276026Y-91113192D01*
X138243345Y-91109319D01*
X138216819Y-91096935D01*
X138185971Y-91071770D01*
X138163831Y-91050558D01*
X138141285Y-91024162D01*
X138122917Y-90994445D01*
X138107661Y-90958215D01*
X138094449Y-90912283D01*
X138082214Y-90853456D01*
X138069889Y-90778544D01*
X138056406Y-90684355D01*
X138049396Y-90639043D01*
X138034837Y-90571089D01*
X138018337Y-90521953D01*
X138000439Y-90492386D01*
X137981685Y-90483136D01*
X137962615Y-90494952D01*
X137943771Y-90528584D01*
X137942557Y-90531630D01*
X137930479Y-90577989D01*
X137922279Y-90640639D01*
X137918119Y-90714073D01*
X137918161Y-90792783D01*
X137922569Y-90871261D01*
X137931505Y-90944000D01*
X137932154Y-90947927D01*
X137939861Y-90996743D01*
X137943473Y-91028995D01*
X137942876Y-91049992D01*
X137937954Y-91065046D01*
X137928596Y-91079466D01*
X137927725Y-91080636D01*
X137897351Y-91105153D01*
X137861850Y-91109946D01*
X137827269Y-91094140D01*
X137822813Y-91089594D01*
X137807673Y-91059980D01*
X137794550Y-91012998D01*
X137783750Y-90952694D01*
X137775581Y-90883112D01*
X137770351Y-90808297D01*
X137768367Y-90732294D01*
X137769936Y-90659147D01*
X137775366Y-90592900D01*
X137784964Y-90537600D01*
X137799825Y-90486717D01*
X137832958Y-90415405D01*
X137875640Y-90364248D01*
X137927705Y-90333425D01*
X137988983Y-90323111D01*
X138020232Y-90324048D01*
%TA.AperFunction,EtchedComponent*%
G36*
X138020232Y-90324048D02*
G01*
X138045029Y-90329840D01*
X138066699Y-90344647D01*
X138094049Y-90372620D01*
X138101378Y-90380598D01*
X138122281Y-90404308D01*
X138139251Y-90426702D01*
X138153205Y-90450735D01*
X138165056Y-90479363D01*
X138175720Y-90515540D01*
X138186111Y-90562220D01*
X138197146Y-90622359D01*
X138209738Y-90698910D01*
X138224804Y-90794829D01*
X138227838Y-90813192D01*
X138241458Y-90875522D01*
X138257192Y-90920740D01*
X138274263Y-90947024D01*
X138291897Y-90952553D01*
X138296168Y-90949932D01*
X138311233Y-90932000D01*
X138327867Y-90903874D01*
X138333857Y-90891074D01*
X138341050Y-90869776D01*
X138345827Y-90843390D01*
X138348646Y-90807546D01*
X138349964Y-90757872D01*
X138350237Y-90690000D01*
X138350164Y-90672215D01*
X138349053Y-90604594D01*
X138346828Y-90539655D01*
X138343762Y-90484030D01*
X138340127Y-90444349D01*
X138336059Y-90408838D01*
X138335276Y-90379585D01*
X138339876Y-90360685D01*
X138350551Y-90345571D01*
X138354144Y-90341915D01*
X138385918Y-90325573D01*
X138421572Y-90326893D01*
X138452190Y-90345850D01*
X138463796Y-90366220D01*
X138476491Y-90402204D01*
X138486541Y-90444628D01*
X138487140Y-90448078D01*
X138492356Y-90490748D01*
X138496730Y-90548134D01*
X138499818Y-90613151D01*
X138501177Y-90678711D01*
X138501218Y-90694943D01*
X138498741Y-90793256D01*
X138490735Y-90873308D01*
X138476203Y-90938487D01*
X138454149Y-90992183D01*
X138423576Y-91037784D01*
X138383486Y-91078677D01*
X138357259Y-91098798D01*
X138327712Y-91110424D01*
X138287995Y-91113333D01*
X138276026Y-91113192D01*
X138243345Y-91109319D01*
X138216819Y-91096935D01*
X138185971Y-91071770D01*
X138163831Y-91050558D01*
X138141285Y-91024162D01*
X138122917Y-90994445D01*
X138107661Y-90958215D01*
X138094449Y-90912283D01*
X138082214Y-90853456D01*
X138069889Y-90778544D01*
X138056406Y-90684355D01*
X138049396Y-90639043D01*
X138034837Y-90571089D01*
X138018337Y-90521953D01*
X138000439Y-90492386D01*
X137981685Y-90483136D01*
X137962615Y-90494952D01*
X137943771Y-90528584D01*
X137942557Y-90531630D01*
X137930479Y-90577989D01*
X137922279Y-90640639D01*
X137918119Y-90714073D01*
X137918161Y-90792783D01*
X137922569Y-90871261D01*
X137931505Y-90944000D01*
X137932154Y-90947927D01*
X137939861Y-90996743D01*
X137943473Y-91028995D01*
X137942876Y-91049992D01*
X137937954Y-91065046D01*
X137928596Y-91079466D01*
X137927725Y-91080636D01*
X137897351Y-91105153D01*
X137861850Y-91109946D01*
X137827269Y-91094140D01*
X137822813Y-91089594D01*
X137807673Y-91059980D01*
X137794550Y-91012998D01*
X137783750Y-90952694D01*
X137775581Y-90883112D01*
X137770351Y-90808297D01*
X137768367Y-90732294D01*
X137769936Y-90659147D01*
X137775366Y-90592900D01*
X137784964Y-90537600D01*
X137799825Y-90486717D01*
X137832958Y-90415405D01*
X137875640Y-90364248D01*
X137927705Y-90333425D01*
X137988983Y-90323111D01*
X138020232Y-90324048D01*
G37*
%TD.AperFunction*%
X135321325Y-93182449D02*
X135522581Y-93199209D01*
X135717128Y-93232708D01*
X135900756Y-93282956D01*
X136018053Y-93326810D01*
X136180951Y-93404652D01*
X136334866Y-93498172D01*
X136476671Y-93605178D01*
X136603239Y-93723481D01*
X136711441Y-93850889D01*
X136764120Y-93928394D01*
X136833750Y-94055275D01*
X136892468Y-94192757D01*
X136937587Y-94334284D01*
X136966422Y-94473298D01*
X136968106Y-94487403D01*
X136971434Y-94530847D01*
X136974275Y-94588277D01*
X136976373Y-94653878D01*
X136977468Y-94721833D01*
X136975140Y-94848622D01*
X136962136Y-94996327D01*
X136937133Y-95134221D01*
X136899318Y-95267986D01*
X136890889Y-95291438D01*
X136871408Y-95339388D01*
X136846473Y-95395860D01*
X136817722Y-95457621D01*
X136786790Y-95521437D01*
X136755315Y-95584074D01*
X136724934Y-95642297D01*
X136697283Y-95692873D01*
X136673999Y-95732567D01*
X136656718Y-95758146D01*
X136647079Y-95766375D01*
X136643984Y-95764924D01*
X136624079Y-95753750D01*
X136588420Y-95732866D01*
X136539459Y-95703735D01*
X136479646Y-95667819D01*
X136411433Y-95626580D01*
X136337271Y-95581483D01*
X136040008Y-95400215D01*
X136084539Y-95353685D01*
X136162865Y-95262277D01*
X136237439Y-95148666D01*
X136291474Y-95030878D01*
X136324290Y-94910441D01*
X136335211Y-94788883D01*
X136333868Y-94747415D01*
X136315612Y-94629920D01*
X136276617Y-94519911D01*
X136217670Y-94418570D01*
X136139557Y-94327079D01*
X136043064Y-94246620D01*
X135928978Y-94178373D01*
X135894724Y-94162092D01*
X135771240Y-94116018D01*
X135632918Y-94080894D01*
X135483561Y-94056803D01*
X135326973Y-94043827D01*
X135166956Y-94042051D01*
X135007314Y-94051557D01*
X134851850Y-94072428D01*
X134704366Y-94104748D01*
X134568667Y-94148601D01*
X134482076Y-94186018D01*
X134368688Y-94250815D01*
X134275070Y-94326228D01*
X134200959Y-94412582D01*
X134146094Y-94510205D01*
X134110212Y-94619423D01*
X134093051Y-94740561D01*
X134091880Y-94809962D01*
X134106141Y-94932832D01*
X134141241Y-95048336D01*
X134196682Y-95155047D01*
X134271964Y-95251536D01*
X134286440Y-95267280D01*
X134312962Y-95297850D01*
X134330138Y-95320191D01*
X134334787Y-95330309D01*
X134332597Y-95332294D01*
X134313721Y-95346759D01*
X134280397Y-95370600D01*
X134235380Y-95401971D01*
X134181425Y-95439026D01*
X134121285Y-95479917D01*
X134057718Y-95522798D01*
X133993476Y-95565822D01*
X133931315Y-95607143D01*
X133873991Y-95644914D01*
X133824257Y-95677288D01*
X133784868Y-95702418D01*
X133758580Y-95718458D01*
X133748147Y-95723561D01*
X133743941Y-95718950D01*
X133738933Y-95699733D01*
X133736386Y-95690162D01*
X133725249Y-95662191D01*
X133706802Y-95620552D01*
X133682725Y-95569005D01*
X133654699Y-95511310D01*
X133649154Y-95500043D01*
X133569889Y-95322313D01*
X133510385Y-95152510D01*
X133470245Y-94988570D01*
X133449071Y-94828429D01*
X133446466Y-94670023D01*
X133462033Y-94511289D01*
X133479523Y-94415732D01*
X133524564Y-94251442D01*
X133587656Y-94097411D01*
X133669915Y-93951491D01*
X133772457Y-93811534D01*
X133896399Y-93675392D01*
X133941661Y-93631527D01*
X134073865Y-93519242D01*
X134211832Y-93426028D01*
X134359750Y-93349281D01*
X134521803Y-93286397D01*
X134533391Y-93282580D01*
X134719392Y-93232493D01*
X134915521Y-93199101D01*
X135117568Y-93182416D01*
X135321325Y-93182449D01*
%TA.AperFunction,EtchedComponent*%
G36*
X135321325Y-93182449D02*
G01*
X135522581Y-93199209D01*
X135717128Y-93232708D01*
X135900756Y-93282956D01*
X136018053Y-93326810D01*
X136180951Y-93404652D01*
X136334866Y-93498172D01*
X136476671Y-93605178D01*
X136603239Y-93723481D01*
X136711441Y-93850889D01*
X136764120Y-93928394D01*
X136833750Y-94055275D01*
X136892468Y-94192757D01*
X136937587Y-94334284D01*
X136966422Y-94473298D01*
X136968106Y-94487403D01*
X136971434Y-94530847D01*
X136974275Y-94588277D01*
X136976373Y-94653878D01*
X136977468Y-94721833D01*
X136975140Y-94848622D01*
X136962136Y-94996327D01*
X136937133Y-95134221D01*
X136899318Y-95267986D01*
X136890889Y-95291438D01*
X136871408Y-95339388D01*
X136846473Y-95395860D01*
X136817722Y-95457621D01*
X136786790Y-95521437D01*
X136755315Y-95584074D01*
X136724934Y-95642297D01*
X136697283Y-95692873D01*
X136673999Y-95732567D01*
X136656718Y-95758146D01*
X136647079Y-95766375D01*
X136643984Y-95764924D01*
X136624079Y-95753750D01*
X136588420Y-95732866D01*
X136539459Y-95703735D01*
X136479646Y-95667819D01*
X136411433Y-95626580D01*
X136337271Y-95581483D01*
X136040008Y-95400215D01*
X136084539Y-95353685D01*
X136162865Y-95262277D01*
X136237439Y-95148666D01*
X136291474Y-95030878D01*
X136324290Y-94910441D01*
X136335211Y-94788883D01*
X136333868Y-94747415D01*
X136315612Y-94629920D01*
X136276617Y-94519911D01*
X136217670Y-94418570D01*
X136139557Y-94327079D01*
X136043064Y-94246620D01*
X135928978Y-94178373D01*
X135894724Y-94162092D01*
X135771240Y-94116018D01*
X135632918Y-94080894D01*
X135483561Y-94056803D01*
X135326973Y-94043827D01*
X135166956Y-94042051D01*
X135007314Y-94051557D01*
X134851850Y-94072428D01*
X134704366Y-94104748D01*
X134568667Y-94148601D01*
X134482076Y-94186018D01*
X134368688Y-94250815D01*
X134275070Y-94326228D01*
X134200959Y-94412582D01*
X134146094Y-94510205D01*
X134110212Y-94619423D01*
X134093051Y-94740561D01*
X134091880Y-94809962D01*
X134106141Y-94932832D01*
X134141241Y-95048336D01*
X134196682Y-95155047D01*
X134271964Y-95251536D01*
X134286440Y-95267280D01*
X134312962Y-95297850D01*
X134330138Y-95320191D01*
X134334787Y-95330309D01*
X134332597Y-95332294D01*
X134313721Y-95346759D01*
X134280397Y-95370600D01*
X134235380Y-95401971D01*
X134181425Y-95439026D01*
X134121285Y-95479917D01*
X134057718Y-95522798D01*
X133993476Y-95565822D01*
X133931315Y-95607143D01*
X133873991Y-95644914D01*
X133824257Y-95677288D01*
X133784868Y-95702418D01*
X133758580Y-95718458D01*
X133748147Y-95723561D01*
X133743941Y-95718950D01*
X133738933Y-95699733D01*
X133736386Y-95690162D01*
X133725249Y-95662191D01*
X133706802Y-95620552D01*
X133682725Y-95569005D01*
X133654699Y-95511310D01*
X133649154Y-95500043D01*
X133569889Y-95322313D01*
X133510385Y-95152510D01*
X133470245Y-94988570D01*
X133449071Y-94828429D01*
X133446466Y-94670023D01*
X133462033Y-94511289D01*
X133479523Y-94415732D01*
X133524564Y-94251442D01*
X133587656Y-94097411D01*
X133669915Y-93951491D01*
X133772457Y-93811534D01*
X133896399Y-93675392D01*
X133941661Y-93631527D01*
X134073865Y-93519242D01*
X134211832Y-93426028D01*
X134359750Y-93349281D01*
X134521803Y-93286397D01*
X134533391Y-93282580D01*
X134719392Y-93232493D01*
X134915521Y-93199101D01*
X135117568Y-93182416D01*
X135321325Y-93182449D01*
G37*
%TD.AperFunction*%
X135820158Y-98314732D02*
X135971594Y-98323311D01*
X136108283Y-98342167D01*
X136234276Y-98372163D01*
X136353625Y-98414164D01*
X136470381Y-98469031D01*
X136581179Y-98535833D01*
X136694739Y-98626637D01*
X136790211Y-98730292D01*
X136867073Y-98846113D01*
X136924797Y-98973414D01*
X136962858Y-99111511D01*
X136968666Y-99149207D01*
X136974396Y-99228248D01*
X136974583Y-99316371D01*
X136969539Y-99405764D01*
X136959578Y-99488616D01*
X136945012Y-99557113D01*
X136935364Y-99587965D01*
X136905123Y-99665270D01*
X136867617Y-99742321D01*
X136826614Y-99811800D01*
X136785879Y-99866385D01*
X136766505Y-99889084D01*
X136748662Y-99911799D01*
X136741778Y-99923221D01*
X136743424Y-99924463D01*
X136761205Y-99927272D01*
X136794370Y-99929224D01*
X136837733Y-99929955D01*
X136933689Y-99929955D01*
X136933689Y-100788104D01*
X136872974Y-100753839D01*
X136863868Y-100748645D01*
X136849249Y-100740285D01*
X136835173Y-100732712D01*
X136820540Y-100725888D01*
X136804249Y-100719773D01*
X136785198Y-100714327D01*
X136762286Y-100709513D01*
X136734413Y-100705292D01*
X136700478Y-100701623D01*
X136659379Y-100698469D01*
X136610015Y-100695789D01*
X136551286Y-100693546D01*
X136482090Y-100691701D01*
X136401326Y-100690213D01*
X136307894Y-100689045D01*
X136200692Y-100688156D01*
X136078620Y-100687509D01*
X135940576Y-100687064D01*
X135785459Y-100686782D01*
X135612168Y-100686625D01*
X135419603Y-100686552D01*
X135206662Y-100686526D01*
X134972245Y-100686507D01*
X133287378Y-100686311D01*
X133287378Y-99780983D01*
X133324067Y-99805415D01*
X133333647Y-99811682D01*
X133379981Y-99837792D01*
X133427102Y-99855531D01*
X133482251Y-99867092D01*
X133552667Y-99874669D01*
X133559650Y-99875161D01*
X133597641Y-99876938D01*
X133651576Y-99878556D01*
X133718703Y-99880001D01*
X133796271Y-99881260D01*
X133881528Y-99882320D01*
X133971724Y-99883171D01*
X134064107Y-99883797D01*
X134155925Y-99884188D01*
X134244427Y-99884330D01*
X134326862Y-99884210D01*
X134400479Y-99883817D01*
X134462526Y-99883138D01*
X134510251Y-99882159D01*
X134540904Y-99880868D01*
X134551733Y-99879253D01*
X134547333Y-99871043D01*
X134532362Y-99849353D01*
X134510448Y-99819986D01*
X134476236Y-99771121D01*
X134429714Y-99682875D01*
X134396046Y-99584084D01*
X134393231Y-99569557D01*
X134947465Y-99569557D01*
X134959389Y-99654681D01*
X134986040Y-99738867D01*
X135026962Y-99817392D01*
X135070530Y-99884800D01*
X136220721Y-99884800D01*
X136267089Y-99814244D01*
X136290791Y-99773583D01*
X136316639Y-99719454D01*
X136334829Y-99670311D01*
X136350551Y-99606835D01*
X136361541Y-99510669D01*
X136353365Y-99426100D01*
X136325805Y-99352781D01*
X136278642Y-99290363D01*
X136211658Y-99238498D01*
X136124633Y-99196840D01*
X136017350Y-99165038D01*
X136005009Y-99162455D01*
X135943772Y-99154000D01*
X135866692Y-99148337D01*
X135779002Y-99145424D01*
X135685934Y-99145217D01*
X135592720Y-99147670D01*
X135504594Y-99152739D01*
X135426788Y-99160381D01*
X135364533Y-99170552D01*
X135358666Y-99171833D01*
X135248121Y-99200874D01*
X135157575Y-99235390D01*
X135084953Y-99276544D01*
X135028181Y-99325501D01*
X134985184Y-99383426D01*
X134969615Y-99415380D01*
X134950722Y-99488216D01*
X134947465Y-99569557D01*
X134393231Y-99569557D01*
X134374231Y-99471490D01*
X134363265Y-99341836D01*
X134362219Y-99249330D01*
X134372014Y-99127989D01*
X134396174Y-99017901D01*
X134435785Y-98914611D01*
X134491932Y-98813662D01*
X134522883Y-98768497D01*
X134614115Y-98663089D01*
X134723106Y-98571462D01*
X134849726Y-98493668D01*
X134993845Y-98429759D01*
X135155332Y-98379786D01*
X135334059Y-98343802D01*
X135529895Y-98321857D01*
X135685934Y-98316100D01*
X135742711Y-98314006D01*
X135820158Y-98314732D01*
%TA.AperFunction,EtchedComponent*%
G36*
X135820158Y-98314732D02*
G01*
X135971594Y-98323311D01*
X136108283Y-98342167D01*
X136234276Y-98372163D01*
X136353625Y-98414164D01*
X136470381Y-98469031D01*
X136581179Y-98535833D01*
X136694739Y-98626637D01*
X136790211Y-98730292D01*
X136867073Y-98846113D01*
X136924797Y-98973414D01*
X136962858Y-99111511D01*
X136968666Y-99149207D01*
X136974396Y-99228248D01*
X136974583Y-99316371D01*
X136969539Y-99405764D01*
X136959578Y-99488616D01*
X136945012Y-99557113D01*
X136935364Y-99587965D01*
X136905123Y-99665270D01*
X136867617Y-99742321D01*
X136826614Y-99811800D01*
X136785879Y-99866385D01*
X136766505Y-99889084D01*
X136748662Y-99911799D01*
X136741778Y-99923221D01*
X136743424Y-99924463D01*
X136761205Y-99927272D01*
X136794370Y-99929224D01*
X136837733Y-99929955D01*
X136933689Y-99929955D01*
X136933689Y-100788104D01*
X136872974Y-100753839D01*
X136863868Y-100748645D01*
X136849249Y-100740285D01*
X136835173Y-100732712D01*
X136820540Y-100725888D01*
X136804249Y-100719773D01*
X136785198Y-100714327D01*
X136762286Y-100709513D01*
X136734413Y-100705292D01*
X136700478Y-100701623D01*
X136659379Y-100698469D01*
X136610015Y-100695789D01*
X136551286Y-100693546D01*
X136482090Y-100691701D01*
X136401326Y-100690213D01*
X136307894Y-100689045D01*
X136200692Y-100688156D01*
X136078620Y-100687509D01*
X135940576Y-100687064D01*
X135785459Y-100686782D01*
X135612168Y-100686625D01*
X135419603Y-100686552D01*
X135206662Y-100686526D01*
X134972245Y-100686507D01*
X133287378Y-100686311D01*
X133287378Y-99780983D01*
X133324067Y-99805415D01*
X133333647Y-99811682D01*
X133379981Y-99837792D01*
X133427102Y-99855531D01*
X133482251Y-99867092D01*
X133552667Y-99874669D01*
X133559650Y-99875161D01*
X133597641Y-99876938D01*
X133651576Y-99878556D01*
X133718703Y-99880001D01*
X133796271Y-99881260D01*
X133881528Y-99882320D01*
X133971724Y-99883171D01*
X134064107Y-99883797D01*
X134155925Y-99884188D01*
X134244427Y-99884330D01*
X134326862Y-99884210D01*
X134400479Y-99883817D01*
X134462526Y-99883138D01*
X134510251Y-99882159D01*
X134540904Y-99880868D01*
X134551733Y-99879253D01*
X134547333Y-99871043D01*
X134532362Y-99849353D01*
X134510448Y-99819986D01*
X134476236Y-99771121D01*
X134429714Y-99682875D01*
X134396046Y-99584084D01*
X134393231Y-99569557D01*
X134947465Y-99569557D01*
X134959389Y-99654681D01*
X134986040Y-99738867D01*
X135026962Y-99817392D01*
X135070530Y-99884800D01*
X136220721Y-99884800D01*
X136267089Y-99814244D01*
X136290791Y-99773583D01*
X136316639Y-99719454D01*
X136334829Y-99670311D01*
X136350551Y-99606835D01*
X136361541Y-99510669D01*
X136353365Y-99426100D01*
X136325805Y-99352781D01*
X136278642Y-99290363D01*
X136211658Y-99238498D01*
X136124633Y-99196840D01*
X136017350Y-99165038D01*
X136005009Y-99162455D01*
X135943772Y-99154000D01*
X135866692Y-99148337D01*
X135779002Y-99145424D01*
X135685934Y-99145217D01*
X135592720Y-99147670D01*
X135504594Y-99152739D01*
X135426788Y-99160381D01*
X135364533Y-99170552D01*
X135358666Y-99171833D01*
X135248121Y-99200874D01*
X135157575Y-99235390D01*
X135084953Y-99276544D01*
X135028181Y-99325501D01*
X134985184Y-99383426D01*
X134969615Y-99415380D01*
X134950722Y-99488216D01*
X134947465Y-99569557D01*
X134393231Y-99569557D01*
X134374231Y-99471490D01*
X134363265Y-99341836D01*
X134362219Y-99249330D01*
X134372014Y-99127989D01*
X134396174Y-99017901D01*
X134435785Y-98914611D01*
X134491932Y-98813662D01*
X134522883Y-98768497D01*
X134614115Y-98663089D01*
X134723106Y-98571462D01*
X134849726Y-98493668D01*
X134993845Y-98429759D01*
X135155332Y-98379786D01*
X135334059Y-98343802D01*
X135529895Y-98321857D01*
X135685934Y-98316100D01*
X135742711Y-98314006D01*
X135820158Y-98314732D01*
G37*
%TD.AperFunction*%
X136177363Y-95772739D02*
X136252202Y-95776368D01*
X136314401Y-95783978D01*
X136370984Y-95796312D01*
X136497076Y-95840687D01*
X136611679Y-95903600D01*
X136712568Y-95983762D01*
X136798924Y-96080260D01*
X136869932Y-96192178D01*
X136924776Y-96318603D01*
X136962638Y-96458622D01*
X136968351Y-96494851D01*
X136974313Y-96573845D01*
X136974646Y-96662159D01*
X136969659Y-96751925D01*
X136959666Y-96835278D01*
X136944978Y-96904349D01*
X136914749Y-96990813D01*
X136860057Y-97100714D01*
X136792543Y-97198044D01*
X136741556Y-97260133D01*
X136837622Y-97263395D01*
X136933689Y-97266657D01*
X136933689Y-97689550D01*
X136933686Y-97700457D01*
X136933380Y-97794944D01*
X136932616Y-97881669D01*
X136931451Y-97958163D01*
X136929942Y-98021957D01*
X136928147Y-98070582D01*
X136926121Y-98101567D01*
X136923922Y-98112444D01*
X136923463Y-98112422D01*
X136907910Y-98105386D01*
X136885071Y-98089566D01*
X136879638Y-98085266D01*
X136865606Y-98074223D01*
X136852186Y-98064689D01*
X136837722Y-98056539D01*
X136820556Y-98049648D01*
X136799034Y-98043889D01*
X136771498Y-98039138D01*
X136736292Y-98035269D01*
X136691760Y-98032156D01*
X136636246Y-98029675D01*
X136568093Y-98027700D01*
X136485645Y-98026106D01*
X136387246Y-98024766D01*
X136271239Y-98023556D01*
X136135968Y-98022351D01*
X135979778Y-98021025D01*
X135837012Y-98019772D01*
X135691942Y-98018349D01*
X135566027Y-98016824D01*
X135457436Y-98015067D01*
X135364334Y-98012949D01*
X135284891Y-98010340D01*
X135217273Y-98007110D01*
X135159649Y-98003131D01*
X135110185Y-97998272D01*
X135067050Y-97992403D01*
X135028410Y-97985396D01*
X134992434Y-97977120D01*
X134957289Y-97967446D01*
X134921142Y-97956244D01*
X134882161Y-97943384D01*
X134839091Y-97927910D01*
X134746871Y-97885006D01*
X134667099Y-97831265D01*
X134592965Y-97762424D01*
X134529405Y-97684815D01*
X134467725Y-97580239D01*
X134420202Y-97460756D01*
X134386567Y-97325492D01*
X134366552Y-97173574D01*
X134359889Y-97004128D01*
X134360287Y-96946110D01*
X134362335Y-96880602D01*
X134366704Y-96819307D01*
X134374035Y-96757903D01*
X134384969Y-96692068D01*
X134400147Y-96617480D01*
X134420209Y-96529816D01*
X134445797Y-96424755D01*
X134452820Y-96396194D01*
X134470776Y-96320946D01*
X134486820Y-96250612D01*
X134500028Y-96189433D01*
X134509474Y-96141646D01*
X134514231Y-96111489D01*
X134517910Y-96083217D01*
X134523187Y-96056940D01*
X134527942Y-96046941D01*
X134536781Y-96050048D01*
X134564072Y-96060806D01*
X134606906Y-96078136D01*
X134662425Y-96100874D01*
X134727772Y-96127853D01*
X134800089Y-96157910D01*
X134815879Y-96164507D01*
X134906484Y-96203093D01*
X134976217Y-96234232D01*
X135025405Y-96258083D01*
X135054374Y-96274802D01*
X135063452Y-96284546D01*
X135061405Y-96292234D01*
X135051760Y-96318585D01*
X135036190Y-96357018D01*
X135016815Y-96402178D01*
X134978814Y-96496707D01*
X134937780Y-96633520D01*
X134912612Y-96774711D01*
X134908611Y-96812686D01*
X134906447Y-96915941D01*
X134919622Y-97003048D01*
X134948756Y-97074871D01*
X134994466Y-97132269D01*
X135057372Y-97176104D01*
X135138092Y-97207238D01*
X135237245Y-97226530D01*
X135296224Y-97233950D01*
X135289445Y-97072064D01*
X135289110Y-97046106D01*
X135811842Y-97046106D01*
X135811857Y-97054993D01*
X135812655Y-97110340D01*
X135814488Y-97157264D01*
X135817111Y-97191047D01*
X135820274Y-97206972D01*
X135826741Y-97211057D01*
X135848875Y-97215428D01*
X135887988Y-97218396D01*
X135945939Y-97220086D01*
X136024586Y-97220622D01*
X136220462Y-97220622D01*
X136276973Y-97175952D01*
X136292212Y-97163215D01*
X136334844Y-97116396D01*
X136370672Y-97055745D01*
X136375850Y-97045103D01*
X136392745Y-97006324D01*
X136402909Y-96971308D01*
X136408325Y-96931278D01*
X136410978Y-96877459D01*
X136411383Y-96859352D01*
X136408540Y-96783989D01*
X136396620Y-96723257D01*
X136374037Y-96671548D01*
X136339211Y-96623254D01*
X136334798Y-96618197D01*
X136279160Y-96569728D01*
X136215333Y-96541541D01*
X136140282Y-96532248D01*
X136068693Y-96539480D01*
X136005645Y-96564204D01*
X135947758Y-96608751D01*
X135900808Y-96663681D01*
X135860961Y-96736106D01*
X135833263Y-96822660D01*
X135817096Y-96925330D01*
X135811842Y-97046106D01*
X135289110Y-97046106D01*
X135287813Y-96945505D01*
X135294194Y-96794049D01*
X135308777Y-96645604D01*
X135330882Y-96509422D01*
X135345821Y-96444755D01*
X135388741Y-96312510D01*
X135445340Y-96190238D01*
X135514017Y-96080315D01*
X135593170Y-95985117D01*
X135681196Y-95907020D01*
X135776493Y-95848401D01*
X135828864Y-95824405D01*
X135899590Y-95798768D01*
X135970812Y-95782522D01*
X136049712Y-95774178D01*
X136140282Y-95772310D01*
X136143467Y-95772245D01*
X136177363Y-95772739D01*
%TA.AperFunction,EtchedComponent*%
G36*
X136177363Y-95772739D02*
G01*
X136252202Y-95776368D01*
X136314401Y-95783978D01*
X136370984Y-95796312D01*
X136497076Y-95840687D01*
X136611679Y-95903600D01*
X136712568Y-95983762D01*
X136798924Y-96080260D01*
X136869932Y-96192178D01*
X136924776Y-96318603D01*
X136962638Y-96458622D01*
X136968351Y-96494851D01*
X136974313Y-96573845D01*
X136974646Y-96662159D01*
X136969659Y-96751925D01*
X136959666Y-96835278D01*
X136944978Y-96904349D01*
X136914749Y-96990813D01*
X136860057Y-97100714D01*
X136792543Y-97198044D01*
X136741556Y-97260133D01*
X136837622Y-97263395D01*
X136933689Y-97266657D01*
X136933689Y-97689550D01*
X136933686Y-97700457D01*
X136933380Y-97794944D01*
X136932616Y-97881669D01*
X136931451Y-97958163D01*
X136929942Y-98021957D01*
X136928147Y-98070582D01*
X136926121Y-98101567D01*
X136923922Y-98112444D01*
X136923463Y-98112422D01*
X136907910Y-98105386D01*
X136885071Y-98089566D01*
X136879638Y-98085266D01*
X136865606Y-98074223D01*
X136852186Y-98064689D01*
X136837722Y-98056539D01*
X136820556Y-98049648D01*
X136799034Y-98043889D01*
X136771498Y-98039138D01*
X136736292Y-98035269D01*
X136691760Y-98032156D01*
X136636246Y-98029675D01*
X136568093Y-98027700D01*
X136485645Y-98026106D01*
X136387246Y-98024766D01*
X136271239Y-98023556D01*
X136135968Y-98022351D01*
X135979778Y-98021025D01*
X135837012Y-98019772D01*
X135691942Y-98018349D01*
X135566027Y-98016824D01*
X135457436Y-98015067D01*
X135364334Y-98012949D01*
X135284891Y-98010340D01*
X135217273Y-98007110D01*
X135159649Y-98003131D01*
X135110185Y-97998272D01*
X135067050Y-97992403D01*
X135028410Y-97985396D01*
X134992434Y-97977120D01*
X134957289Y-97967446D01*
X134921142Y-97956244D01*
X134882161Y-97943384D01*
X134839091Y-97927910D01*
X134746871Y-97885006D01*
X134667099Y-97831265D01*
X134592965Y-97762424D01*
X134529405Y-97684815D01*
X134467725Y-97580239D01*
X134420202Y-97460756D01*
X134386567Y-97325492D01*
X134366552Y-97173574D01*
X134359889Y-97004128D01*
X134360287Y-96946110D01*
X134362335Y-96880602D01*
X134366704Y-96819307D01*
X134374035Y-96757903D01*
X134384969Y-96692068D01*
X134400147Y-96617480D01*
X134420209Y-96529816D01*
X134445797Y-96424755D01*
X134452820Y-96396194D01*
X134470776Y-96320946D01*
X134486820Y-96250612D01*
X134500028Y-96189433D01*
X134509474Y-96141646D01*
X134514231Y-96111489D01*
X134517910Y-96083217D01*
X134523187Y-96056940D01*
X134527942Y-96046941D01*
X134536781Y-96050048D01*
X134564072Y-96060806D01*
X134606906Y-96078136D01*
X134662425Y-96100874D01*
X134727772Y-96127853D01*
X134800089Y-96157910D01*
X134815879Y-96164507D01*
X134906484Y-96203093D01*
X134976217Y-96234232D01*
X135025405Y-96258083D01*
X135054374Y-96274802D01*
X135063452Y-96284546D01*
X135061405Y-96292234D01*
X135051760Y-96318585D01*
X135036190Y-96357018D01*
X135016815Y-96402178D01*
X134978814Y-96496707D01*
X134937780Y-96633520D01*
X134912612Y-96774711D01*
X134908611Y-96812686D01*
X134906447Y-96915941D01*
X134919622Y-97003048D01*
X134948756Y-97074871D01*
X134994466Y-97132269D01*
X135057372Y-97176104D01*
X135138092Y-97207238D01*
X135237245Y-97226530D01*
X135296224Y-97233950D01*
X135289445Y-97072064D01*
X135289110Y-97046106D01*
X135811842Y-97046106D01*
X135811857Y-97054993D01*
X135812655Y-97110340D01*
X135814488Y-97157264D01*
X135817111Y-97191047D01*
X135820274Y-97206972D01*
X135826741Y-97211057D01*
X135848875Y-97215428D01*
X135887988Y-97218396D01*
X135945939Y-97220086D01*
X136024586Y-97220622D01*
X136220462Y-97220622D01*
X136276973Y-97175952D01*
X136292212Y-97163215D01*
X136334844Y-97116396D01*
X136370672Y-97055745D01*
X136375850Y-97045103D01*
X136392745Y-97006324D01*
X136402909Y-96971308D01*
X136408325Y-96931278D01*
X136410978Y-96877459D01*
X136411383Y-96859352D01*
X136408540Y-96783989D01*
X136396620Y-96723257D01*
X136374037Y-96671548D01*
X136339211Y-96623254D01*
X136334798Y-96618197D01*
X136279160Y-96569728D01*
X136215333Y-96541541D01*
X136140282Y-96532248D01*
X136068693Y-96539480D01*
X136005645Y-96564204D01*
X135947758Y-96608751D01*
X135900808Y-96663681D01*
X135860961Y-96736106D01*
X135833263Y-96822660D01*
X135817096Y-96925330D01*
X135811842Y-97046106D01*
X135289110Y-97046106D01*
X135287813Y-96945505D01*
X135294194Y-96794049D01*
X135308777Y-96645604D01*
X135330882Y-96509422D01*
X135345821Y-96444755D01*
X135388741Y-96312510D01*
X135445340Y-96190238D01*
X135514017Y-96080315D01*
X135593170Y-95985117D01*
X135681196Y-95907020D01*
X135776493Y-95848401D01*
X135828864Y-95824405D01*
X135899590Y-95798768D01*
X135970812Y-95782522D01*
X136049712Y-95774178D01*
X136140282Y-95772310D01*
X136143467Y-95772245D01*
X136177363Y-95772739D01*
G37*
%TD.AperFunction*%
X136121295Y-88223313D02*
X136301535Y-88223407D01*
X136464015Y-88223605D01*
X136609670Y-88223937D01*
X136739434Y-88224431D01*
X136854243Y-88225117D01*
X136955030Y-88226024D01*
X137042730Y-88227183D01*
X137118279Y-88228622D01*
X137182611Y-88230371D01*
X137236661Y-88232460D01*
X137281363Y-88234917D01*
X137317652Y-88237773D01*
X137346463Y-88241057D01*
X137368731Y-88244798D01*
X137385390Y-88249026D01*
X137397375Y-88253771D01*
X137405621Y-88259061D01*
X137411062Y-88264927D01*
X137414634Y-88271398D01*
X137417270Y-88278503D01*
X137419906Y-88286272D01*
X137423477Y-88294734D01*
X137425145Y-88299092D01*
X137427111Y-88307605D01*
X137428911Y-88320306D01*
X137430555Y-88338115D01*
X137432047Y-88361951D01*
X137433397Y-88392734D01*
X137434611Y-88431383D01*
X137435697Y-88478818D01*
X137436661Y-88535957D01*
X137437511Y-88603721D01*
X137438253Y-88683029D01*
X137438897Y-88774801D01*
X137439447Y-88879956D01*
X137439913Y-88999413D01*
X137440300Y-89134092D01*
X137440616Y-89284912D01*
X137440869Y-89452794D01*
X137441066Y-89638655D01*
X137441213Y-89843417D01*
X137441318Y-90067998D01*
X137441389Y-90313318D01*
X137441432Y-90580296D01*
X137441437Y-90618679D01*
X137441480Y-90884078D01*
X137441525Y-91127950D01*
X137441548Y-91351217D01*
X137441524Y-91554804D01*
X137441430Y-91739633D01*
X137441243Y-91906627D01*
X137440939Y-92056710D01*
X137440494Y-92190804D01*
X137439885Y-92309834D01*
X137439089Y-92414721D01*
X137438080Y-92506390D01*
X137436837Y-92585763D01*
X137435335Y-92653763D01*
X137433551Y-92711314D01*
X137431461Y-92759338D01*
X137429042Y-92798760D01*
X137426270Y-92830501D01*
X137423121Y-92855486D01*
X137419572Y-92874636D01*
X137415598Y-92888877D01*
X137411178Y-92899129D01*
X137406286Y-92906318D01*
X137400900Y-92911365D01*
X137394996Y-92915195D01*
X137388549Y-92918729D01*
X137381537Y-92922892D01*
X137379687Y-92923975D01*
X137374180Y-92926187D01*
X137365868Y-92928214D01*
X137353809Y-92930062D01*
X137337063Y-92931739D01*
X137314687Y-92933255D01*
X137285740Y-92934617D01*
X137249280Y-92935833D01*
X137204367Y-92936911D01*
X137150057Y-92937860D01*
X137085410Y-92938688D01*
X137009484Y-92939403D01*
X136921338Y-92940013D01*
X136820029Y-92940526D01*
X136704617Y-92940950D01*
X136574160Y-92941294D01*
X136427716Y-92941566D01*
X136264344Y-92941773D01*
X136083101Y-92941924D01*
X135883048Y-92942028D01*
X135663241Y-92942092D01*
X135422739Y-92942124D01*
X135160602Y-92942133D01*
X132969031Y-92942133D01*
X132930649Y-92903751D01*
X132906911Y-92876645D01*
X132895111Y-92849747D01*
X132892267Y-92813440D01*
X132892267Y-92761511D01*
X132980206Y-92761511D01*
X133030102Y-92759573D01*
X133140523Y-92740801D01*
X133241987Y-92703783D01*
X133333152Y-92650631D01*
X133412673Y-92583454D01*
X133479205Y-92504362D01*
X133531406Y-92415466D01*
X133567930Y-92318875D01*
X133587434Y-92216700D01*
X133588561Y-92112147D01*
X134404978Y-92112147D01*
X134404978Y-92557805D01*
X135581845Y-92560880D01*
X136758711Y-92563955D01*
X136817622Y-92590593D01*
X136842183Y-92602515D01*
X136872434Y-92619754D01*
X136889560Y-92632926D01*
X136897591Y-92640924D01*
X136912493Y-92648622D01*
X136913765Y-92644740D01*
X136915791Y-92621480D01*
X136917626Y-92579126D01*
X136919227Y-92519868D01*
X136920549Y-92445893D01*
X136921548Y-92359390D01*
X136922180Y-92262548D01*
X136922400Y-92157555D01*
X136922349Y-92088644D01*
X136922091Y-91990393D01*
X136921637Y-91900970D01*
X136921010Y-91822667D01*
X136920235Y-91757777D01*
X136919335Y-91708589D01*
X136918334Y-91677396D01*
X136917257Y-91666489D01*
X136914037Y-91667678D01*
X136896452Y-91677824D01*
X136870158Y-91694960D01*
X136857691Y-91703460D01*
X136843622Y-91712671D01*
X136829351Y-91720767D01*
X136813479Y-91727815D01*
X136794609Y-91733883D01*
X136771341Y-91739039D01*
X136742278Y-91743349D01*
X136706021Y-91746881D01*
X136661170Y-91749703D01*
X136606328Y-91751882D01*
X136540097Y-91753486D01*
X136461077Y-91754581D01*
X136367871Y-91755235D01*
X136259079Y-91755516D01*
X136133303Y-91755491D01*
X135989145Y-91755228D01*
X135825207Y-91754794D01*
X135640089Y-91754255D01*
X135461232Y-91753721D01*
X135302374Y-91753195D01*
X135163316Y-91752650D01*
X135042665Y-91752055D01*
X134939028Y-91751381D01*
X134851011Y-91750597D01*
X134777223Y-91749674D01*
X134716269Y-91748581D01*
X134666757Y-91747288D01*
X134627293Y-91745765D01*
X134596484Y-91743981D01*
X134572938Y-91741908D01*
X134555260Y-91739514D01*
X134542059Y-91736770D01*
X134531940Y-91733644D01*
X134523511Y-91730108D01*
X134515375Y-91726209D01*
X134478544Y-91706562D01*
X134448391Y-91687775D01*
X134446908Y-91686728D01*
X134424659Y-91672398D01*
X134411702Y-91666489D01*
X134411249Y-91667496D01*
X134409803Y-91684695D01*
X134408480Y-91721344D01*
X134407316Y-91775038D01*
X134406347Y-91843370D01*
X134405611Y-91923936D01*
X134405142Y-92014330D01*
X134404978Y-92112147D01*
X133588561Y-92112147D01*
X133588573Y-92111050D01*
X133570005Y-92004036D01*
X133530384Y-91897768D01*
X133472516Y-91800781D01*
X133397684Y-91715707D01*
X133309615Y-91646985D01*
X133210616Y-91596082D01*
X133102993Y-91564465D01*
X132989054Y-91553600D01*
X132892267Y-91553600D01*
X132892267Y-89933247D01*
X132892280Y-89722103D01*
X132892313Y-89587686D01*
X133501867Y-89587686D01*
X133564966Y-89549689D01*
X133590005Y-89535007D01*
X133617586Y-89520469D01*
X133645700Y-89508373D01*
X133676551Y-89498468D01*
X133712344Y-89490506D01*
X133755283Y-89484239D01*
X133807574Y-89479418D01*
X133871419Y-89475794D01*
X133949025Y-89473119D01*
X134042594Y-89471143D01*
X134154333Y-89469618D01*
X134286445Y-89468296D01*
X134406434Y-89467387D01*
X134523063Y-89466980D01*
X134618531Y-89467233D01*
X134692556Y-89468143D01*
X134744855Y-89469707D01*
X134775149Y-89471921D01*
X134783156Y-89474780D01*
X134779858Y-89477839D01*
X134758408Y-89495994D01*
X134721889Y-89525725D01*
X134672442Y-89565361D01*
X134612207Y-89613229D01*
X134543327Y-89667657D01*
X134467943Y-89726973D01*
X134388196Y-89789505D01*
X134306228Y-89853579D01*
X134224180Y-89917525D01*
X134144194Y-89979669D01*
X134068411Y-90038339D01*
X133998973Y-90091863D01*
X133938021Y-90138570D01*
X133887696Y-90176786D01*
X133850140Y-90204839D01*
X133827495Y-90221057D01*
X133755212Y-90266365D01*
X133675463Y-90306339D01*
X133607188Y-90327870D01*
X133549844Y-90331173D01*
X133501867Y-90325884D01*
X133502117Y-91457644D01*
X133532722Y-91418133D01*
X133540089Y-91408752D01*
X133594438Y-91345817D01*
X133662259Y-91277003D01*
X133745516Y-91200404D01*
X133846178Y-91114112D01*
X133866847Y-91096948D01*
X133916409Y-91056167D01*
X133977326Y-91006412D01*
X134047898Y-90949045D01*
X134126424Y-90885431D01*
X134211204Y-90816931D01*
X134300537Y-90744910D01*
X134392722Y-90670730D01*
X134411702Y-90655483D01*
X134486060Y-90595754D01*
X134578848Y-90521347D01*
X134669388Y-90448869D01*
X134755978Y-90379686D01*
X134836918Y-90315159D01*
X134910506Y-90256653D01*
X134975044Y-90205530D01*
X135028829Y-90163153D01*
X135070162Y-90130885D01*
X135097342Y-90110090D01*
X135108668Y-90102131D01*
X135112771Y-90103889D01*
X135133334Y-90116770D01*
X135169561Y-90141115D01*
X135219824Y-90175753D01*
X135282492Y-90219514D01*
X135355936Y-90271225D01*
X135438527Y-90329716D01*
X135528636Y-90393816D01*
X135624631Y-90462354D01*
X135724885Y-90534157D01*
X135827768Y-90608056D01*
X135931650Y-90682879D01*
X136034901Y-90757455D01*
X136135892Y-90830613D01*
X136232994Y-90901181D01*
X136324577Y-90967989D01*
X136409011Y-91029865D01*
X136484667Y-91085639D01*
X136549916Y-91134138D01*
X136603128Y-91174193D01*
X136642673Y-91204631D01*
X136668026Y-91225056D01*
X136722295Y-91271101D01*
X136778775Y-91321388D01*
X136828669Y-91368185D01*
X136922400Y-91459349D01*
X136922400Y-90304910D01*
X136846200Y-90305544D01*
X136804160Y-90304426D01*
X136768334Y-90298696D01*
X136730772Y-90286110D01*
X136682577Y-90264432D01*
X136675897Y-90261211D01*
X136626359Y-90235812D01*
X136578369Y-90209004D01*
X136541466Y-90186083D01*
X136534834Y-90181515D01*
X136503593Y-90159484D01*
X136458654Y-90127307D01*
X136402147Y-90086543D01*
X136336204Y-90038755D01*
X136262957Y-89985502D01*
X136184536Y-89928345D01*
X136103072Y-89868845D01*
X136020698Y-89808563D01*
X135939544Y-89749060D01*
X135861742Y-89691895D01*
X135789423Y-89638630D01*
X135724718Y-89590826D01*
X135669759Y-89550043D01*
X135626676Y-89517842D01*
X135597602Y-89495784D01*
X135584667Y-89485429D01*
X135580351Y-89480956D01*
X135578312Y-89476764D01*
X135580926Y-89473357D01*
X135589986Y-89470675D01*
X135607285Y-89468659D01*
X135634614Y-89467252D01*
X135673765Y-89466395D01*
X135726533Y-89466030D01*
X135794707Y-89466097D01*
X135880082Y-89466540D01*
X135984449Y-89467298D01*
X136109600Y-89468315D01*
X136154300Y-89468692D01*
X136275395Y-89469831D01*
X136376688Y-89471028D01*
X136460262Y-89472364D01*
X136528204Y-89473923D01*
X136582599Y-89475785D01*
X136625532Y-89478034D01*
X136659089Y-89480752D01*
X136685355Y-89484021D01*
X136706416Y-89487922D01*
X136724357Y-89492539D01*
X136750770Y-89500808D01*
X136812772Y-89524417D01*
X136865573Y-89550315D01*
X136902645Y-89575465D01*
X136904075Y-89576661D01*
X136908424Y-89578832D01*
X136912026Y-89576672D01*
X136914951Y-89568356D01*
X136917269Y-89552060D01*
X136919051Y-89525959D01*
X136920367Y-89488229D01*
X136921286Y-89437044D01*
X136921878Y-89370580D01*
X136922215Y-89287013D01*
X136922365Y-89184517D01*
X136922400Y-89061268D01*
X136922400Y-88529704D01*
X136864783Y-88568477D01*
X136855893Y-88574568D01*
X136841069Y-88585024D01*
X136827422Y-88594421D01*
X136813765Y-88602817D01*
X136798911Y-88610267D01*
X136781670Y-88616827D01*
X136760855Y-88622554D01*
X136735280Y-88627505D01*
X136703755Y-88631734D01*
X136665093Y-88635299D01*
X136618107Y-88638256D01*
X136561608Y-88640660D01*
X136494409Y-88642569D01*
X136415322Y-88644038D01*
X136323160Y-88645124D01*
X136216734Y-88645882D01*
X136094857Y-88646370D01*
X135956341Y-88646642D01*
X135799999Y-88646757D01*
X135624642Y-88646769D01*
X135429082Y-88646735D01*
X135212133Y-88646711D01*
X135089513Y-88646720D01*
X134884447Y-88646757D01*
X134700116Y-88646773D01*
X134535334Y-88646712D01*
X134388916Y-88646516D01*
X134259674Y-88646130D01*
X134146422Y-88645495D01*
X134047975Y-88644556D01*
X133963144Y-88643255D01*
X133890744Y-88641536D01*
X133829589Y-88639341D01*
X133778492Y-88636615D01*
X133736267Y-88633299D01*
X133701727Y-88629338D01*
X133673686Y-88624675D01*
X133650958Y-88619253D01*
X133632356Y-88613014D01*
X133616693Y-88605903D01*
X133602784Y-88597862D01*
X133589441Y-88588834D01*
X133575479Y-88578764D01*
X133559711Y-88567593D01*
X133501867Y-88527803D01*
X133501867Y-89587686D01*
X132892313Y-89587686D01*
X132892330Y-89517980D01*
X132892430Y-89334314D01*
X132892592Y-89170009D01*
X132892829Y-89023971D01*
X132893153Y-88895106D01*
X132893575Y-88782317D01*
X132894109Y-88684512D01*
X132894767Y-88600596D01*
X132895561Y-88529473D01*
X132896504Y-88470050D01*
X132897608Y-88421232D01*
X132898884Y-88381923D01*
X132900347Y-88351031D01*
X132902007Y-88327459D01*
X132903878Y-88310114D01*
X132905972Y-88297901D01*
X132908300Y-88289725D01*
X132910876Y-88284492D01*
X132914445Y-88278496D01*
X132917978Y-88271721D01*
X132921488Y-88265522D01*
X132925918Y-88259874D01*
X132932208Y-88254753D01*
X132941301Y-88250131D01*
X132954139Y-88245985D01*
X132971662Y-88242287D01*
X132994813Y-88239013D01*
X133024534Y-88236137D01*
X133061765Y-88233633D01*
X133107449Y-88231476D01*
X133162527Y-88229640D01*
X133227941Y-88228100D01*
X133304633Y-88226830D01*
X133393544Y-88225805D01*
X133495617Y-88224999D01*
X133501867Y-88224966D01*
X133611792Y-88224386D01*
X133743011Y-88223941D01*
X133890216Y-88223638D01*
X134054349Y-88223452D01*
X134236352Y-88223358D01*
X134437165Y-88223329D01*
X134657732Y-88223339D01*
X134898992Y-88223364D01*
X135161889Y-88223378D01*
X135204040Y-88223378D01*
X135464668Y-88223354D01*
X135703796Y-88223315D01*
X135922360Y-88223292D01*
X136121295Y-88223313D01*
%TA.AperFunction,EtchedComponent*%
G36*
X136121295Y-88223313D02*
G01*
X136301535Y-88223407D01*
X136464015Y-88223605D01*
X136609670Y-88223937D01*
X136739434Y-88224431D01*
X136854243Y-88225117D01*
X136955030Y-88226024D01*
X137042730Y-88227183D01*
X137118279Y-88228622D01*
X137182611Y-88230371D01*
X137236661Y-88232460D01*
X137281363Y-88234917D01*
X137317652Y-88237773D01*
X137346463Y-88241057D01*
X137368731Y-88244798D01*
X137385390Y-88249026D01*
X137397375Y-88253771D01*
X137405621Y-88259061D01*
X137411062Y-88264927D01*
X137414634Y-88271398D01*
X137417270Y-88278503D01*
X137419906Y-88286272D01*
X137423477Y-88294734D01*
X137425145Y-88299092D01*
X137427111Y-88307605D01*
X137428911Y-88320306D01*
X137430555Y-88338115D01*
X137432047Y-88361951D01*
X137433397Y-88392734D01*
X137434611Y-88431383D01*
X137435697Y-88478818D01*
X137436661Y-88535957D01*
X137437511Y-88603721D01*
X137438253Y-88683029D01*
X137438897Y-88774801D01*
X137439447Y-88879956D01*
X137439913Y-88999413D01*
X137440300Y-89134092D01*
X137440616Y-89284912D01*
X137440869Y-89452794D01*
X137441066Y-89638655D01*
X137441213Y-89843417D01*
X137441318Y-90067998D01*
X137441389Y-90313318D01*
X137441432Y-90580296D01*
X137441437Y-90618679D01*
X137441480Y-90884078D01*
X137441525Y-91127950D01*
X137441548Y-91351217D01*
X137441524Y-91554804D01*
X137441430Y-91739633D01*
X137441243Y-91906627D01*
X137440939Y-92056710D01*
X137440494Y-92190804D01*
X137439885Y-92309834D01*
X137439089Y-92414721D01*
X137438080Y-92506390D01*
X137436837Y-92585763D01*
X137435335Y-92653763D01*
X137433551Y-92711314D01*
X137431461Y-92759338D01*
X137429042Y-92798760D01*
X137426270Y-92830501D01*
X137423121Y-92855486D01*
X137419572Y-92874636D01*
X137415598Y-92888877D01*
X137411178Y-92899129D01*
X137406286Y-92906318D01*
X137400900Y-92911365D01*
X137394996Y-92915195D01*
X137388549Y-92918729D01*
X137381537Y-92922892D01*
X137379687Y-92923975D01*
X137374180Y-92926187D01*
X137365868Y-92928214D01*
X137353809Y-92930062D01*
X137337063Y-92931739D01*
X137314687Y-92933255D01*
X137285740Y-92934617D01*
X137249280Y-92935833D01*
X137204367Y-92936911D01*
X137150057Y-92937860D01*
X137085410Y-92938688D01*
X137009484Y-92939403D01*
X136921338Y-92940013D01*
X136820029Y-92940526D01*
X136704617Y-92940950D01*
X136574160Y-92941294D01*
X136427716Y-92941566D01*
X136264344Y-92941773D01*
X136083101Y-92941924D01*
X135883048Y-92942028D01*
X135663241Y-92942092D01*
X135422739Y-92942124D01*
X135160602Y-92942133D01*
X132969031Y-92942133D01*
X132930649Y-92903751D01*
X132906911Y-92876645D01*
X132895111Y-92849747D01*
X132892267Y-92813440D01*
X132892267Y-92761511D01*
X132980206Y-92761511D01*
X133030102Y-92759573D01*
X133140523Y-92740801D01*
X133241987Y-92703783D01*
X133333152Y-92650631D01*
X133412673Y-92583454D01*
X133479205Y-92504362D01*
X133531406Y-92415466D01*
X133567930Y-92318875D01*
X133587434Y-92216700D01*
X133588561Y-92112147D01*
X134404978Y-92112147D01*
X134404978Y-92557805D01*
X135581845Y-92560880D01*
X136758711Y-92563955D01*
X136817622Y-92590593D01*
X136842183Y-92602515D01*
X136872434Y-92619754D01*
X136889560Y-92632926D01*
X136897591Y-92640924D01*
X136912493Y-92648622D01*
X136913765Y-92644740D01*
X136915791Y-92621480D01*
X136917626Y-92579126D01*
X136919227Y-92519868D01*
X136920549Y-92445893D01*
X136921548Y-92359390D01*
X136922180Y-92262548D01*
X136922400Y-92157555D01*
X136922349Y-92088644D01*
X136922091Y-91990393D01*
X136921637Y-91900970D01*
X136921010Y-91822667D01*
X136920235Y-91757777D01*
X136919335Y-91708589D01*
X136918334Y-91677396D01*
X136917257Y-91666489D01*
X136914037Y-91667678D01*
X136896452Y-91677824D01*
X136870158Y-91694960D01*
X136857691Y-91703460D01*
X136843622Y-91712671D01*
X136829351Y-91720767D01*
X136813479Y-91727815D01*
X136794609Y-91733883D01*
X136771341Y-91739039D01*
X136742278Y-91743349D01*
X136706021Y-91746881D01*
X136661170Y-91749703D01*
X136606328Y-91751882D01*
X136540097Y-91753486D01*
X136461077Y-91754581D01*
X136367871Y-91755235D01*
X136259079Y-91755516D01*
X136133303Y-91755491D01*
X135989145Y-91755228D01*
X135825207Y-91754794D01*
X135640089Y-91754255D01*
X135461232Y-91753721D01*
X135302374Y-91753195D01*
X135163316Y-91752650D01*
X135042665Y-91752055D01*
X134939028Y-91751381D01*
X134851011Y-91750597D01*
X134777223Y-91749674D01*
X134716269Y-91748581D01*
X134666757Y-91747288D01*
X134627293Y-91745765D01*
X134596484Y-91743981D01*
X134572938Y-91741908D01*
X134555260Y-91739514D01*
X134542059Y-91736770D01*
X134531940Y-91733644D01*
X134523511Y-91730108D01*
X134515375Y-91726209D01*
X134478544Y-91706562D01*
X134448391Y-91687775D01*
X134446908Y-91686728D01*
X134424659Y-91672398D01*
X134411702Y-91666489D01*
X134411249Y-91667496D01*
X134409803Y-91684695D01*
X134408480Y-91721344D01*
X134407316Y-91775038D01*
X134406347Y-91843370D01*
X134405611Y-91923936D01*
X134405142Y-92014330D01*
X134404978Y-92112147D01*
X133588561Y-92112147D01*
X133588573Y-92111050D01*
X133570005Y-92004036D01*
X133530384Y-91897768D01*
X133472516Y-91800781D01*
X133397684Y-91715707D01*
X133309615Y-91646985D01*
X133210616Y-91596082D01*
X133102993Y-91564465D01*
X132989054Y-91553600D01*
X132892267Y-91553600D01*
X132892267Y-89933247D01*
X132892280Y-89722103D01*
X132892313Y-89587686D01*
X133501867Y-89587686D01*
X133564966Y-89549689D01*
X133590005Y-89535007D01*
X133617586Y-89520469D01*
X133645700Y-89508373D01*
X133676551Y-89498468D01*
X133712344Y-89490506D01*
X133755283Y-89484239D01*
X133807574Y-89479418D01*
X133871419Y-89475794D01*
X133949025Y-89473119D01*
X134042594Y-89471143D01*
X134154333Y-89469618D01*
X134286445Y-89468296D01*
X134406434Y-89467387D01*
X134523063Y-89466980D01*
X134618531Y-89467233D01*
X134692556Y-89468143D01*
X134744855Y-89469707D01*
X134775149Y-89471921D01*
X134783156Y-89474780D01*
X134779858Y-89477839D01*
X134758408Y-89495994D01*
X134721889Y-89525725D01*
X134672442Y-89565361D01*
X134612207Y-89613229D01*
X134543327Y-89667657D01*
X134467943Y-89726973D01*
X134388196Y-89789505D01*
X134306228Y-89853579D01*
X134224180Y-89917525D01*
X134144194Y-89979669D01*
X134068411Y-90038339D01*
X133998973Y-90091863D01*
X133938021Y-90138570D01*
X133887696Y-90176786D01*
X133850140Y-90204839D01*
X133827495Y-90221057D01*
X133755212Y-90266365D01*
X133675463Y-90306339D01*
X133607188Y-90327870D01*
X133549844Y-90331173D01*
X133501867Y-90325884D01*
X133502117Y-91457644D01*
X133532722Y-91418133D01*
X133540089Y-91408752D01*
X133594438Y-91345817D01*
X133662259Y-91277003D01*
X133745516Y-91200404D01*
X133846178Y-91114112D01*
X133866847Y-91096948D01*
X133916409Y-91056167D01*
X133977326Y-91006412D01*
X134047898Y-90949045D01*
X134126424Y-90885431D01*
X134211204Y-90816931D01*
X134300537Y-90744910D01*
X134392722Y-90670730D01*
X134411702Y-90655483D01*
X134486060Y-90595754D01*
X134578848Y-90521347D01*
X134669388Y-90448869D01*
X134755978Y-90379686D01*
X134836918Y-90315159D01*
X134910506Y-90256653D01*
X134975044Y-90205530D01*
X135028829Y-90163153D01*
X135070162Y-90130885D01*
X135097342Y-90110090D01*
X135108668Y-90102131D01*
X135112771Y-90103889D01*
X135133334Y-90116770D01*
X135169561Y-90141115D01*
X135219824Y-90175753D01*
X135282492Y-90219514D01*
X135355936Y-90271225D01*
X135438527Y-90329716D01*
X135528636Y-90393816D01*
X135624631Y-90462354D01*
X135724885Y-90534157D01*
X135827768Y-90608056D01*
X135931650Y-90682879D01*
X136034901Y-90757455D01*
X136135892Y-90830613D01*
X136232994Y-90901181D01*
X136324577Y-90967989D01*
X136409011Y-91029865D01*
X136484667Y-91085639D01*
X136549916Y-91134138D01*
X136603128Y-91174193D01*
X136642673Y-91204631D01*
X136668026Y-91225056D01*
X136722295Y-91271101D01*
X136778775Y-91321388D01*
X136828669Y-91368185D01*
X136922400Y-91459349D01*
X136922400Y-90304910D01*
X136846200Y-90305544D01*
X136804160Y-90304426D01*
X136768334Y-90298696D01*
X136730772Y-90286110D01*
X136682577Y-90264432D01*
X136675897Y-90261211D01*
X136626359Y-90235812D01*
X136578369Y-90209004D01*
X136541466Y-90186083D01*
X136534834Y-90181515D01*
X136503593Y-90159484D01*
X136458654Y-90127307D01*
X136402147Y-90086543D01*
X136336204Y-90038755D01*
X136262957Y-89985502D01*
X136184536Y-89928345D01*
X136103072Y-89868845D01*
X136020698Y-89808563D01*
X135939544Y-89749060D01*
X135861742Y-89691895D01*
X135789423Y-89638630D01*
X135724718Y-89590826D01*
X135669759Y-89550043D01*
X135626676Y-89517842D01*
X135597602Y-89495784D01*
X135584667Y-89485429D01*
X135580351Y-89480956D01*
X135578312Y-89476764D01*
X135580926Y-89473357D01*
X135589986Y-89470675D01*
X135607285Y-89468659D01*
X135634614Y-89467252D01*
X135673765Y-89466395D01*
X135726533Y-89466030D01*
X135794707Y-89466097D01*
X135880082Y-89466540D01*
X135984449Y-89467298D01*
X136109600Y-89468315D01*
X136154300Y-89468692D01*
X136275395Y-89469831D01*
X136376688Y-89471028D01*
X136460262Y-89472364D01*
X136528204Y-89473923D01*
X136582599Y-89475785D01*
X136625532Y-89478034D01*
X136659089Y-89480752D01*
X136685355Y-89484021D01*
X136706416Y-89487922D01*
X136724357Y-89492539D01*
X136750770Y-89500808D01*
X136812772Y-89524417D01*
X136865573Y-89550315D01*
X136902645Y-89575465D01*
X136904075Y-89576661D01*
X136908424Y-89578832D01*
X136912026Y-89576672D01*
X136914951Y-89568356D01*
X136917269Y-89552060D01*
X136919051Y-89525959D01*
X136920367Y-89488229D01*
X136921286Y-89437044D01*
X136921878Y-89370580D01*
X136922215Y-89287013D01*
X136922365Y-89184517D01*
X136922400Y-89061268D01*
X136922400Y-88529704D01*
X136864783Y-88568477D01*
X136855893Y-88574568D01*
X136841069Y-88585024D01*
X136827422Y-88594421D01*
X136813765Y-88602817D01*
X136798911Y-88610267D01*
X136781670Y-88616827D01*
X136760855Y-88622554D01*
X136735280Y-88627505D01*
X136703755Y-88631734D01*
X136665093Y-88635299D01*
X136618107Y-88638256D01*
X136561608Y-88640660D01*
X136494409Y-88642569D01*
X136415322Y-88644038D01*
X136323160Y-88645124D01*
X136216734Y-88645882D01*
X136094857Y-88646370D01*
X135956341Y-88646642D01*
X135799999Y-88646757D01*
X135624642Y-88646769D01*
X135429082Y-88646735D01*
X135212133Y-88646711D01*
X135089513Y-88646720D01*
X134884447Y-88646757D01*
X134700116Y-88646773D01*
X134535334Y-88646712D01*
X134388916Y-88646516D01*
X134259674Y-88646130D01*
X134146422Y-88645495D01*
X134047975Y-88644556D01*
X133963144Y-88643255D01*
X133890744Y-88641536D01*
X133829589Y-88639341D01*
X133778492Y-88636615D01*
X133736267Y-88633299D01*
X133701727Y-88629338D01*
X133673686Y-88624675D01*
X133650958Y-88619253D01*
X133632356Y-88613014D01*
X133616693Y-88605903D01*
X133602784Y-88597862D01*
X133589441Y-88588834D01*
X133575479Y-88578764D01*
X133559711Y-88567593D01*
X133501867Y-88527803D01*
X133501867Y-89587686D01*
X132892313Y-89587686D01*
X132892330Y-89517980D01*
X132892430Y-89334314D01*
X132892592Y-89170009D01*
X132892829Y-89023971D01*
X132893153Y-88895106D01*
X132893575Y-88782317D01*
X132894109Y-88684512D01*
X132894767Y-88600596D01*
X132895561Y-88529473D01*
X132896504Y-88470050D01*
X132897608Y-88421232D01*
X132898884Y-88381923D01*
X132900347Y-88351031D01*
X132902007Y-88327459D01*
X132903878Y-88310114D01*
X132905972Y-88297901D01*
X132908300Y-88289725D01*
X132910876Y-88284492D01*
X132914445Y-88278496D01*
X132917978Y-88271721D01*
X132921488Y-88265522D01*
X132925918Y-88259874D01*
X132932208Y-88254753D01*
X132941301Y-88250131D01*
X132954139Y-88245985D01*
X132971662Y-88242287D01*
X132994813Y-88239013D01*
X133024534Y-88236137D01*
X133061765Y-88233633D01*
X133107449Y-88231476D01*
X133162527Y-88229640D01*
X133227941Y-88228100D01*
X133304633Y-88226830D01*
X133393544Y-88225805D01*
X133495617Y-88224999D01*
X133501867Y-88224966D01*
X133611792Y-88224386D01*
X133743011Y-88223941D01*
X133890216Y-88223638D01*
X134054349Y-88223452D01*
X134236352Y-88223358D01*
X134437165Y-88223329D01*
X134657732Y-88223339D01*
X134898992Y-88223364D01*
X135161889Y-88223378D01*
X135204040Y-88223378D01*
X135464668Y-88223354D01*
X135703796Y-88223315D01*
X135922360Y-88223292D01*
X136121295Y-88223313D01*
G37*
%TD.AperFunction*%
%TD*%
D13*
%TO.P,J1,1,Pin_1*%
%TO.N,/POWER_5V*%
X133560000Y-77240000D03*
D14*
%TO.P,J1,2,Pin_2*%
%TO.N,/TX*%
X131020000Y-77240000D03*
%TO.P,J1,3,Pin_3*%
%TO.N,/RX*%
X128480000Y-77240000D03*
%TD*%
D13*
%TO.P,J4,1,Pin_1*%
%TO.N,/MIC_L\u005CR*%
X106060000Y-77160000D03*
D14*
%TO.P,J4,2,Pin_2*%
%TO.N,/MIC_SW*%
X106060000Y-79700000D03*
%TO.P,J4,3,Pin_3*%
%TO.N,/MIC_SCK*%
X106060000Y-82240000D03*
%TD*%
D13*
%TO.P,J7,1,Pin_1*%
%TO.N,/POWER_5V*%
X144985000Y-110490000D03*
D14*
%TO.P,J7,2,Pin_2*%
%TO.N,unconnected-(J7-Pin_2-Pad2)*%
X142445000Y-110490000D03*
%TO.P,J7,3,Pin_3*%
%TO.N,unconnected-(J7-Pin_3-Pad3)*%
X139905000Y-110490000D03*
%TO.P,J7,4,Pin_4*%
%TO.N,/TX*%
X137365000Y-110490000D03*
%TO.P,J7,5,Pin_5*%
%TO.N,/RX*%
X134825000Y-110490000D03*
%TO.P,J7,6,Pin_6*%
%TO.N,/MIC_SCK*%
X132285000Y-110490000D03*
%TO.P,J7,7,Pin_7*%
%TO.N,/RGB_(-)*%
X129745000Y-110490000D03*
%TO.P,J7,8,Pin_8*%
%TO.N,/RGB_(G)*%
X127205000Y-110490000D03*
%TO.P,J7,9,Pin_9*%
%TO.N,/RGB_(B)*%
X124665000Y-110490000D03*
%TO.P,J7,10,Pin_10*%
%TO.N,/W_LED_(-)*%
X122125000Y-110490000D03*
%TO.P,J7,11,Pin_11*%
%TO.N,/W_LED_(+)*%
X119585000Y-110490000D03*
%TO.P,J7,12,Pin_12*%
%TO.N,/RGB_(R)*%
X117045000Y-110490000D03*
%TO.P,J7,13,Pin_13*%
%TO.N,unconnected-(J7-Pin_13-Pad13)*%
X114505000Y-110490000D03*
%TO.P,J7,14,Pin_14*%
%TO.N,unconnected-(J7-Pin_14-Pad14)*%
X111965000Y-110490000D03*
%TO.P,J7,15,Pin_15*%
%TO.N,/MIC_L\u005CR*%
X109425000Y-110490000D03*
%TO.P,J7,16,Pin_16*%
%TO.N,unconnected-(J7-Pin_16-Pad16)*%
X106885000Y-110490000D03*
%TO.P,J7,17,Pin_17*%
%TO.N,/MIC_GND*%
X104345000Y-110490000D03*
%TO.P,J7,18,Pin_18*%
%TO.N,unconnected-(J7-Pin_18-Pad18)*%
X101805000Y-110490000D03*
%TO.P,J7,19,Pin_19*%
%TO.N,/MIC_SD*%
X99265000Y-110490000D03*
%TO.P,J7,20,Pin_20*%
%TO.N,unconnected-(J7-Pin_20-Pad20)*%
X96725000Y-110490000D03*
%TD*%
D15*
%TO.P,D2,1,K*%
%TO.N,/W_LED_(-)*%
X117060000Y-78740000D03*
D16*
%TO.P,D2,2,A*%
%TO.N,/W_LED_(+)*%
X114520000Y-78740000D03*
%TD*%
D13*
%TO.P,J6,1,Pin_1*%
%TO.N,/VCC_OLED*%
X144975000Y-113990000D03*
D14*
%TO.P,J6,2,Pin_2*%
%TO.N,/SDA_OLED*%
X142435000Y-113990000D03*
%TO.P,J6,3,Pin_3*%
%TO.N,/SCL_OLED*%
X139895000Y-113990000D03*
%TO.P,J6,4,Pin_4*%
%TO.N,unconnected-(J6-Pin_4-Pad4)*%
X137355000Y-113990000D03*
%TO.P,J6,5,Pin_5*%
%TO.N,/GND_OLED*%
X134815000Y-113990000D03*
%TO.P,J6,6,Pin_6*%
%TO.N,unconnected-(J6-Pin_6-Pad6)*%
X132275000Y-113990000D03*
%TO.P,J6,7,Pin_7*%
%TO.N,unconnected-(J6-Pin_7-Pad7)*%
X129735000Y-113990000D03*
%TO.P,J6,8,Pin_8*%
%TO.N,unconnected-(J6-Pin_8-Pad8)*%
X127195000Y-113990000D03*
%TO.P,J6,9,Pin_9*%
%TO.N,/MIC_3.3V*%
X124655000Y-113990000D03*
%TO.P,J6,10,Pin_10*%
%TO.N,unconnected-(J6-Pin_10-Pad10)*%
X122115000Y-113990000D03*
%TO.P,J6,11,Pin_11*%
%TO.N,unconnected-(J6-Pin_11-Pad11)*%
X119575000Y-113990000D03*
%TO.P,J6,12,Pin_12*%
%TO.N,unconnected-(J6-Pin_12-Pad12)*%
X117035000Y-113990000D03*
%TO.P,J6,13,Pin_13*%
%TO.N,unconnected-(J6-Pin_13-Pad13)*%
X114495000Y-113990000D03*
%TO.P,J6,14,Pin_14*%
%TO.N,unconnected-(J6-Pin_14-Pad14)*%
X111955000Y-113990000D03*
%TO.P,J6,15,Pin_15*%
%TO.N,unconnected-(J6-Pin_15-Pad15)*%
X109415000Y-113990000D03*
%TO.P,J6,16,Pin_16*%
%TO.N,unconnected-(J6-Pin_16-Pad16)*%
X106875000Y-113990000D03*
%TO.P,J6,17,Pin_17*%
%TO.N,unconnected-(J6-Pin_17-Pad17)*%
X104335000Y-113990000D03*
%TO.P,J6,18,Pin_18*%
%TO.N,/MIC_SW*%
X101795000Y-113990000D03*
%TO.P,J6,19,Pin_19*%
%TO.N,unconnected-(J6-Pin_19-Pad19)*%
X99255000Y-113990000D03*
%TO.P,J6,20,Pin_20*%
%TO.N,unconnected-(J6-Pin_20-Pad20)*%
X96715000Y-113990000D03*
%TD*%
D13*
%TO.P,J3,1,Pin_1*%
%TO.N,/MIC_GND*%
X97810000Y-77160000D03*
D14*
%TO.P,J3,2,Pin_2*%
%TO.N,/MIC_3.3V*%
X97810000Y-79700000D03*
%TO.P,J3,3,Pin_3*%
%TO.N,/MIC_SD*%
X97810000Y-82240000D03*
%TD*%
D13*
%TO.P,J5,1,Pin_1*%
%TO.N,/VCC_OLED*%
X154465000Y-69740000D03*
D14*
%TO.P,J5,2,Pin_2*%
%TO.N,/GND_OLED*%
X151925000Y-69740000D03*
%TO.P,J5,3,Pin_3*%
%TO.N,/SCL_OLED*%
X149385000Y-69740000D03*
%TO.P,J5,4,Pin_4*%
%TO.N,/SDA_OLED*%
X146845000Y-69740000D03*
%TD*%
D17*
%TO.P,D1,1,BA*%
%TO.N,/RGB_(B)*%
X120905000Y-78740000D03*
D18*
%TO.P,D1,2,GA*%
%TO.N,/RGB_(G)*%
X122175000Y-78740000D03*
%TO.P,D1,3,K*%
%TO.N,/RGB_(-)*%
X123445000Y-78740000D03*
%TO.P,D1,4,RA*%
%TO.N,/RGB_(R)*%
X124715000Y-78740000D03*
%TD*%
D19*
%TO.N,/RGB_(R)*%
X112315000Y-74290000D02*
X110915000Y-75690000D01*
X123415000Y-74290000D02*
X112315000Y-74290000D01*
X124715000Y-78740000D02*
X124715000Y-75590000D01*
X110915000Y-85690000D02*
X117475000Y-92250000D01*
X124715000Y-75590000D02*
X123415000Y-74290000D01*
X110915000Y-75690000D02*
X110915000Y-85690000D01*
X117475000Y-92250000D02*
X117475000Y-110490000D01*
%TO.N,/RGB_(-)*%
X129705000Y-85980000D02*
X123445000Y-79720000D01*
X129705000Y-110740000D02*
X129705000Y-85980000D01*
X123445000Y-79720000D02*
X123445000Y-78740000D01*
X129665000Y-110700000D02*
X129705000Y-110740000D01*
%TO.N,/RGB_(B)*%
X120905000Y-84130000D02*
X120905000Y-78740000D01*
X124625000Y-87850000D02*
X120905000Y-84130000D01*
X124625000Y-110740000D02*
X124625000Y-87850000D01*
%TO.N,/RGB_(G)*%
X127165000Y-86940000D02*
X122065000Y-81840000D01*
X122175000Y-80980000D02*
X122175000Y-78740000D01*
X127165000Y-110740000D02*
X127165000Y-86940000D01*
X122065000Y-81840000D02*
X122065000Y-81090000D01*
X122065000Y-81090000D02*
X122175000Y-80980000D01*
%TO.N,/VCC_OLED*%
X153215000Y-113990000D02*
X144975000Y-113990000D01*
X154465000Y-69740000D02*
X154465000Y-112840000D01*
X153265000Y-114040000D02*
X153215000Y-113990000D01*
X154465000Y-112840000D02*
X153265000Y-114040000D01*
%TO.N,/SCL_OLED*%
X158065000Y-73990000D02*
X158065000Y-113990000D01*
X157265000Y-65490000D02*
X158665000Y-66890000D01*
X149385000Y-72020000D02*
X148565000Y-72840000D01*
X139895000Y-116320000D02*
X139895000Y-113990000D01*
X144015000Y-67290000D02*
X145815000Y-65490000D01*
X142015000Y-118440000D02*
X139895000Y-116320000D01*
X149385000Y-69740000D02*
X149385000Y-72020000D01*
X145115000Y-72840000D02*
X144015000Y-71740000D01*
X158665000Y-72990000D02*
X157865000Y-73790000D01*
X148565000Y-72840000D02*
X145115000Y-72840000D01*
X153615000Y-118440000D02*
X142015000Y-118440000D01*
X157865000Y-73790000D02*
X158065000Y-73990000D01*
X158065000Y-113990000D02*
X153615000Y-118440000D01*
X144015000Y-71740000D02*
X144015000Y-67290000D01*
X158665000Y-66890000D02*
X158665000Y-72990000D01*
X145815000Y-65490000D02*
X157265000Y-65490000D01*
%TO.N,/SDA_OLED*%
X156465000Y-73140000D02*
X156465000Y-113640000D01*
X156465000Y-113640000D02*
X152965000Y-117140000D01*
X146845000Y-69740000D02*
X149695000Y-66890000D01*
X142435000Y-116160000D02*
X142435000Y-113990000D01*
X143415000Y-117140000D02*
X142435000Y-116160000D01*
X149695000Y-66890000D02*
X156365000Y-66890000D01*
X157465000Y-67990000D02*
X157465000Y-72140000D01*
X152965000Y-117140000D02*
X143415000Y-117140000D01*
X157465000Y-72140000D02*
X156465000Y-73140000D01*
X156365000Y-66890000D02*
X157465000Y-67990000D01*
%TO.N,/W_LED_(+)*%
X119565000Y-90040000D02*
X119545000Y-90060000D01*
X119545000Y-90060000D02*
X119545000Y-110740000D01*
X114520000Y-78740000D02*
X114520000Y-84995000D01*
X114520000Y-84995000D02*
X119565000Y-90040000D01*
%TO.N,/W_LED_(-)*%
X122085000Y-110740000D02*
X122085000Y-89310000D01*
X122085000Y-89310000D02*
X117060000Y-84285000D01*
X117060000Y-84285000D02*
X117060000Y-78740000D01*
%TO.N,/POWER_5V*%
X145165000Y-110520000D02*
X144945000Y-110740000D01*
X145165000Y-79390000D02*
X145165000Y-110520000D01*
X133560000Y-77240000D02*
X143015000Y-77240000D01*
X143015000Y-77240000D02*
X145165000Y-79390000D01*
%TO.N,/TX*%
X131020000Y-77240000D02*
X131020000Y-78745000D01*
X142215000Y-80340000D02*
X143415000Y-81540000D01*
X143415000Y-81540000D02*
X143415000Y-106190000D01*
X132615000Y-80340000D02*
X142215000Y-80340000D01*
X141565000Y-107890000D02*
X138265000Y-107890000D01*
X138265000Y-107890000D02*
X137325000Y-108830000D01*
X131020000Y-78745000D02*
X132615000Y-80340000D01*
X137325000Y-108830000D02*
X137325000Y-110740000D01*
X143215000Y-106240000D02*
X141565000Y-107890000D01*
%TO.N,/RX*%
X132115000Y-82140000D02*
X140665000Y-82140000D01*
X128480000Y-77240000D02*
X128480000Y-78505000D01*
X136815000Y-105740000D02*
X134785000Y-107770000D01*
X141865000Y-104090000D02*
X140215000Y-105740000D01*
X140665000Y-82140000D02*
X140651250Y-82153750D01*
X128480000Y-78505000D02*
X132115000Y-82140000D01*
X140651250Y-82153750D02*
X141865000Y-83367500D01*
X134785000Y-107770000D02*
X134785000Y-110740000D01*
X141865000Y-83367500D02*
X141865000Y-104090000D01*
X140215000Y-105740000D02*
X136815000Y-105740000D01*
%TO.N,/MIC_GND*%
X101565000Y-79490000D02*
X101565000Y-108000000D01*
X97810000Y-77160000D02*
X99235000Y-77160000D01*
X99235000Y-77160000D02*
X101565000Y-79490000D01*
X101565000Y-108000000D02*
X104305000Y-110740000D01*
%TO.N,/MIC_3.3V*%
X95655000Y-79700000D02*
X94015000Y-81340000D01*
X97810000Y-79700000D02*
X95655000Y-79700000D01*
X94015000Y-81340000D02*
X94015000Y-115040000D01*
X95865000Y-116890000D02*
X123465000Y-116890000D01*
X94015000Y-115040000D02*
X95865000Y-116890000D01*
X124655000Y-115700000D02*
X124655000Y-113990000D01*
D20*
X97810000Y-79700000D02*
X97810000Y-79765000D01*
D19*
X123465000Y-116890000D02*
X124655000Y-115700000D01*
%TO.N,/MIC_SD*%
X99225000Y-83655000D02*
X99225000Y-110740000D01*
X97810000Y-82240000D02*
X99225000Y-83655000D01*
%TO.N,/MIC_L\u005CR*%
X104645000Y-77160000D02*
X103315000Y-78490000D01*
X106060000Y-77160000D02*
X104645000Y-77160000D01*
X103315000Y-105740000D02*
X105915000Y-108340000D01*
X103315000Y-78490000D02*
X103315000Y-105740000D01*
X105915000Y-108340000D02*
X108415000Y-108340000D01*
X109385000Y-109310000D02*
X109385000Y-110740000D01*
X108415000Y-108340000D02*
X109385000Y-109310000D01*
%TO.N,/GND_OLED*%
X160015000Y-65740000D02*
X160015000Y-114740000D01*
X142465000Y-66440000D02*
X145015000Y-63890000D01*
X144165000Y-74490000D02*
X142465000Y-72790000D01*
X141015000Y-120190000D02*
X134815000Y-113990000D01*
X151925000Y-69740000D02*
X151925000Y-71880000D01*
X145015000Y-63890000D02*
X158165000Y-63890000D01*
X142465000Y-72790000D02*
X142465000Y-66440000D01*
X149315000Y-74490000D02*
X144165000Y-74490000D01*
X151925000Y-71880000D02*
X149315000Y-74490000D01*
X160015000Y-114740000D02*
X154565000Y-120190000D01*
X158165000Y-63890000D02*
X160015000Y-65740000D01*
X154565000Y-120190000D02*
X141015000Y-120190000D01*
%TD*%
M02*
